<?xml version="1.0" standalone="no"?>
<!DOCTYPE svg PUBLIC "-//W3C//DTD SVG 20010904//EN"
 "http://www.w3.org/TR/2001/REC-SVG-20010904/DTD/svg10.dtd">
<svg version="1.0" xmlns="http://www.w3.org/2000/svg"
 width="500.000000pt" height="500.000000pt" viewBox="0 0 500.000000 500.000000"
 preserveAspectRatio="xMidYMid meet">

<g transform="translate(0.000000,500.000000) scale(0.100000,-0.100000)"
fill="#000000" stroke="none">
<path d="M2291 4160 c-84 -22 -216 -91 -278 -145 -65 -55 -157 -184 -191 -268
-55 -131 -66 -323 -26 -459 51 -171 194 -346 349 -425 158 -80 334 -99 513
-54 236 59 439 269 497 516 22 90 19 245 -5 334 -64 230 -223 402 -451 487
-64 23 -92 28 -204 31 -106 2 -144 -1 -204 -17z"/>
<path d="M2258 2674 c-119 -21 -284 -79 -373 -129 -207 -118 -401 -319 -503
-521 -39 -77 -97 -251 -114 -340 -8 -44 -13 -150 -13 -289 l0 -220 32 -67 c43
-92 110 -157 193 -188 l65 -25 935 0 935 0 58 27 c82 40 144 101 181 178 l31
65 0 240 c-1 226 -3 247 -28 355 -82 343 -328 650 -652 813 -71 35 -230 84
-331 102 -107 18 -312 18 -416 -1z"/>
</g>
</svg>
