<?xml version="1.0" encoding="UTF-8"?>
<!DOCTYPE svg PUBLIC "-//W3C//DTD SVG 1.1//EN" "http://www.w3.org/Graphics/SVG/1.1/DTD/svg11.dtd">
<svg xmlns="http://www.w3.org/2000/svg" version="1.1" width="500px" height="500px" style="shape-rendering:geometricPrecision; text-rendering:geometricPrecision; image-rendering:optimizeQuality; fill-rule:evenodd; clip-rule:evenodd" xmlns:xlink="http://www.w3.org/1999/xlink">
<g><path style="opacity:1" fill="#121212" d="M 308.5,193.5 C 307.566,194.568 307.232,195.901 307.5,197.5C 323.167,197.5 338.833,197.5 354.5,197.5C 372.159,199.487 385.826,207.821 395.5,222.5C 395.427,224.027 396.094,225.027 397.5,225.5C 403.339,233.998 406.339,243.498 406.5,254C 403.721,271.563 400.554,289.063 397,306.5C 396.771,309.458 395.604,311.958 393.5,314C 388.845,314.499 384.179,314.666 379.5,314.5C 374.216,333.302 361.882,341.968 342.5,340.5C 340.485,339.076 338.152,338.41 335.5,338.5C 333.181,338.008 331.181,337.008 329.5,335.5C 329.027,334.094 328.027,333.427 326.5,333.5C 320.881,328.44 316.881,322.273 314.5,315C 288.494,314.167 262.494,314.333 236.5,315.5C 227.983,338.224 212.316,345.557 189.5,337.5C 189.027,336.094 188.027,335.427 186.5,335.5C 178.476,330.981 173.476,324.147 171.5,315C 163.833,314.667 156.167,314.333 148.5,314C 145.575,311.722 144.575,308.888 145.5,305.5C 146.906,305.027 147.573,304.027 147.5,302.5C 155.323,301.671 163.323,301.171 171.5,301C 172.935,295.961 175.268,291.461 178.5,287.5C 179.906,287.027 180.573,286.027 180.5,284.5C 190.658,275.618 202.324,273.118 215.5,277C 219.524,278.674 223.191,280.841 226.5,283.5C 226.427,285.027 227.094,286.027 228.5,286.5C 232.684,290.189 235.35,294.856 236.5,300.5C 247.814,301.499 259.147,301.832 270.5,301.5C 279.532,258.037 289.199,214.704 299.5,171.5C 249.166,171.667 198.832,171.5 148.5,171C 145.565,168.691 144.565,165.857 145.5,162.5C 146.906,162.027 147.573,161.027 147.5,159.5C 148.263,158.732 149.263,158.232 150.5,158C 203.833,157.333 257.167,157.333 310.5,158C 313.635,159.266 315.302,161.599 315.5,165C 313.235,174.558 310.902,184.058 308.5,193.5 Z M 375.5,220.5 C 375.973,221.906 376.973,222.573 378.5,222.5C 380.833,225.833 383.167,229.167 385.5,232.5C 385.932,233.71 386.599,234.71 387.5,235.5C 390.094,241.204 391.76,247.204 392.5,253.5C 389.473,269.135 386.64,284.802 384,300.5C 382.644,301.38 381.144,301.714 379.5,301.5C 379.128,297.703 377.794,294.37 375.5,291.5C 375.573,289.973 374.906,288.973 373.5,288.5C 373.5,287.833 373.167,287.5 372.5,287.5C 372.573,285.973 371.906,284.973 370.5,284.5C 359.627,275.115 347.294,272.948 333.5,278C 330.244,279.116 327.578,280.949 325.5,283.5C 323.5,283.5 322.5,284.5 322.5,286.5C 321.094,286.973 320.427,287.973 320.5,289.5C 317.293,292.768 315.627,296.768 315.5,301.5C 305.167,301.5 294.833,301.5 284.5,301.5C 291.641,271.269 298.308,240.936 304.5,210.5C 319.504,210.333 334.504,210.5 349.5,211C 359.145,211.713 367.812,214.88 375.5,220.5 Z M 202.5,288.5 C 218.918,290.994 225.085,300.328 221,316.5C 212.918,327.57 203.085,329.403 191.5,322C 181.806,311.4 182.472,301.4 193.5,292C 196.459,290.396 199.459,289.229 202.5,288.5 Z M 357.5,291.5 C 358.262,293.262 359.596,294.262 361.5,294.5C 364.151,299.12 365.818,304.12 366.5,309.5C 365.542,311.302 364.875,313.302 364.5,315.5C 359.705,324.837 352.039,328.337 341.5,326C 330.84,321.662 326.673,313.828 329,302.5C 335.06,289.87 344.56,286.203 357.5,291.5 Z"/></g>
<g><path style="opacity:0.384" fill="#a2a2a2" d="M 147.5,159.5 C 147.573,161.027 146.906,162.027 145.5,162.5C 145.427,160.973 146.094,159.973 147.5,159.5 Z"/></g>
<g><path style="opacity:1" fill="#191919" d="M 120.5,186.5 C 122.027,186.573 123.027,185.906 123.5,184.5C 142.093,183.347 160.76,183.181 179.5,184C 184.145,186.025 185.645,189.525 184,194.5C 183.692,195.308 183.192,195.975 182.5,196.5C 162.21,197.655 141.877,197.821 121.5,197C 117.953,193.694 117.619,190.194 120.5,186.5 Z"/></g>
<g><path style="opacity:0.792" fill="#868686" d="M 123.5,184.5 C 123.027,185.906 122.027,186.573 120.5,186.5C 120.973,185.094 121.973,184.427 123.5,184.5 Z"/></g>
<g><path style="opacity:0.251" fill="#c0c0c0" d="M 308.5,193.5 C 308.5,194.5 308.5,195.5 308.5,196.5C 324.009,196.17 339.342,196.504 354.5,197.5C 338.833,197.5 323.167,197.5 307.5,197.5C 307.232,195.901 307.566,194.568 308.5,193.5 Z"/></g>
<g><path style="opacity:0.694" fill="#999999" d="M 375.5,220.5 C 377.027,220.427 378.027,221.094 378.5,222.5C 376.973,222.573 375.973,221.906 375.5,220.5 Z"/></g>
<g><path style="opacity:1" fill="#1c1c1c" d="M 182.5,224.5 C 183.299,227.43 183.632,230.43 183.5,233.5C 182.878,235.335 181.544,236.502 179.5,237C 156.427,237.822 133.427,237.655 110.5,236.5C 110.027,235.094 109.027,234.427 107.5,234.5C 105.647,232.309 105.313,229.975 106.5,227.5C 108.167,226.5 109.5,225.167 110.5,223.5C 133.427,222.345 156.427,222.178 179.5,223C 180.737,223.232 181.737,223.732 182.5,224.5 Z"/></g>
<g><path style="opacity:0.78" fill="#868686" d="M 110.5,223.5 C 109.5,225.167 108.167,226.5 106.5,227.5C 106.833,225.167 108.167,223.833 110.5,223.5 Z"/></g>
<g><path style="opacity:0.478" fill="#929292" d="M 395.5,222.5 C 396.906,222.973 397.573,223.973 397.5,225.5C 396.094,225.027 395.427,224.027 395.5,222.5 Z"/></g>
<g><path style="opacity:0.816" fill="#6a6a6a" d="M 182.5,224.5 C 183.117,224.611 183.617,224.944 184,225.5C 184.801,228.367 184.634,231.034 183.5,233.5C 183.632,230.43 183.299,227.43 182.5,224.5 Z"/></g>
<g><path style="opacity:0.937" fill="#7b7b7b" d="M 385.5,232.5 C 387.048,232.821 387.715,233.821 387.5,235.5C 386.599,234.71 385.932,233.71 385.5,232.5 Z"/></g>
<g><path style="opacity:0.357" fill="#aaaaaa" d="M 107.5,234.5 C 109.027,234.427 110.027,235.094 110.5,236.5C 108.973,236.573 107.973,235.906 107.5,234.5 Z"/></g>
<g><path style="opacity:1" fill="#131313" d="M 182.5,263.5 C 182.427,265.027 183.094,266.027 184.5,266.5C 185.125,269.97 184.125,272.804 181.5,275C 152.833,275.667 124.167,275.667 95.5,275C 91.1246,269.879 91.7913,265.545 97.5,262C 124.833,261.333 152.167,261.333 179.5,262C 180.737,262.232 181.737,262.732 182.5,263.5 Z"/></g>
<g><path style="opacity:0.212" fill="#bababa" d="M 182.5,263.5 C 183.906,263.973 184.573,264.973 184.5,266.5C 183.094,266.027 182.427,265.027 182.5,263.5 Z"/></g>
<g><path style="opacity:0.667" fill="#979797" d="M 226.5,283.5 C 227.906,283.973 228.573,284.973 228.5,286.5C 227.094,286.027 226.427,285.027 226.5,283.5 Z"/></g>
<g><path style="opacity:0.757" fill="#868686" d="M 180.5,284.5 C 180.573,286.027 179.906,287.027 178.5,287.5C 178.427,285.973 179.094,284.973 180.5,284.5 Z"/></g>
<g><path style="opacity:0.643" fill="#858585" d="M 325.5,283.5 C 324.833,284.833 323.833,285.833 322.5,286.5C 322.5,284.5 323.5,283.5 325.5,283.5 Z"/></g>
<g><path style="opacity:0.725" fill="#8f8f8f" d="M 370.5,284.5 C 371.906,284.973 372.573,285.973 372.5,287.5C 371.094,287.027 370.427,286.027 370.5,284.5 Z"/></g>
<g><path style="opacity:0.596" fill="#7c7c7c" d="M 322.5,286.5 C 322.573,288.027 321.906,289.027 320.5,289.5C 320.427,287.973 321.094,286.973 322.5,286.5 Z"/></g>
<g><path style="opacity:0.514" fill="#898989" d="M 373.5,288.5 C 374.906,288.973 375.573,289.973 375.5,291.5C 374.094,291.027 373.427,290.027 373.5,288.5 Z"/></g>
<g><path style="opacity:0.812" fill="#8a8a8a" d="M 357.5,291.5 C 359.404,291.738 360.738,292.738 361.5,294.5C 359.596,294.262 358.262,293.262 357.5,291.5 Z"/></g>
<g><path style="opacity:0.431" fill="#979797" d="M 147.5,302.5 C 147.573,304.027 146.906,305.027 145.5,305.5C 145.427,303.973 146.094,302.973 147.5,302.5 Z"/></g>
<g><path style="opacity:0.906" fill="#7d7d7d" d="M 366.5,309.5 C 366.946,312.01 366.28,314.01 364.5,315.5C 364.875,313.302 365.542,311.302 366.5,309.5 Z"/></g>
<g><path style="opacity:0.529" fill="#8e8e8e" d="M 326.5,333.5 C 328.027,333.427 329.027,334.094 329.5,335.5C 327.973,335.573 326.973,334.906 326.5,333.5 Z"/></g>
<g><path style="opacity:0.353" fill="#9b9b9b" d="M 186.5,335.5 C 188.027,335.427 189.027,336.094 189.5,337.5C 187.973,337.573 186.973,336.906 186.5,335.5 Z"/></g>
<g><path style="opacity:0.678" fill="#6f6f6f" d="M 335.5,338.5 C 338.152,338.41 340.485,339.076 342.5,340.5C 339.848,340.59 337.515,339.924 335.5,338.5 Z"/></g>
</svg>
