<?xml version="1.0" standalone="no"?>
<!DOCTYPE svg PUBLIC "-//W3C//DTD SVG 20010904//EN"
 "http://www.w3.org/TR/2001/REC-SVG-20010904/DTD/svg10.dtd">
<svg version="1.0" xmlns="http://www.w3.org/2000/svg"
 width="500.000000pt" height="500.000000pt" viewBox="0 0 500.000000 500.000000"
 preserveAspectRatio="xMidYMid meet">

<g transform="translate(0.000000,500.000000) scale(0.100000,-0.100000)"
fill="#000000" stroke="none">
<path d="M2300 3454 c-71 -38 -215 -123 -326 -191 -39 -23 -74 -43 -78 -43 -3
0 -39 -20 -79 -43 -39 -24 -121 -72 -182 -107 -60 -35 -111 -64 -113 -65 -1
-1 -4 -925 -2 -1002 0 -6 12 -18 28 -26 15 -7 79 -44 142 -82 63 -37 149 -87
190 -110 41 -23 127 -72 190 -110 63 -37 159 -92 212 -121 l97 -54 95 51 95
50 39 -26 c154 -102 347 -94 499 22 45 34 100 119 119 183 17 54 19 87 23 370
l2 145 63 55 c161 140 212 347 136 555 -30 82 -39 96 -109 165 -100 98 -175
138 -295 156 -50 8 -110 14 -133 14 l-43 0 20 33 c24 38 26 106 5 147 -22 43
-74 70 -133 70 -45 0 -56 -5 -106 -46 -31 -25 -56 -50 -56 -55 0 -6 -47 15
-104 45 -58 31 -111 56 -118 56 -7 -1 -42 -17 -78 -36z m519 -40 c48 -40 44
-85 -15 -152 -64 -74 -55 -82 90 -82 179 0 288 -40 398 -144 177 -169 183
-441 14 -610 l-51 -51 -6 210 c-6 243 -15 273 -93 342 -62 54 -120 74 -238 80
-162 9 -182 -7 -113 -89 51 -59 58 -99 24 -142 -16 -20 -29 -26 -61 -26 -40 0
-47 6 -195 153 -138 137 -153 156 -153 186 0 31 15 50 148 184 179 182 194
190 251 141z m-354 -30 c41 -25 75 -49 75 -53 0 -5 -35 -41 -77 -80 l-76 -72
-71 37 c-114 60 -150 84 -138 96 12 12 194 117 204 118 4 0 41 -21 83 -46z
m-197 -210 c61 -34 101 -63 98 -70 -3 -7 0 -30 6 -51 8 -29 44 -73 161 -190
83 -84 147 -153 141 -153 -6 0 -30 13 -55 28 -25 16 -78 47 -119 69 -41 22
-143 80 -227 129 -83 49 -199 116 -257 149 -58 33 -106 63 -106 66 0 9 43 37
125 81 70 37 70 37 100 19 16 -10 76 -44 133 -77z m-328 -114 c52 -30 158 -91
235 -136 77 -45 163 -95 191 -111 128 -70 244 -138 244 -144 0 -3 -35 -24 -77
-47 -43 -23 -95 -52 -115 -64 l-38 -22 -37 21 c-21 12 -63 34 -93 51 -30 16
-120 68 -199 116 -78 47 -146 86 -150 86 -7 0 -245 141 -276 163 -19 14 -16
16 40 45 33 17 85 46 115 65 30 20 57 34 60 33 3 -2 48 -27 100 -56z m1095
-129 c17 -7 15 -10 -20 -33 -91 -57 -100 -59 -110 -20 -3 15 -14 35 -22 45
-15 16 -12 17 58 16 41 0 83 -4 94 -8z m-1240 -130 c99 -57 216 -123 260 -149
203 -115 287 -167 291 -176 2 -6 3 -209 2 -452 l-3 -441 -140 84 c-77 47 -158
93 -180 104 -22 10 -111 61 -197 112 -86 50 -180 104 -207 119 l-51 28 0 451
0 451 23 -14 c12 -8 103 -61 202 -117z m1360 36 l30 -42 3 -335 2 -335 -26 33
c-37 47 -141 117 -203 137 -77 25 -207 18 -281 -16 -123 -57 -219 -182 -239
-314 -14 -94 10 -206 60 -277 11 -14 19 -30 19 -35 0 -5 -25 -23 -55 -40 l-55
-32 2 452 3 451 115 68 115 67 5 -86 c4 -63 9 -89 20 -96 12 -7 50 11 155 75
l140 83 3 105 3 105 62 36 c34 21 69 37 77 38 8 0 29 -18 45 -42z m-253 -215
c-5 -1 -48 -25 -96 -52 -47 -28 -88 -50 -91 -50 -3 0 -5 31 -5 68 0 64 2 69
29 85 16 9 40 17 53 17 28 0 73 29 96 61 17 24 17 23 20 -51 2 -41 -1 -76 -6
-78z m80 -400 c70 -31 141 -102 174 -175 40 -87 41 -196 2 -279 -33 -71 -112
-152 -176 -181 -73 -33 -208 -31 -283 4 -65 31 -125 89 -165 162 -27 48 -29
61 -29 152 0 90 3 105 27 152 51 96 99 137 207 179 53 20 184 13 243 -14z"/>
<path d="M1647 2133 c-22 -21 -1 -44 89 -97 97 -58 128 -64 122 -24 -2 14 -30
38 -88 74 -81 51 -109 62 -123 47z"/>
<path d="M2816 2085 c-9 -24 -7 -178 3 -193 5 -9 26 -12 67 -10 48 2 59 6 62
22 5 23 -14 36 -50 36 -27 0 -27 1 -30 78 -3 70 -5 77 -24 80 -13 2 -24 -4
-28 -13z"/>
</g>
</svg>
