<?xml version="1.0" encoding="UTF-8"?>
<svg version="1.1" xmlns="http://www.w3.org/2000/svg" width="500" height="500">
<path d="M0 0 C1.74361816 0.75071777 1.74361816 0.75071777 3.52246094 1.51660156 C4.75743648 2.06252931 5.99213184 2.60909129 7.2265625 3.15625 C8.4975493 3.71100633 9.76870918 4.2653663 11.04003906 4.81933594 C19.50124832 8.52620572 27.82960599 12.44096293 36.01855469 16.71630859 C38.00337155 17.73409561 40.00598075 18.7079862 42.015625 19.67578125 C61.46615765 29.07814272 61.46615765 29.07814272 65.8515625 35.65625 C65.91988281 36.79578125 65.98820313 37.9353125 66.05859375 39.109375 C66.48792856 42.86810093 66.48792856 42.86810093 69.67578125 44.703125 C70.95171762 45.29693138 72.24090094 45.86274636 73.5390625 46.40625 C75.00200337 47.07659664 76.46420258 47.74856348 77.92578125 48.421875 C78.71774902 48.77701172 79.5097168 49.13214844 80.32568359 49.49804688 C84.89534759 51.59339638 89.3649115 53.89002947 93.8515625 56.15625 C95.75605938 57.11027593 97.66100115 58.06341429 99.56640625 59.015625 C100.47503418 59.47001953 101.38366211 59.92441406 102.31982422 60.39257812 C104.47569182 61.46864087 106.63346413 62.54063769 108.79296875 63.609375 C117.30675265 67.82865586 125.7678686 72.15114759 134.2170105 76.49816895 C135.5515838 77.1842534 136.88680541 77.86907828 138.22268677 78.5526123 C140.10876429 79.51827364 141.99218162 80.48894015 143.875 81.4609375 C144.97763184 82.02796387 146.08026367 82.59499023 147.21630859 83.17919922 C149.8515625 84.65625 149.8515625 84.65625 151.8515625 86.65625 C152.33101451 89.91731617 152.58633333 92.43749417 150.83154297 95.34814453 C149.3939143 97.06679008 147.88348791 98.6446177 146.2890625 100.21875 C145.4695813 101.0684436 145.4695813 101.0684436 144.63354492 101.93530273 C141.77390917 104.86521228 138.83190256 107.62085606 135.6640625 110.21875 C132.84389484 112.32285539 132.84389484 112.32285539 131.97192383 114.57641602 C131.63063643 116.74643562 131.63063643 116.74643562 133.14331055 118.49975586 C133.79340088 119.11729736 134.44349121 119.73483887 135.11328125 120.37109375 C135.82033203 121.05751953 136.52738281 121.74394531 137.25585938 122.45117188 C138.00931641 123.15822266 138.76277344 123.86527344 139.5390625 124.59375 C151.58398803 136.1310755 151.58398803 136.1310755 152.4765625 141.21875 C151.8515625 144.65625 151.8515625 144.65625 149.3671875 146.60546875 C145.40692449 149.04667038 141.20125799 150.97291478 136.9765625 152.90625 C136.1928125 153.26976562 135.4090625 153.63328125 134.6015625 154.0078125 C132.68695029 154.89507182 130.76953925 155.77628739 128.8515625 156.65625 C128.84791687 157.82500671 128.84427124 158.99376343 128.84051514 160.19793701 C128.8035973 171.2045346 128.74585981 182.21085157 128.66765976 193.21723557 C128.62812598 198.87595542 128.59596642 204.53451829 128.58056641 210.19335938 C128.56543876 215.65299145 128.53106238 221.11219208 128.48325348 226.57163239 C128.46839948 228.65602115 128.46051919 230.7404715 128.45967865 232.82491302 C128.45731934 235.74149242 128.43032323 238.6568694 128.39746094 241.57324219 C128.4024913 242.43783051 128.40752167 243.30241882 128.41270447 244.19320679 C128.31115947 250.00607907 128.31115947 250.00607907 126.17121887 253.03335571 C123.58588874 254.84212254 121.02190988 256.30703856 118.19116211 257.70556641 C117.05154526 258.27360992 115.91192841 258.84165344 114.73777771 259.4269104 C113.49319876 260.03730259 112.24857367 260.64760072 111.00390625 261.2578125 C109.70954435 261.89997931 108.41557022 262.54292826 107.1219635 263.18661499 C103.70827721 264.88299875 100.29009373 266.570107 96.8706665 268.25488281 C91.46593339 270.91977042 86.06792676 273.59828832 80.66975403 276.27643394 C79.34730278 276.93244868 78.02470059 277.58815922 76.70195007 278.24357033 C68.35708432 282.37970219 60.06191073 286.59270405 51.84004211 290.96925354 C42.08507306 296.15121863 32.20638695 301.09024485 22.33056641 306.03686523 C18.92974286 307.74222798 15.53327678 309.45608239 12.13671875 311.16992188 C9.96119933 312.26093892 7.78542759 313.35145302 5.609375 314.44140625 C4.6010965 314.9517189 3.59281799 315.46203156 2.5539856 315.98780823 C1.61465179 316.45597458 0.67531799 316.92414093 -0.29248047 317.40649414 C-1.52223099 318.02410362 -1.52223099 318.02410362 -2.77682495 318.65419006 C-6.19059461 320.09658495 -8.91398057 321.04178648 -12.51000977 319.91870117 C-13.32010498 319.51627197 -14.1302002 319.11384277 -14.96484375 318.69921875 C-16.34337524 318.02693237 -16.34337524 318.02693237 -17.74975586 317.34106445 C-18.7269458 316.84695068 -19.70413574 316.35283691 -20.7109375 315.84375 C-21.72873291 315.34254639 -22.74652832 314.84134277 -23.79516602 314.32495117 C-26.91981942 312.78216721 -30.03456364 311.22065545 -33.1484375 309.65625 C-34.94746941 308.76212037 -36.74692388 307.86884024 -38.546875 306.9765625 C-42.50337815 305.0104796 -46.45183763 303.02905193 -50.39648438 301.03930664 C-53.11897986 299.67105461 -55.8461465 298.31235703 -58.57365417 296.95413208 C-67.52341244 292.4934302 -76.42255479 287.93792538 -85.31298828 283.36035156 C-99.77493509 275.91556291 -114.26759182 268.53989604 -128.84619141 261.32592773 C-144.76342696 253.42627108 -144.76342696 253.42627108 -146.1484375 250.65625 C-146.27134252 247.69730781 -146.33421716 244.76040791 -146.35375977 241.80029297 C-146.36365936 240.88316528 -146.37355896 239.9660376 -146.38375854 239.02111816 C-146.41542465 235.98025115 -146.44015116 232.93936849 -146.46484375 229.8984375 C-146.48540886 227.79378852 -146.50640521 225.68914371 -146.52781677 223.58450317 C-146.58308315 218.03773369 -146.63247228 212.49092666 -146.68066406 206.9440918 C-146.73084578 201.28691251 -146.7865492 195.62978793 -146.84179688 189.97265625 C-146.94943429 178.86723421 -147.05086684 167.76176472 -147.1484375 156.65625 C-148.08695557 156.21756592 -148.08695557 156.21756592 -149.04443359 155.77001953 C-151.87288312 154.44489014 -154.69817483 153.11315955 -157.5234375 151.78125 C-158.50828125 151.32105469 -159.493125 150.86085937 -160.5078125 150.38671875 C-161.44882813 149.94199219 -162.38984375 149.49726563 -163.359375 149.0390625 C-164.22868652 148.63059082 -165.09799805 148.22211914 -165.99365234 147.80126953 C-168.1484375 146.65625 -168.1484375 146.65625 -170.1484375 144.65625 C-170.80513971 140.09796407 -170.55820651 138.22618254 -167.83984375 134.4453125 C-166.81465835 133.37333095 -165.77062454 132.31913868 -164.7109375 131.28125 C-164.17049805 130.72542236 -163.63005859 130.16959473 -163.07324219 129.59692383 C-161.44787938 127.93296465 -159.80071171 126.29343495 -158.1484375 124.65625 C-156.76205078 123.25052734 -156.76205078 123.25052734 -155.34765625 121.81640625 C-153.29698091 119.74610723 -151.23244802 117.69289664 -149.1484375 115.65625 C-151.9438158 112.21654691 -154.66442334 109.05787877 -158.0859375 106.21875 C-163.10796593 102.01664458 -169.34378086 96.35767056 -170.7734375 89.78125 C-170.1484375 86.65625 -170.1484375 86.65625 -167.109375 84.48046875 C-160.29755878 80.4570183 -153.19125222 76.94100549 -146.1484375 73.34375 C-144.73031322 72.61553718 -143.31234351 71.88702326 -141.89453125 71.15820312 C-132.95933721 66.57150616 -123.98923667 62.05688165 -114.99926758 57.5786438 C-112.15691239 56.16210598 -109.31680629 54.74107795 -106.4765625 53.3203125 C-89.1484375 44.65625 -89.1484375 44.65625 -86.88964844 43.73583984 C-84.67384859 42.64301891 -84.67384859 42.64301891 -84.2109375 38.84375 C-84.05625 38.12703125 -83.9015625 37.4103125 -83.7421875 36.671875 C-81.75635461 29.93049491 -72.96150086 25.826751 -67.1484375 22.65625 C-52.3214456 15.02127201 -36.99085047 8.34265502 -21.67578125 1.7578125 C-20.1372921 1.08725 -18.60615293 0.39899925 -17.08984375 -0.3203125 C-10.77274347 -3.27842948 -6.29645156 -2.73597554 0 0 Z M-16.4453125 12.21875 C-17.47881836 12.76450684 -18.51232422 13.31026367 -19.57714844 13.87255859 C-21.22118652 14.75548584 -21.22118652 14.75548584 -22.8984375 15.65625 C-25.1687406 16.85777326 -27.43957382 18.05829537 -29.7109375 19.2578125 C-30.81566406 19.84336914 -31.92039063 20.42892578 -33.05859375 21.03222656 C-36.97662498 23.09154576 -40.9281302 25.07515715 -44.8984375 27.03125 C-51.73816885 30.41380805 -58.45731658 33.98988237 -65.1484375 37.65625 C-60.51498131 41.8953695 -55.16278857 44.18218024 -49.5234375 46.78125 C-41.00884632 50.77060391 -32.62787348 54.92931337 -24.35302734 59.39501953 C-22.29406472 60.50105854 -20.22548567 61.58462555 -18.1484375 62.65625 C-17.54257813 62.97980469 -16.93671875 63.30335938 -16.3125 63.63671875 C-11.77783842 65.86374144 -8.9864548 65.99987027 -4.1484375 64.65625 C0.09347983 62.81639139 4.18587875 60.72235602 8.2890625 58.59375 C10.61976869 57.40490287 12.95049781 56.21610069 15.28125 55.02734375 C16.40756836 54.44839355 17.53388672 53.86944336 18.69433594 53.27294922 C22.74933214 51.1965353 26.83009313 49.17482147 30.9140625 47.15625 C36.3111319 44.470544 41.63107989 41.67252884 46.8515625 38.65625 C44.55085872 36.11116613 42.23164973 34.63261256 39.1953125 33.0546875 C38.26412598 32.5687915 37.33293945 32.08289551 36.37353516 31.58227539 C35.37628418 31.07043701 34.3790332 30.55859863 33.3515625 30.03125 C31.81508057 29.23545532 31.81508057 29.23545532 30.24755859 28.42358398 C22.98275611 24.68545563 15.65561966 21.09980913 8.23242188 17.68701172 C3.63034848 15.56016955 -0.74509899 13.22011934 -5.09228516 10.60717773 C-9.52198756 8.55853242 -12.47133427 10.09670934 -16.4453125 12.21875 Z M-73.1484375 46.65625 C-73.1484375 65.79625 -73.1484375 84.93625 -73.1484375 104.65625 C-65.2284375 108.61625 -65.2284375 108.61625 -57.1484375 112.65625 C-51.5185323 115.57416935 -45.89591826 118.5043367 -40.28320312 121.45507812 C-31.99269242 125.78289023 -23.64654984 129.69046424 -15.1484375 133.65625 C-15.1484375 114.84625 -15.1484375 96.03625 -15.1484375 76.65625 C-25.86700551 70.4689433 -25.86700551 70.4689433 -36.7734375 64.78125 C-38.10948016 64.12260911 -39.4454119 63.46374317 -40.78125 62.8046875 C-41.47766602 62.46276367 -42.17408203 62.12083984 -42.89160156 61.76855469 C-47.15387196 59.6678511 -51.39969972 57.534151 -55.6484375 55.40625 C-57.28379024 54.58841383 -58.9192045 53.77070066 -60.5546875 52.953125 C-64.75260417 50.85416667 -68.95052083 48.75520833 -73.1484375 46.65625 Z M48.6796875 51.82421875 C47.80151367 52.29939941 46.92333984 52.77458008 46.01855469 53.26416016 C45.05594727 53.7854248 44.09333984 54.30668945 43.1015625 54.84375 C32.18361721 60.67006859 21.01004627 65.65392596 9.61816406 70.46557617 C8.99067261 70.7313295 8.36318115 70.99708282 7.7166748 71.27088928 C6.00650889 71.99340424 4.29386126 72.71003705 2.58105469 73.42626953 C-0.28113705 74.62635462 -0.28113705 74.62635462 -3.1484375 76.65625 C-3.58743063 79.15902638 -3.58743063 79.15902638 -3.48901367 82.11572266 C-3.48878708 83.25675446 -3.48856049 84.39778625 -3.48832703 85.57339478 C-3.47284317 86.80987762 -3.45735931 88.04636047 -3.44140625 89.3203125 C-3.43716141 90.58265717 -3.43291656 91.84500183 -3.42854309 93.14559937 C-3.41456887 96.50286351 -3.38761052 99.85951932 -3.35443115 103.21661377 C-3.32375102 106.64175148 -3.3100422 110.06695201 -3.29492188 113.4921875 C-3.26178391 120.2137105 -3.21153289 126.93494511 -3.1484375 133.65625 C9.47092181 127.76768405 21.92882924 121.63214128 34.2890625 115.21875 C35.85466193 114.40920388 37.42041688 113.59995843 38.98632812 112.79101562 C41.17458376 111.66053836 43.36262826 110.52967795 45.54942322 109.39637756 C48.64018255 107.79478168 51.7378506 106.21310595 54.8515625 104.65625 C54.8515625 86.50625 54.8515625 68.35625 54.8515625 49.65625 C52.24768258 49.65625 50.96283704 50.56607303 48.6796875 51.82421875 Z M65.8515625 55.65625 C65.8515625 63.90625 65.8515625 72.15625 65.8515625 80.65625 C68.0171875 81.72875 70.1828125 82.80125 72.4140625 83.90625 C79.48052235 87.4240805 86.48363233 91.05728705 93.4765625 94.71875 C95.4439138 95.74497691 97.41135982 96.77102226 99.37890625 97.796875 C102.69047476 99.52385426 105.99510127 101.26265638 109.29296875 103.015625 C110.54134458 103.66728405 111.79001407 104.31838106 113.0390625 104.96875 C114.08449219 105.52175781 115.12992187 106.07476562 116.20703125 106.64453125 C118.72977144 107.83310989 118.72977144 107.83310989 121.078125 107.44921875 C123.25900132 106.47406921 124.66462751 105.05776676 126.28125 103.32421875 C129.10177746 100.32828535 132.10634425 97.51009153 135.05859375 94.64453125 C137.07479246 92.8549217 137.07479246 92.8549217 136.8515625 90.65625 C135.8821875 90.1715625 134.9128125 89.686875 133.9140625 89.1875 C100.8515625 72.65625 100.8515625 72.65625 98.84936523 71.6550293 C97.52348644 70.99217091 96.19747845 70.32957086 94.87133789 69.66723633 C91.42281533 67.94445983 87.97702874 66.21649753 84.53515625 64.48046875 C83.82423828 64.12275391 83.11332031 63.76503906 82.38085938 63.39648438 C81.03365663 62.71848038 79.68723834 62.03891429 78.34179688 61.35742188 C77.72498047 61.04740234 77.10816406 60.73738281 76.47265625 60.41796875 C75.9408374 60.14944092 75.40901855 59.88091309 74.86108398 59.60424805 C71.89564451 58.2052927 68.86530819 56.9478553 65.8515625 55.65625 Z M-92.2734375 59.46875 C-99.26318202 63.21943637 -106.35011687 66.70878305 -113.5234375 70.09375 C-121.71230217 73.96007269 -129.76077709 78.01812887 -137.74682617 82.28637695 C-143.44927934 85.32360019 -149.20354648 88.11798192 -155.1484375 90.65625 C-153.30526322 94.90027694 -150.46212169 97.50822228 -147.171875 100.6796875 C-145.50819658 102.3048251 -143.99195266 103.97319768 -142.4609375 105.71875 C-140.36593906 107.93293424 -140.36593906 107.93293424 -137.93359375 107.484375 C-134.50799097 106.4658227 -131.43550783 104.97799695 -128.2734375 103.34375 C-127.59506836 102.99908691 -126.91669922 102.65442383 -126.21777344 102.29931641 C-118.92069059 98.57634797 -111.66746838 94.76674464 -104.41040039 90.96655273 C-97.69307993 87.45075065 -90.94855684 84.00973351 -84.1484375 80.65625 C-84.1484375 72.40625 -84.1484375 64.15625 -84.1484375 55.65625 C-86.76808105 55.65625 -89.9469097 58.20778139 -92.2734375 59.46875 Z M-89.93359375 96 C-90.93245605 96.50096191 -91.93131836 97.00192383 -92.96044922 97.51806641 C-94.03311035 98.05866699 -95.10577148 98.59926758 -96.2109375 99.15625 C-98.40227448 100.25795029 -100.59368096 101.35951235 -102.78515625 102.4609375 C-104.40623291 103.27643066 -104.40623291 103.27643066 -106.06005859 104.10839844 C-108.77850206 105.47084362 -111.50207593 106.8216866 -114.23046875 108.1640625 C-114.96579834 108.52693359 -115.70112793 108.88980469 -116.45874023 109.26367188 C-117.80440869 109.92687941 -119.15151383 110.5871822 -120.50024414 111.24414062 C-123.087416 112.52383971 -125.09130844 113.59912094 -127.1484375 115.65625 C-118.22164821 120.92045682 -109.18029843 125.72176981 -99.81472778 130.15621948 C-96.41199676 131.7683985 -93.01816826 133.39905988 -89.625 135.03125 C-88.96635452 135.34795151 -88.30770905 135.66465302 -87.62910461 135.99095154 C-81.26356424 139.06306637 -75.02715007 142.3432102 -68.80859375 145.69921875 C-64.50126417 148.02118317 -60.11963758 150.18482691 -55.73339844 152.3527832 C-50.37636268 155.01373916 -45.07356427 157.77263171 -39.7746582 160.54736328 C-34.57504034 163.26803565 -29.36469941 165.96764376 -24.1484375 168.65625 C-23.39175781 169.04748047 -22.63507813 169.43871094 -21.85546875 169.84179688 C-20.06684487 170.75719279 -18.26464447 171.64594428 -16.4609375 172.53125 C-15.54957031 172.98242188 -14.63820313 173.43359375 -13.69921875 173.8984375 C-8.51008709 175.44007845 -4.00139381 173.33973893 0.67578125 171.06640625 C1.77752686 170.53426514 2.87927246 170.00212402 4.0144043 169.45385742 C5.1775415 168.88127197 6.34067871 168.30868652 7.5390625 167.71875 C8.75481334 167.12639928 9.97071652 166.53436111 11.18676758 165.94262695 C19.75245286 161.75864956 28.21231029 157.38869696 36.62109375 152.8984375 C40.45701294 150.85318925 44.32939545 148.89417898 48.2265625 146.96875 C53.39096515 144.4168483 58.51933299 141.80057369 63.62890625 139.140625 C64.23740921 138.82399902 64.84591217 138.50737305 65.47285461 138.18115234 C68.00460882 136.86356496 70.53633043 135.54591753 73.06729126 134.22680664 C81.68169731 129.74167162 90.33871271 125.38888256 99.21801758 121.44555664 C103.12456235 119.67001914 106.05045636 117.93754576 108.8515625 114.65625 C99.94378366 109.74501017 90.90481821 105.16756953 81.7265625 100.78125 C80.23370728 100.06714966 80.23370728 100.06714966 78.71069336 99.33862305 C74.46243789 97.3203128 70.23397295 95.36872505 65.8515625 93.65625 C65.82578125 94.76484375 65.8 95.8734375 65.7734375 97.015625 C65.71714594 98.47920547 65.65979883 99.94274562 65.6015625 101.40625 C65.58738281 102.13585937 65.57320312 102.86546875 65.55859375 103.6171875 C65.40825879 106.92455666 65.29612455 109.12013055 63.14453125 111.71484375 C60.71694359 113.77022887 58.38509354 115.16210917 55.5546875 116.609375 C54.522229 117.14175781 53.48977051 117.67414063 52.42602539 118.22265625 C51.32895264 118.77824219 50.23187988 119.33382812 49.1015625 119.90625 C47.96775146 120.48761719 46.83394043 121.06898438 45.66577148 121.66796875 C42.39884092 123.33971383 39.1266346 125.00052203 35.8515625 126.65625 C35.08666504 127.04361328 34.32176758 127.43097656 33.53369141 127.83007812 C30.44276465 129.39197041 27.34460209 130.93772584 24.23828125 132.46875 C20.57321098 134.28129384 16.9411195 136.15440206 13.30859375 138.03125 C12.14255615 138.62808594 10.97651855 139.22492188 9.77514648 139.83984375 C7.44819344 141.03093633 5.12588615 142.2311586 2.80883789 143.44140625 C1.20190063 144.25931641 1.20190063 144.25931641 -0.4375 145.09375 C-1.39350098 145.58746094 -2.34950195 146.08117187 -3.33447266 146.58984375 C-7.22086971 148.06266887 -10.10726546 148.43464353 -14.0664978 146.92480469 C-16.31916052 145.87081348 -18.50949673 144.73439644 -20.703125 143.5625 C-21.52233429 143.13755249 -22.34154358 142.71260498 -23.18557739 142.27478027 C-25.80432402 140.91331911 -28.41394852 139.53535817 -31.0234375 138.15625 C-32.73898262 137.25926683 -34.45512378 136.36342264 -36.171875 135.46875 C-38.7154109 134.14294979 -41.25843631 132.81626756 -43.79899597 131.48477173 C-50.41198739 128.02184725 -57.07430701 124.66696419 -63.75878906 121.34472656 C-67.72584483 119.36862762 -71.66942237 117.35547142 -75.5859375 115.28125 C-76.22080078 114.95253906 -76.85566406 114.62382812 -77.50976562 114.28515625 C-82.03089696 111.89133109 -82.03089696 111.89133109 -83.1484375 109.65625 C-83.3807021 106.94362884 -83.56779985 104.24851874 -83.7109375 101.53125 C-83.75412109 100.77714844 -83.79730469 100.02304688 -83.84179688 99.24609375 C-83.9479207 97.38303112 -84.04868751 95.51966476 -84.1484375 93.65625 C-86.17508264 93.65625 -88.17742482 95.11679712 -89.93359375 96 Z M-141.75244141 124.125 C-142.37038574 124.7953125 -142.98833008 125.465625 -143.625 126.15625 C-144.2953125 126.878125 -144.965625 127.6 -145.65625 128.34375 C-146.70425781 129.4884375 -146.70425781 129.4884375 -147.7734375 130.65625 C-148.47984375 131.419375 -149.18625 132.1825 -149.9140625 132.96875 C-151.66367811 134.86022634 -153.40817381 136.75617262 -155.1484375 138.65625 C-153.05516202 140.94324243 -151.18666606 142.29343786 -148.3671875 143.56640625 C-147.61727539 143.91131104 -146.86736328 144.25621582 -146.09472656 144.61157227 C-144.88381348 145.15962524 -144.88381348 145.15962524 -143.6484375 145.71875 C-136.8048293 148.88677139 -130.06119744 152.18559215 -123.3984375 155.71875 C-122.60711426 156.13825928 -121.81579102 156.55776855 -121.00048828 156.98999023 C-117.39864234 158.9071739 -113.80553146 160.83995376 -110.21875 162.78515625 C-103.16283975 166.60218204 -96.04438539 170.15515734 -88.76074219 173.51831055 C-82.52475583 176.42202074 -76.46744135 179.61894893 -70.40234375 182.86132812 C-63.88196782 186.32427737 -57.25674315 189.52087603 -50.55322266 192.61303711 C-47.02429798 194.2493994 -43.65933311 195.92546351 -40.3515625 197.9765625 C-37.45392867 199.87030648 -37.45392867 199.87030648 -35.1640625 199.45874023 C-32.76154353 198.50221409 -31.49579928 197.34659405 -29.6953125 195.49609375 C-29.0765625 194.86767578 -28.4578125 194.23925781 -27.8203125 193.59179688 C-27.18609375 192.93244141 -26.551875 192.27308594 -25.8984375 191.59375 C-25.24875 190.93052734 -24.5990625 190.26730469 -23.9296875 189.58398438 C-22.3289699 187.94795683 -20.73567557 186.30534088 -19.1484375 184.65625 C-22.82039493 180.29643278 -27.47360089 178.13861736 -32.4609375 175.59375 C-33.38374512 175.11623291 -34.30655273 174.63871582 -35.25732422 174.14672852 C-42.99045934 170.17609858 -50.82484073 166.42967687 -58.68530273 162.71923828 C-65.68417181 159.40133488 -72.53911175 155.86783159 -79.36767578 152.21459961 C-84.39574092 149.53861199 -89.476164 147.04053753 -94.6484375 144.65625 C-101.58854151 141.45556276 -108.34731952 137.97499448 -115.09545898 134.38916016 C-120.44113921 131.54997443 -125.80579794 128.75572167 -131.2109375 126.03125 C-131.88390869 125.68835938 -132.55687988 125.34546875 -133.25024414 124.9921875 C-137.63697813 122.34772047 -137.63697813 122.34772047 -141.75244141 124.125 Z M112.7578125 126.125 C112.04588745 126.48501099 111.3339624 126.84502197 110.60046387 127.21594238 C108.34807631 128.35739423 106.09923791 129.5055496 103.8515625 130.65625 C103.15772461 131.01138672 102.46388672 131.36652344 101.74902344 131.73242188 C96.94400933 134.19570834 92.14699475 136.67437376 87.3515625 139.15625 C77.1759594 144.42263398 66.97278554 149.62494604 56.71459961 154.72875977 C53.86249011 156.14864759 51.0133664 157.5744924 48.1640625 159 C46.60377319 159.78008423 46.60377319 159.78008423 45.01196289 160.57592773 C42.8313325 161.66632716 40.65083961 162.7570016 38.47045898 163.84790039 C33.65382288 166.25743873 28.83685967 168.66612375 24.01171875 171.05859375 C16.53648334 174.76867836 9.136786 178.58146397 1.8515625 182.65625 C1.8515625 187.44926548 5.2849188 189.64235362 8.5390625 192.90625 C9.16490234 193.56882812 9.79074219 194.23140625 10.43554688 194.9140625 C13.8297605 198.56619024 13.8297605 198.56619024 18.41015625 199.7890625 C21.42448208 198.39041532 24.32617237 196.90732685 27.2265625 195.28125 C33.74004455 191.69801038 40.37806477 188.45085909 47.1015625 185.28125 C55.22510762 181.44075038 63.22448602 177.43219848 71.1550293 173.20874023 C77.85545226 169.64041326 84.62466468 166.23128491 91.42626953 162.86083984 C96.5737844 160.30418207 101.71153346 157.72791396 106.8515625 155.15625 C109.08850941 154.03769591 111.32548798 152.91920512 113.5625 151.80078125 C115.16496582 150.99954834 115.16496582 150.99954834 116.79980469 150.18212891 C123.15039062 147.00683594 129.50097656 143.83154297 135.8515625 140.65625 C135.8515625 137.04657953 135.25083496 136.6356753 132.859375 134.08203125 C131.92544922 133.08139648 131.92544922 133.08139648 130.97265625 132.06054688 C130.31394531 131.37025391 129.65523437 130.67996094 128.9765625 129.96875 C128.32558594 129.26685547 127.67460937 128.56496094 127.00390625 127.84179688 C124.50771716 125.16641703 124.50771716 125.16641703 121.8515625 122.65625 C118.49500277 122.65625 115.69597691 124.62392657 112.7578125 126.125 Z M-135.1484375 162.65625 C-135.42682381 173.22614476 -135.63986153 183.79516431 -135.77018356 194.36798191 C-135.83274426 199.27797211 -135.91753572 204.18545016 -136.05371094 209.09399414 C-136.18438243 213.83397369 -136.25589926 218.57154284 -136.28696442 223.31318474 C-136.30909072 225.11920071 -136.35230668 226.92508851 -136.41719818 228.73007393 C-136.60797738 234.25800191 -136.63274955 239.29978774 -135.1484375 244.65625 C-131.58130723 248.28622992 -127.87913465 249.93283208 -123.1484375 251.65625 C-121.44136319 252.48000918 -119.74043398 253.31685428 -118.05078125 254.17578125 C-116.39784159 254.94443761 -114.74284667 255.70868808 -113.0859375 256.46875 C-106.17506935 259.69613534 -99.37143993 263.05390898 -92.6484375 266.65625 C-86.06418955 270.180107 -79.40899108 273.48392826 -72.6484375 276.65625 C-64.98154183 280.25581766 -57.45560238 284.05398165 -49.98071289 288.03588867 C-43.60566077 291.43067615 -37.17177085 294.69019896 -30.69921875 297.89453125 C-26.77130595 299.84336367 -22.86652731 301.83540372 -18.96875 303.84375 C-17.17628496 304.79211416 -17.17628496 304.79211416 -15.1484375 304.65625 C-15.1484375 269.01625 -15.1484375 233.37625 -15.1484375 196.65625 C-18.85085193 200.3581984 -18.85085193 200.3581984 -22.53515625 204.078125 C-23.29441406 204.84640625 -24.05367188 205.6146875 -24.8359375 206.40625 C-25.60292969 207.18484375 -26.36992187 207.9634375 -27.16015625 208.765625 C-29.61286345 211.09786525 -30.55687394 211.61252417 -33.94604492 211.86303711 C-37.38293365 211.64110795 -39.34329997 210.91340134 -42.38671875 209.34765625 C-43.36318359 208.85233398 -44.33964844 208.35701172 -45.34570312 207.84667969 C-46.88774414 207.04085449 -46.88774414 207.04085449 -48.4609375 206.21875 C-49.52892578 205.67250977 -50.59691406 205.12626953 -51.69726562 204.56347656 C-58.56850442 201.03706602 -65.4035373 197.44003791 -72.21630859 193.80200195 C-78.64594265 190.37064685 -85.1567184 187.11687633 -91.68652344 183.88134766 C-94.59721391 182.43292989 -97.50180898 180.97262739 -100.40625 179.51171875 C-101.52717041 178.9487207 -102.64809082 178.38572266 -103.80297852 177.80566406 C-106.00210549 176.70098046 -108.20056095 175.59495856 -110.39819336 174.48730469 C-116.2464595 171.55436194 -122.1271214 168.70932349 -128.06030273 165.95336914 C-128.7460009 165.63414742 -129.43169907 165.31492569 -130.13817596 164.98603058 C-131.80796063 164.20878682 -133.4781559 163.43242528 -135.1484375 162.65625 Z M108.7890625 166.15625 C107.31903672 166.89588561 105.8489839 167.63546749 104.37890625 168.375 C103.62464355 168.75527344 102.87038086 169.13554687 102.09326172 169.52734375 C98.68318509 171.24463784 95.26731489 172.95028157 91.8515625 174.65625 C90.51819656 175.32285144 89.18486334 175.98951835 87.8515625 176.65625 C79.8515625 180.65625 79.8515625 180.65625 77.85137939 181.65628052 C76.51859129 182.32271525 75.18586826 182.98928011 73.85321045 183.65597534 C70.51205753 185.32726601 67.16979042 186.99625191 63.82519531 188.66064453 C54.70706263 193.20173403 45.64110937 197.83587129 36.6015625 202.53125 C34.68182048 203.52717364 32.76190694 204.5227653 30.84185791 205.51809692 C29.13221857 206.40453514 27.42302756 207.29183785 25.71386719 208.17919922 C24.76930664 208.66662598 23.82474609 209.15405273 22.8515625 209.65625 C22.12098633 210.04055176 21.39041016 210.42485352 20.63769531 210.82080078 C17.70963327 212.19037819 16.06412887 212.2122711 12.8515625 211.65625 C7.49141721 208.06462515 3.3002823 203.08330087 -0.80078125 198.16015625 C-1.24550781 197.66386719 -1.69023437 197.16757812 -2.1484375 196.65625 C-2.4784375 196.65625 -2.8084375 196.65625 -3.1484375 196.65625 C-3.1484375 232.62625 -3.1484375 268.59625 -3.1484375 305.65625 C2.1315625 303.01625 7.4115625 300.37625 12.8515625 297.65625 C16.3475 295.92375 16.3475 295.92375 19.9140625 294.15625 C25.28625759 291.48565394 30.62145734 288.74602571 35.9453125 285.98046875 C38.60142279 284.60129317 41.2576249 283.22229505 43.9140625 281.84375 C44.58756744 281.49423279 45.26107239 281.14471558 45.95498657 280.78460693 C55.5183081 275.82796467 65.1470232 271.05715921 74.89257812 266.46655273 C82.54886948 262.84520387 90.03317038 258.94427617 97.50390625 254.95703125 C102.73418426 252.17026466 108.0395756 249.54434981 113.359375 246.93359375 C115.73128045 245.87877985 115.73128045 245.87877985 116.8515625 244.65625 C116.94662302 242.10035112 116.97713011 239.57157028 116.96508789 237.01538086 C116.96523392 236.21544205 116.96537994 235.41550323 116.9655304 234.59132385 C116.96483105 231.93455335 116.95703768 229.27785207 116.94921875 226.62109375 C116.94735465 224.78406309 116.94593071 222.94703194 116.94493103 221.11000061 C116.94110525 216.26515338 116.93127446 211.42033592 116.92022705 206.57550049 C116.91001422 201.63562422 116.90543369 196.69574315 116.90039062 191.75585938 C116.88965224 182.05597647 116.8725751 172.35611571 116.8515625 162.65625 C114.22727408 162.65625 111.14878896 164.96211866 108.7890625 166.15625 Z " fill="#181818" transform="translate(259.1484375,91.34375)"/>
<path d="M0 0 C2.04982275 3.07473413 2.25495413 3.74728297 2.29052734 7.22436523 C2.30328705 8.07212021 2.31604675 8.91987518 2.32919312 9.7933197 C2.33141876 10.70586014 2.33364441 11.61840057 2.3359375 12.55859375 C2.3425943 13.49929214 2.3492511 14.43999054 2.35610962 15.40919495 C2.36623522 17.39883468 2.37092667 19.38850836 2.37060547 21.37817383 C2.37497861 24.42260651 2.4112989 27.46558951 2.44921875 30.50976562 C2.45508691 32.44270337 2.45905631 34.37564801 2.4609375 36.30859375 C2.47530853 37.21910995 2.48967957 38.12962616 2.50448608 39.06773376 C2.4589473 45.36509142 2.4589473 45.36509142 0.22021484 48.4621582 C-1.81728483 49.87344152 -3.78201144 51.16142955 -5.984375 52.296875 C-6.74758057 52.69463135 -7.51078613 53.0923877 -8.29711914 53.50219727 C-9.51129517 54.11985962 -9.51129517 54.11985962 -10.75 54.75 C-11.5845874 55.18175537 -12.4191748 55.61351074 -13.27905273 56.05834961 C-21.14744043 60.11519576 -29.06371036 64.07793686 -37 68 C-37.99 68.495 -37.99 68.495 -39 69 C-44.38688269 69.4584581 -44.38688269 69.4584581 -46.66615295 67.75413513 C-48.32619416 65.5710238 -48.38476773 64.40697687 -48.40405273 61.68383789 C-48.41673691 60.81606216 -48.42942108 59.94828644 -48.44248962 59.05421448 C-48.43955399 58.11980026 -48.43661835 57.18538605 -48.43359375 56.22265625 C-48.4388356 55.25976181 -48.44407745 54.29686737 -48.44947815 53.30479431 C-48.45590251 51.26806604 -48.45455601 49.23130069 -48.44604492 47.19458008 C-48.43754124 44.07761529 -48.46628065 40.96248648 -48.49804688 37.84570312 C-48.49965911 35.86718805 -48.49908093 33.88866973 -48.49609375 31.91015625 C-48.50732773 30.97776627 -48.51856171 30.04537628 -48.53013611 29.08473206 C-48.4609983 22.66597505 -48.4609983 22.66597505 -46.30664062 19.55371094 C-43.79932479 17.86482885 -41.34228685 16.50214213 -38.59765625 15.23046875 C-37.02334839 14.49026489 -37.02334839 14.49026489 -35.41723633 13.73510742 C-34.31017334 13.22439697 -33.20311035 12.71368652 -32.0625 12.1875 C-24.01350953 8.42509034 -16.15198009 4.6240445 -8.55078125 0.01171875 C-5.26071174 -1.29322459 -3.35676891 -1.02815719 0 0 Z M-19.5625 18.6875 C-20.24119141 19.02716797 -20.91988281 19.36683594 -21.61914062 19.71679688 C-26.83368851 22.34618719 -31.88600084 25.15888936 -37 28 C-37 36.58 -37 45.16 -37 54 C-32.85109422 52.61703141 -29.58934028 51.39927941 -25.8203125 49.3984375 C-24.98258301 48.95677246 -24.14485352 48.51510742 -23.28173828 48.06005859 C-22.24001465 47.50398926 -21.19829102 46.94791992 -20.125 46.375 C-16.78375 44.60125 -13.4425 42.8275 -10 41 C-10 32.42 -10 23.84 -10 15 C-13.49756217 15 -16.49483734 17.12705425 -19.5625 18.6875 Z " fill="#161616" transform="translate(317,305)"/>
<path d="M0 0 C8.08250258 0.01626258 13.88557573 3.05852409 20.875 6.875 C22.421875 7.68904297 22.421875 7.68904297 24 8.51953125 C32.75087475 13.19199571 32.75087475 13.19199571 35 16 C35.375 19.0625 35.375 19.0625 35 22 C31.52869876 24.31420083 29.70073081 24.21903325 25.64794922 23.65917969 C20.39846083 22.35237362 15.78847137 19.69405127 11.0625 17.125 C10.02287109 16.58230469 8.98324219 16.03960937 7.91210938 15.48046875 C0.27857143 11.41785714 0.27857143 11.41785714 -2 8 C-2.25 4.9375 -2.25 4.9375 -2 2 C-1.34 1.34 -0.68 0.68 0 0 Z " fill="#232323" transform="translate(135,321)"/>
<path d="M0 0 C0.33 1.32 0.66 2.64 1 4 C0.49210937 4.43570313 -0.01578125 4.87140625 -0.5390625 5.3203125 C-4.86759882 9.06522595 -9.00306944 12.90314618 -13 17 C-13.66 16.67 -14.32 16.34 -15 16 C-13.25113898 14.08228343 -11.50095499 12.16580317 -9.75 10.25 C-9.25886719 9.71117187 -8.76773438 9.17234375 -8.26171875 8.6171875 C-5.57126836 5.6756284 -2.8468489 2.7926232 0 0 Z " fill="#606060" transform="translate(105,212)"/>
<path d="M0 0 C0.66 0.33 1.32 0.66 2 1 C-0.31 3.31 -2.62 5.62 -5 8 C-5.33 7.34 -5.66 6.68 -6 6 C-4 4 -2 2 0 0 Z " fill="#545454" transform="translate(182,120)"/>
</svg>
