<?xml version="1.0" standalone="no"?>
<!DOCTYPE svg PUBLIC "-//W3C//DTD SVG 20010904//EN"
 "http://www.w3.org/TR/2001/REC-SVG-20010904/DTD/svg10.dtd">
<svg version="1.0" xmlns="http://www.w3.org/2000/svg"
 width="500.000000pt" height="500.000000pt" viewBox="0 0 500.000000 500.000000"
 preserveAspectRatio="xMidYMid meet">

<g transform="translate(0.000000,500.000000) scale(0.100000,-0.100000)"
fill="#000000" stroke="none">
<path d="M2434 4144 c-32 -20 -97 -56 -144 -81 -47 -25 -96 -54 -110 -63 -14
-9 -104 -62 -200 -117 -96 -55 -226 -130 -288 -167 -62 -36 -115 -66 -118 -66
-3 0 -35 18 -72 40 -158 96 -343 111 -507 43 -66 -28 -178 -108 -216 -154 -85
-103 -132 -239 -132 -374 1 -227 132 -421 351 -519 l42 -19 0 -497 c0 -382 3
-500 12 -512 7 -9 51 -37 98 -64 47 -26 123 -70 170 -98 101 -59 419 -243 575
-331 61 -34 178 -102 262 -151 282 -165 307 -179 326 -187 13 -5 36 2 71 21
28 16 94 53 146 82 52 28 106 60 120 69 14 10 84 51 155 91 72 41 189 108 260
150 72 42 157 91 190 110 33 18 123 70 200 115 77 45 178 103 225 129 47 27
91 55 98 64 19 25 18 1665 -2 1684 -14 15 -91 61 -231 140 -44 25 -179 103
-300 173 -121 70 -299 172 -395 227 -96 55 -186 108 -200 118 -14 9 -63 38
-110 63 -47 25 -112 61 -144 81 -33 20 -63 36 -66 36 -3 0 -33 -16 -66 -36z
m126 -114 c42 -27 320 -188 615 -357 72 -41 182 -106 245 -143 64 -38 139 -81
167 -97 122 -66 203 -115 203 -122 0 -10 -340 -204 -355 -204 -10 1 -349 193
-430 245 -22 14 -69 41 -105 60 -79 43 -163 92 -292 169 -54 33 -100 59 -104
59 -3 0 -87 48 -186 107 l-179 106 103 60 c57 33 135 79 173 103 39 24 77 43
85 43 8 0 35 -13 60 -29z m-461 -277 c36 -20 89 -52 118 -70 29 -18 55 -33 59
-33 3 0 70 -38 148 -84 77 -46 179 -105 226 -131 47 -26 145 -83 217 -126 73
-44 135 -79 138 -79 2 0 77 -43 166 -96 l161 -97 -43 -22 c-24 -12 -97 -54
-163 -94 -65 -39 -124 -71 -130 -71 -6 0 -75 38 -154 85 -79 47 -145 85 -148
85 -4 0 -49 26 -103 58 -53 32 -139 83 -191 112 -52 29 -142 81 -200 115 -58
34 -175 102 -260 150 -235 135 -246 141 -223 155 107 63 309 179 312 180 2 0
34 -17 70 -37z m-745 -290 c78 -92 126 -156 126 -170 0 -32 -29 -43 -114 -43
l-76 0 0 -208 c0 -148 -3 -211 -12 -220 -19 -19 -134 -16 -142 4 -3 9 -6 108
-6 220 l0 204 -84 0 c-75 0 -87 2 -100 21 -8 12 -12 29 -8 38 3 9 52 68 108
133 56 64 110 128 119 142 34 51 54 38 189 -121z m633 -155 c79 -46 170 -99
205 -118 34 -19 108 -63 166 -97 57 -35 107 -63 111 -63 3 0 60 -33 127 -73
66 -39 157 -92 202 -117 45 -25 82 -48 82 -51 0 -7 -123 -83 -273 -168 l-107
-60 -158 91 c-86 50 -193 111 -237 136 -161 91 -365 213 -365 218 0 3 7 31 16
61 12 41 15 83 12 167 -4 100 -11 133 -43 210 -10 22 11 12 262 -136z m1863
-840 l0 -753 -87 -50 c-48 -27 -139 -80 -202 -116 -64 -37 -215 -124 -336
-194 -121 -70 -265 -153 -320 -185 -55 -31 -155 -89 -222 -128 -67 -40 -124
-72 -127 -72 -4 0 -5 338 -4 751 l3 751 198 113 197 114 0 -132 c0 -144 10
-177 54 -177 12 0 80 34 152 76 71 42 170 98 219 126 50 27 96 57 103 66 8 11
12 66 12 188 0 164 1 173 20 179 11 4 91 49 178 100 86 52 158 94 160 95 1 0
2 -339 2 -752z m-460 363 l0 -109 -102 -59 c-126 -73 -216 -123 -223 -123 -3
0 -5 51 -5 113 l0 113 68 36 c37 20 105 60 152 87 47 28 91 51 98 51 9 0 12
-28 12 -109z m-1515 -31 c174 -99 529 -305 553 -320 l22 -15 0 -747 c0 -412
-3 -748 -6 -748 -3 0 -60 32 -127 72 -67 39 -167 97 -222 128 -55 31 -199 114
-320 185 -121 70 -265 153 -320 185 -55 31 -149 85 -208 119 l-107 63 0 451
c0 249 4 458 9 466 5 8 16 11 27 7 30 -12 177 15 250 45 78 33 190 119 232
179 l27 38 45 -25 c25 -14 90 -51 145 -83z"/>
<path d="M3080 2054 c-41 -25 -97 -57 -125 -71 -73 -38 -229 -133 -237 -147
-4 -6 -8 -124 -8 -262 0 -269 3 -287 51 -286 13 0 47 13 74 30 28 16 79 46
115 66 169 94 264 155 271 172 14 34 10 486 -4 514 -20 40 -53 36 -137 -16z
m28 -457 c-61 -37 -289 -167 -293 -167 -3 0 -5 78 -5 174 l0 174 93 53 c50 29
119 70 152 90 l60 36 3 -176 c2 -135 0 -178 -10 -184z"/>
<path d="M1265 1880 c-36 -40 -16 -60 156 -159 157 -90 161 -92 185 -76 20 13
24 23 22 48 -3 29 -14 38 -153 119 -82 47 -159 87 -171 87 -11 1 -29 -8 -39
-19z"/>
</g>
</svg>
