<?xml version="1.0" encoding="UTF-8"?>
<!DOCTYPE svg PUBLIC "-//W3C//DTD SVG 1.1//EN" "http://www.w3.org/Graphics/SVG/1.1/DTD/svg11.dtd">
<svg xmlns="http://www.w3.org/2000/svg" version="1.1" width="500px" height="500px" style="shape-rendering:geometricPrecision; text-rendering:geometricPrecision; image-rendering:optimizeQuality; fill-rule:evenodd; clip-rule:evenodd" xmlns:xlink="http://www.w3.org/1999/xlink">
<g><path style="opacity:1" fill="#070707" d="M 268.5,133.5 C 268.5,134.5 268.5,135.5 268.5,136.5C 275.5,136.5 282.5,136.5 289.5,136.5C 291.017,136.511 292.184,137.177 293,138.5C 293.498,141.482 293.665,144.482 293.5,147.5C 309.837,147.333 326.17,147.5 342.5,148C 343.823,148.816 344.489,149.983 344.5,151.5C 344.5,208.167 344.5,264.833 344.5,321.5C 346.179,321.715 347.179,321.048 347.5,319.5C 354.167,314.833 359.833,309.167 364.5,302.5C 373.992,293.508 383.325,284.342 392.5,275C 398.214,272.672 403.548,273.172 408.5,276.5C 408.427,278.027 409.094,279.027 410.5,279.5C 410.427,281.027 411.094,282.027 412.5,282.5C 413.446,287.071 412.613,291.404 410,295.5C 388.361,316.138 367.028,337.138 346,358.5C 345.667,366.833 345.333,375.167 345,383.5C 344.5,384 344,384.5 343.5,385C 277.167,385.667 210.833,385.667 144.5,385C 143.335,306.57 143.169,228.07 144,149.5C 145.067,148.809 146.234,148.309 147.5,148C 163.497,147.5 179.497,147.333 195.5,147.5C 195.211,143.894 195.544,140.394 196.5,137C 204.054,135.568 211.721,135.068 219.5,135.5C 219.543,130.756 221.21,126.756 224.5,123.5C 225.906,123.027 226.573,122.027 226.5,120.5C 228.027,120.573 229.027,119.906 229.5,118.5C 231.649,116.254 234.316,114.754 237.5,114C 254.031,110.921 264.364,117.421 268.5,133.5 Z M 262.5,145.5 C 269.313,146.491 276.313,146.825 283.5,146.5C 283.5,151.167 283.5,155.833 283.5,160.5C 257.5,160.5 231.5,160.5 205.5,160.5C 205.5,155.833 205.5,151.167 205.5,146.5C 212.687,146.825 219.687,146.491 226.5,145.5C 227.75,145.423 228.583,144.756 229,143.5C 228.358,132.488 233.358,125.822 244,123.5C 255.494,125.125 260.827,131.792 260,143.5C 260.417,144.756 261.25,145.423 262.5,145.5 Z M 313.5,210.5 C 267.761,210.828 222.095,210.495 176.5,209.5C 174.983,207.064 175.316,204.898 177.5,203C 223.167,202.333 268.833,202.333 314.5,203C 317.14,205.89 316.806,208.39 313.5,210.5 Z M 178.5,252.5 C 177.833,251.167 176.833,250.167 175.5,249.5C 175.472,247.418 176.139,245.584 177.5,244C 222.833,243.333 268.167,243.333 313.5,244C 317.336,247.044 317.003,249.711 312.5,252C 267.835,252.5 223.168,252.667 178.5,252.5 Z M 389.5,301.5 C 387.596,301.738 386.262,302.738 385.5,304.5C 374.79,315.508 364.123,326.508 353.5,337.5C 350.573,338.757 348.239,340.757 346.5,343.5C 345.167,344.167 344.167,345.167 343.5,346.5C 340.5,348.833 337.833,351.5 335.5,354.5C 334.115,355.614 332.615,356.614 331,357.5C 325.028,351.142 318.861,345.142 312.5,339.5C 311.92,337.251 310.587,335.585 308.5,334.5C 306.833,332.167 304.833,330.167 302.5,328.5C 302.573,326.973 301.906,325.973 300.5,325.5C 298.396,323.15 296.396,320.816 294.5,318.5C 295.096,315.754 296.763,314.92 299.5,316C 306.944,324.115 314.444,332.281 322,340.5C 324.439,343.612 327.439,345.945 331,347.5C 333.752,346.414 336.252,344.914 338.5,343C 358.167,323.333 377.833,303.667 397.5,284C 401.391,281.888 403.224,283.054 403,287.5C 398.297,292.035 393.797,296.702 389.5,301.5 Z M 177.5,285.5 C 223.168,285.333 268.835,285.5 314.5,286C 317.288,288.763 316.955,291.097 313.5,293C 268.167,293.667 222.833,293.667 177.5,293C 174.914,290.506 174.914,288.006 177.5,285.5 Z M 294.5,334.5 C 255.264,335.829 215.931,335.829 176.5,334.5C 175.01,331.788 175.344,329.288 177.5,327C 214.167,326.333 250.833,326.333 287.5,327C 290.067,329.396 292.4,331.896 294.5,334.5 Z"/></g>
<g><path style="opacity:0.718" fill="#888888" d="M 229.5,118.5 C 229.027,119.906 228.027,120.573 226.5,120.5C 226.973,119.094 227.973,118.427 229.5,118.5 Z"/></g>
<g><path style="opacity:0.757" fill="#919191" d="M 226.5,120.5 C 226.573,122.027 225.906,123.027 224.5,123.5C 224.427,121.973 225.094,120.973 226.5,120.5 Z"/></g>
<g><path style="opacity:0.119" fill="#dbdbdb" d="M 268.5,133.5 C 275.408,135.091 282.408,136.091 289.5,136.5C 282.5,136.5 275.5,136.5 268.5,136.5C 268.5,135.5 268.5,134.5 268.5,133.5 Z"/></g>
<g><path style="opacity:0.243" fill="#c1c1c1" d="M 226.5,145.5 C 219.687,146.491 212.687,146.825 205.5,146.5C 205.5,151.167 205.5,155.833 205.5,160.5C 204.513,155.695 204.179,150.695 204.5,145.5C 211.833,145.5 219.167,145.5 226.5,145.5 Z"/></g>
<g><path style="opacity:0.243" fill="#c0c0c0" d="M 262.5,145.5 C 269.833,145.5 277.167,145.5 284.5,145.5C 284.821,150.695 284.487,155.695 283.5,160.5C 283.5,155.833 283.5,151.167 283.5,146.5C 276.313,146.825 269.313,146.491 262.5,145.5 Z"/></g>
<g><path style="opacity:0.353" fill="#a4a4a4" d="M 344.5,151.5 C 345.333,207.665 345.833,263.999 346,320.5C 346.383,319.944 346.883,319.611 347.5,319.5C 347.179,321.048 346.179,321.715 344.5,321.5C 344.5,264.833 344.5,208.167 344.5,151.5 Z"/></g>
<g><path style="opacity:0.499" fill="#808080" d="M 176.5,209.5 C 222.095,210.495 267.761,210.828 313.5,210.5C 290.836,211.167 268.002,211.5 245,211.5C 221.823,211.5 198.99,210.833 176.5,209.5 Z"/></g>
<g><path style="opacity:0.702" fill="#9f9f9f" d="M 175.5,249.5 C 176.833,250.167 177.833,251.167 178.5,252.5C 176.5,252.5 175.5,251.5 175.5,249.5 Z"/></g>
<g><path style="opacity:0.745" fill="#8c8c8c" d="M 408.5,276.5 C 409.906,276.973 410.573,277.973 410.5,279.5C 409.094,279.027 408.427,278.027 408.5,276.5 Z"/></g>
<g><path style="opacity:0.388" fill="#989898" d="M 410.5,279.5 C 411.906,279.973 412.573,280.973 412.5,282.5C 411.094,282.027 410.427,281.027 410.5,279.5 Z"/></g>
<g><path style="opacity:0.706" fill="#8a8a8a" d="M 389.5,301.5 C 388.738,303.262 387.404,304.262 385.5,304.5C 386.262,302.738 387.596,301.738 389.5,301.5 Z"/></g>
<g><path style="opacity:0.722" fill="#878787" d="M 364.5,302.5 C 359.833,309.167 354.167,314.833 347.5,319.5C 352.833,313.5 358.5,307.833 364.5,302.5 Z"/></g>
<g><path style="opacity:0.435" fill="#a6a6a6" d="M 300.5,325.5 C 301.906,325.973 302.573,326.973 302.5,328.5C 301.094,328.027 300.427,327.027 300.5,325.5 Z"/></g>
<g><path style="opacity:0.902" fill="#212121" d="M 176.5,334.5 C 215.931,335.829 255.264,335.829 294.5,334.5C 296.379,334.393 296.712,334.893 295.5,336C 275.667,336.167 255.833,336.333 236,336.5C 215.822,336.5 195.989,335.833 176.5,334.5 Z"/></g>
<g><path style="opacity:0.741" fill="#969696" d="M 308.5,334.5 C 310.587,335.585 311.92,337.251 312.5,339.5C 310.413,338.415 309.08,336.749 308.5,334.5 Z"/></g>
<g><path style="opacity:0.643" fill="#8f8f8f" d="M 353.5,337.5 C 351.761,340.243 349.427,342.243 346.5,343.5C 348.239,340.757 350.573,338.757 353.5,337.5 Z"/></g>
<g><path style="opacity:0.753" fill="#7e7e7e" d="M 343.5,346.5 C 341.833,350.167 339.167,352.833 335.5,354.5C 337.833,351.5 340.5,348.833 343.5,346.5 Z"/></g>
</svg>
