<?xml version="1.0" encoding="UTF-8"?>
<svg version="1.1" xmlns="http://www.w3.org/2000/svg" width="500" height="500">
<path d="M0 0 C1.36012076 0.74470491 2.69545682 1.53673932 4 2.375 C4.68320312 2.7875 5.36640625 3.2 6.0703125 3.625 C13.22291609 8.4115332 18.68083165 15.14191552 20.375 23.6875 C20.83706237 26.76936884 20.99239678 29.52652137 20.8359375 32.64453125 C20.74328632 36.26213864 20.8336281 38.93727231 22 42.375 C25.1992171 45.17095444 28.51863158 47.08774456 32.21484375 49.140625 C41.90210565 54.58131557 48.76932876 63.76577188 54 73.375 C54.54527344 74.37144531 55.09054687 75.36789063 55.65234375 76.39453125 C62.01182056 89.00464297 63.44315585 102.22107374 63.41069031 116.17095947 C63.40608419 118.32763462 63.42055789 120.48354226 63.43908691 122.64013672 C63.48140266 127.98897678 63.49302362 133.3377898 63.50531006 138.68676758 C63.51698077 143.23521634 63.54092378 147.78330577 63.58000183 152.331604 C63.59326117 154.42290005 63.58946185 156.51366142 63.58459473 158.60498047 C63.76930666 182.51009013 71.2207456 204.42536194 86 223.375 C86.42410156 223.9421875 86.84820312 224.509375 87.28515625 225.09375 C89.91043398 227.05523313 92.46026532 226.96391001 95.6875 227.25 C103.38125331 228.21072668 107.88256958 230.25756958 113.3125 235.6875 C117.68467817 242.65059857 118.74803196 248.2630392 117 256.375 C115.08576476 261.9050129 111.78446226 265.19907198 107 268.375 C98.32885436 272.46196647 88.73897257 271.75958761 79.3984375 271.66796875 C77.70879495 271.66236336 76.01914749 271.65809772 74.32949829 271.65510559 C69.91373894 271.64373096 65.49828248 271.61432869 61.0826416 271.58099365 C56.56425065 271.55013227 52.04581005 271.53656614 47.52734375 271.52148438 C38.68476382 271.48945081 29.84240724 271.43834542 21 271.375 C20.90368286 272.51171143 20.90368286 272.51171143 20.80541992 273.67138672 C20.71881104 274.66412598 20.63220215 275.65686523 20.54296875 276.6796875 C20.45813232 277.66437012 20.3732959 278.64905273 20.28588867 279.66357422 C19.48450942 287.26401653 15.65337014 293.89083858 10.14453125 299.14453125 C8.16288294 300.70690866 6.15337645 302.06060139 4 303.375 C3.35675781 303.78878906 2.71351563 304.20257813 2.05078125 304.62890625 C-4.90717119 308.43258692 -13.28949183 308.66963213 -21 307.375 C-29.67222629 304.39452311 -36.84298056 299.76484737 -41.75 291.9375 C-42.34296875 291.01066406 -42.9359375 290.08382813 -43.546875 289.12890625 C-45.8641709 284.73725677 -46.03736916 281.09540597 -46.01855469 276.20141602 C-46.01587585 275.2983522 -46.01319702 274.39528839 -46.01043701 273.46485901 C-46.0069928 272.77520554 -46.00354858 272.08555206 -46 271.375 C-46.94245575 271.38166183 -47.8849115 271.38832367 -48.85592651 271.39518738 C-57.77075735 271.45620369 -66.68554539 271.50107069 -75.60053825 271.53043652 C-80.18299998 271.54604171 -84.7652921 271.5671851 -89.34765625 271.60131836 C-93.77619196 271.63409648 -98.20456531 271.65189165 -102.63321304 271.65963173 C-104.31637245 271.6651423 -105.99952375 271.6759025 -107.68261337 271.69219017 C-129.71605928 271.89678584 -129.71605928 271.89678584 -138.52734375 264.16796875 C-143.26097194 258.40474504 -143.59191733 252.9928586 -143.40234375 245.7890625 C-142.69653328 239.79995229 -140.44584468 236.68611595 -136.15625 232.6328125 C-131.51490014 229.01325235 -127.71058656 228.04572967 -121.875 227.5 C-115.88522686 226.83413185 -115.88522686 226.83413185 -111.25 223.3125 C-110.10748044 221.70718771 -109.0338563 220.05235495 -108 218.375 C-107.6189209 217.7979834 -107.2378418 217.2209668 -106.84521484 216.62646484 C-95.11190858 198.83493207 -89.70443378 180.35026913 -89.72560501 159.04475594 C-89.72658963 156.84968252 -89.71340114 154.65507377 -89.69662476 152.46006775 C-89.6509571 146.22658919 -89.62582593 139.99316215 -89.61914062 133.75952148 C-89.57227462 103.69966636 -88.45471325 78.76071438 -66.6328125 55.89453125 C-63.89947535 53.2788006 -61.07693483 50.97257351 -58.0625 48.6875 C-57.06347656 47.92050781 -56.06445312 47.15351563 -55.03515625 46.36328125 C-52.05072671 44.40823024 -49.42148093 43.32852747 -46 42.375 C-46.03480469 41.09625 -46.06960937 39.8175 -46.10546875 38.5 C-46.13362787 36.79167991 -46.16092574 35.08334548 -46.1875 33.375 C-46.21263672 32.53582031 -46.23777344 31.69664062 -46.26367188 30.83203125 C-46.36844049 21.82193074 -43.76879194 15.45980474 -38.09765625 8.48828125 C-28.50099427 -1.17986425 -12.87102421 -5.40042974 0 0 Z M-30 19.375 C-33.66171533 25.43577019 -34.04070622 30.41423642 -34 37.375 C-32.97261719 37.230625 -31.94523437 37.08625 -30.88671875 36.9375 C-17.44955574 35.10834035 -5.40160222 35.34938671 8 37.375 C8.39127741 30.07115508 7.23852477 24.7713824 3.1875 18.625 C-1.75935565 13.53680562 -5.91123653 11.57754187 -12.8125 11.125 C-19.85804309 11.24264358 -25.05224559 14.53969455 -30 19.375 Z M-55 63.375 C-55.64066406 63.89964844 -56.28132813 64.42429687 -56.94140625 64.96484375 C-61.50691015 69.04788735 -64.68565094 73.69030093 -67.75 78.9375 C-68.29708618 79.84604736 -68.29708618 79.84604736 -68.85522461 80.77294922 C-75.00232912 91.82901404 -76.58940736 103.96035939 -76.51642036 116.405056 C-76.50347212 118.62926065 -76.51536216 120.85228018 -76.53245544 123.07644653 C-76.55885913 127.00550697 -76.56476315 130.93426381 -76.56335449 134.86340332 C-76.56110714 141.14025037 -76.57597571 147.41672042 -76.61894035 153.69342422 C-76.62854904 155.84953356 -76.62018545 158.00500891 -76.61024475 160.16110229 C-76.63213315 174.02842507 -78.71174552 187.53775212 -83.625 200.5625 C-83.96474854 201.48450195 -84.30449707 202.40650391 -84.65454102 203.35644531 C-87.77755927 211.47189914 -91.93732154 218.32934682 -97 225.375 C-97.495 226.365 -97.495 226.365 -98 227.375 C-41.9 227.375 14.2 227.375 72 227.375 C69.69 223.745 67.38 220.115 65 216.375 C60.89371442 208.80747753 57.67502922 201.04714442 55.1875 192.8125 C54.99269043 192.17747559 54.79788086 191.54245117 54.59716797 190.88818359 C51.43463905 179.73434814 50.71396698 168.2977955 50.72560501 156.75993538 C50.72659394 154.5911985 50.71335853 152.42292637 50.69662476 150.2542572 C50.6510447 144.09963418 50.62577695 137.94507007 50.61914062 131.7902832 C50.6140663 127.99376373 50.58953723 124.19774438 50.55381393 120.4013958 C50.54416592 118.97641469 50.54159971 117.55136353 50.54698563 116.12635994 C50.59482522 102.85592589 48.58524464 90.29875074 41.5625 78.8125 C41.00852539 77.84473633 41.00852539 77.84473633 40.44335938 76.85742188 C31.77236669 62.05512068 17.9355417 53.38260676 1.609375 48.6875 C-18.55620145 44.00388224 -39.50519103 49.84670946 -55 63.375 Z M-34 271.375 C-33.04120496 281.75744659 -33.04120496 281.75744659 -26.83984375 289.10546875 C-20.94735928 293.13918576 -16.28293053 295.11404277 -9 294.375 C-3.07539449 292.43418095 2.02002664 289.69130212 5.26171875 284.26171875 C7.57606469 279.43001407 8 277.03086661 8 271.375 C-5.86 271.375 -19.72 271.375 -34 271.375 Z " fill="#0E0E0E" transform="translate(263,97.625)"/>
<path d="M0 0 C1.9375 1.0625 1.9375 1.0625 3 3 C3.5 6.4375 3.5 6.4375 3 10 C-0.09185098 12.83555998 -3.46083702 14.93844234 -7.0625 17.0625 C-13.79726781 21.30122853 -19.35574961 26.43513428 -25 32 C-25.72058594 32.70769531 -26.44117188 33.41539062 -27.18359375 34.14453125 C-43.74665334 51.57406881 -53.52847223 76.05784245 -54.19921875 99.9453125 C-54.23055908 101.01990723 -54.26189941 102.09450195 -54.29418945 103.20166016 C-54.34744744 105.37542251 -54.3815977 107.54974936 -54.39526367 109.72412109 C-54.41693604 110.73297363 -54.4386084 111.74182617 -54.4609375 112.78125 C-54.46915527 113.68939453 -54.47737305 114.59753906 -54.48583984 115.53320312 C-55.16375478 118.78564972 -56.38280661 120.00694691 -59 122 C-62.625 121.9375 -62.625 121.9375 -66 121 C-72.01921398 111.97117903 -69.04270885 95.26664179 -67.1796875 85.046875 C-66.27984519 80.65412108 -65.1909005 76.32208141 -64 72 C-63.71253906 70.93652344 -63.42507812 69.87304688 -63.12890625 68.77734375 C-55.13718002 42.3868878 -36.9993532 20.93542892 -15 5 C-13.83210938 4.13955078 -13.83210938 4.13955078 -12.640625 3.26171875 C-8.37836103 0.32934722 -5.32498252 -0.83529138 0 0 Z " fill="#181818" transform="translate(188,96)"/>
<path d="M0 0 C2.8515625 1.3984375 2.8515625 1.3984375 5.625 3.375 C6.65238281 4.10460937 7.67976563 4.83421875 8.73828125 5.5859375 C9.82632969 6.38953098 10.9135505 7.19424609 12 8 C12.56122559 8.40637695 13.12245117 8.81275391 13.70068359 9.23144531 C20.57401126 14.21494987 26.76122386 19.25936252 32 26 C32.76699219 26.92039062 33.53398437 27.84078125 34.32421875 28.7890625 C52.00078854 50.35303913 61.09120862 76.96706694 61.3125 104.6875 C61.35600586 106.52151367 61.35600586 106.52151367 61.40039062 108.39257812 C61.40876953 109.56626953 61.41714844 110.73996094 61.42578125 111.94921875 C61.44036377 113.01487061 61.45494629 114.08052246 61.4699707 115.1784668 C60.8820344 118.70822257 59.85728689 119.89865273 57 122 C53.375 121.9375 53.375 121.9375 50 121 C47.88707925 117.83061888 47.75311769 117.04063988 47.7265625 113.4140625 C47.70891846 112.49367188 47.69127441 111.57328125 47.6730957 110.625 C47.65722412 109.635 47.64135254 108.645 47.625 107.625 C46.62685574 75.68438363 35.72734501 48.97429232 12.78125 26.453125 C7.21069595 21.53977115 0.98609035 17.38511964 -5.3828125 13.57421875 C-7.3125 12.375 -7.3125 12.375 -10 10 C-10.62254869 6.38921758 -10.71175393 4.29790423 -8.9375 1.0625 C-5.90445973 -0.60078015 -3.40855297 -0.25341074 0 0 Z " fill="#171717" transform="translate(319,96)"/>
<path d="M0 0 C2.4375 2.1875 2.4375 2.1875 4 5 C3.953125 7.39453125 3.953125 7.39453125 3 10 C0.48828125 12.28125 0.48828125 12.28125 -2.6875 14.5 C-3.79080081 15.29366477 -4.89367108 16.08792842 -5.99609375 16.8828125 C-6.98738281 17.58148438 -7.97867188 18.28015625 -9 19 C-21.12120483 27.55915944 -28.21518916 42.53502199 -31.48828125 56.66796875 C-32.23396587 61.52345715 -32.45894369 66.39180139 -32.53442383 71.30175781 C-32.68170317 76.53593245 -32.68170317 76.53593245 -34.34765625 78.96484375 C-37.04464243 80.65444502 -38.90553416 80.50521891 -42 80 C-44.80584702 77.28025298 -45.90694476 75.61475075 -46.49609375 71.72265625 C-46.17330599 51.5591807 -41.06347996 33.4994488 -28 18 C-27.53207031 17.35933594 -27.06414062 16.71867187 -26.58203125 16.05859375 C-21.07851981 8.76009088 -9.3928204 -1.12713845 0 0 Z " fill="#171717" transform="translate(194,128)"/>
<path d="M0 0 C8.28158706 0.64236654 16.67607704 8.37828313 22.2734375 14.25390625 C27.73360362 20.72490737 33.15845698 27.30436321 36.2734375 35.25390625 C36.69238281 36.2903125 37.11132812 37.32671875 37.54296875 38.39453125 C41.76752446 49.44898826 46.88732174 65.88633789 42.3828125 77.5625 C41.2734375 79.25390625 41.2734375 79.25390625 39.2734375 80.25390625 C34.00373033 80.70239197 34.00373033 80.70239197 31.61328125 79.234375 C29.53630922 76.16433179 29.82933696 72.90296275 29.7734375 69.31640625 C29.03646625 51.40480054 22.44719892 33.87797115 9.2734375 21.25390625 C6.02868334 18.67903129 2.68156323 16.25769025 -0.76196289 13.95581055 C-5.55003578 10.70414919 -5.55003578 10.70414919 -6.50390625 8.27124023 C-6.83796357 5.24457833 -5.42823004 3.67551005 -3.7265625 1.25390625 C-2.7265625 0.25390625 -2.7265625 0.25390625 0 0 Z " fill="#191919" transform="translate(308.7265625,127.74609375)"/>
<path d="M0 0 C0.66 0.33 1.32 0.66 2 1 C-2.95 5.95 -7.9 10.9 -13 16 C-13.66 15.67 -14.32 15.34 -15 15 C-10.57315833 9.26150154 -5.59756187 4.55615501 0 0 Z " fill="#5C5C5C" transform="translate(205,146)"/>
<path d="M0 0 C0.66 0.33 1.32 0.66 2 1 C-1.3 4.3 -4.6 7.6 -8 11 C-8.66 10.67 -9.32 10.34 -10 10 C-6.92118304 6.12948725 -3.99926986 2.97088618 0 0 Z " fill="#5F5F5F" transform="translate(177,135)"/>
<path d="M0 0 C0.66 0.33 1.32 0.66 2 1 C-0.64 3.64 -3.28 6.28 -6 9 C-6.66 8.67 -7.32 8.34 -8 8 C-3.375 2.25 -3.375 2.25 0 0 Z " fill="#6A6A6A" transform="translate(231,101)"/>
<path d="M0 0 C0.66 0.33 1.32 0.66 2 1 C0.88121617 2.17262904 -0.24523051 3.33795138 -1.375 4.5 C-2.00148438 5.1496875 -2.62796875 5.799375 -3.2734375 6.46875 C-5 8 -5 8 -7 8 C-5.50902342 4.2047869 -3.24299151 2.38957269 0 0 Z " fill="#5D5D5D" transform="translate(130,328)"/>
</svg>
