<?xml version="1.0" encoding="UTF-8"?>
<svg version="1.1" xmlns="http://www.w3.org/2000/svg" width="500" height="500">
<path d="M0 0 C1.36271133 2.72542267 1.16923601 4.96087274 1.1875 8 C1.20167969 9.0725 1.21585937 10.145 1.23046875 11.25 C1 14 1 14 -1 16 C-4.125 16.125 -4.125 16.125 -7 16 C-6.81584568 18.94091587 -6.81584568 18.94091587 -6 22 C-4.04836882 23.43637698 -4.04836882 23.43637698 -2 24 C-4.46153846 28.8 -4.46153846 28.8 -7.1875 29.8125 C-7.785625 29.874375 -8.38375 29.93625 -9 30 C-9.33 28.35 -9.66 26.7 -10 25 C-11.65 25 -13.3 25 -15 25 C-15 31.6 -15 38.2 -15 45 C-13.35 45 -11.7 45 -10 45 C-10.04125 44.21625 -10.0825 43.4325 -10.125 42.625 C-10 40 -10 40 -8 38 C-3.18497293 36.81065948 1.35456119 36.98524081 6.25 37.3125 C6.96929687 37.34794922 7.68859375 37.38339844 8.4296875 37.41992188 C13.75393357 37.75393357 13.75393357 37.75393357 16 40 C16.625 42.625 16.625 42.625 17 45 C19.31 45.66 21.62 46.32 24 47 C25.03115279 50.26913624 24.9638984 52.86041348 24.5625 56.25 C24.46066406 57.14203125 24.35882813 58.0340625 24.25390625 58.953125 C24.12822266 59.96632813 24.12822266 59.96632813 24 61 C25.7015625 60.9690625 25.7015625 60.9690625 27.4375 60.9375 C31 61 31 61 32 62 C31.4 68.6 31.4 68.6 29 71 C27.35 71 25.7 71 24 71 C24.495 77.435 24.495 77.435 25 84 C25.99 84 26.98 84 28 84 C28.391875 82.88625 28.78375 81.7725 29.1875 80.625 C29.85546875 78.7265625 29.85546875 78.7265625 31 77 C32.65 76.34 34.3 75.68 36 75 C36.33 68.73 36.66 62.46 37 56 C35.02 55.67 33.04 55.34 31 55 C29.875 52.1875 29.875 52.1875 29 49 C31 46 31 46 33.625 45.3125 C34.800625 45.1578125 34.800625 45.1578125 36 45 C36.28875 44.05125 36.5775 43.1025 36.875 42.125 C38 39 38 39 40 37 C43.125 37.375 43.125 37.375 46 38 C46.66 40.31 47.32 42.62 48 45 C49.39025391 45.09087891 49.39025391 45.09087891 50.80859375 45.18359375 C52.00613281 45.26738281 53.20367187 45.35117188 54.4375 45.4375 C55.63246094 45.51871094 56.82742188 45.59992188 58.05859375 45.68359375 C61 46 61 46 62 47 C62.08790975 49.29151417 62.10694038 51.58572524 62.09765625 53.87890625 C62.09553383 54.90889992 62.09553383 54.90889992 62.09336853 55.95970154 C62.08775479 58.16067801 62.07520007 60.36155409 62.0625 62.5625 C62.05748676 64.05143083 62.05292355 65.54036324 62.04882812 67.02929688 C62.03778093 70.68623075 62.02050713 74.34310558 62 78 C58.535 78.495 58.535 78.495 55 79 C55.33 80.65 55.66 82.3 56 84 C56.969375 84.144375 57.93875 84.28875 58.9375 84.4375 C62 85 62 85 63 86 C63.36063233 93.72177465 63.05539054 101.34841858 62 109 C59.03 109.99 59.03 109.99 56 111 C55.67 112.65 55.34 114.3 55 116 C56.134375 115.979375 57.26875 115.95875 58.4375 115.9375 C62 116 62 116 63 117 C62.28 123.72 62.28 123.72 61 125 C54.47457627 125.23728814 54.47457627 125.23728814 52 124 C52 123.34 52 122.68 52 122 C51.34 122 50.68 122 50 122 C50.33 120.68 50.66 119.36 51 118 C50.01 118 49.02 118 48 118 C47.855625 118.969375 47.71125 119.93875 47.5625 120.9375 C47 124 47 124 46 125 C42.5625 125.1875 42.5625 125.1875 39 125 C37 123 37 123 36.875 120.375 C36.91625 119.59125 36.9575 118.8075 37 118 C35.865625 117.87625 34.73125 117.7525 33.5625 117.625 C32.386875 117.41875 31.21125 117.2125 30 117 C29.67 116.34 29.34 115.68 29 115 C24.63075935 115.66200616 20.88404165 116.87476966 17 119 C15.48026848 122.05181069 15.48026848 122.05181069 15 125 C13.02 125.33 11.04 125.66 9 126 C9 127.65 9 129.3 9 131 C12.96 130.67 16.92 130.34 21 130 C21.33 128.35 21.66 126.7 22 125 C23 124 23 124 24.84765625 123.90234375 C26.8984375 123.93489583 28.94921875 123.96744792 31 124 C32.0625 125.8125 32.0625 125.8125 33 128 C32.67 128.99 32.34 129.98 32 131 C32.98742187 130.98839844 33.97484375 130.97679687 34.9921875 130.96484375 C36.91417969 130.95130859 36.91417969 130.95130859 38.875 130.9375 C40.15117187 130.92589844 41.42734375 130.91429687 42.7421875 130.90234375 C46 131 46 131 48 132 C48 132.66 48 133.32 48 134 C48.66 134.33 49.32 134.66 50 135 C49.34 135 48.68 135 48 135 C47.814375 136.2065625 47.814375 136.2065625 47.625 137.4375 C47.41875 138.283125 47.2125 139.12875 47 140 C44.68958369 141.15520815 43.35234337 141.13250658 40.78149414 141.14526367 C39.91041519 141.15164352 39.03933624 141.15802338 38.14186096 141.16459656 C37.19914841 141.16570938 36.25643585 141.1668222 35.28515625 141.16796875 C34.31847519 141.17129715 33.35179413 141.17462555 32.3558197 141.17805481 C30.30891395 141.18312317 28.26199991 141.18546316 26.21508789 141.18530273 C23.07880071 141.18748864 19.9428655 141.20564375 16.80664062 141.22460938 C14.82031371 141.22754339 12.83398511 141.22952813 10.84765625 141.23046875 C9.43662376 141.24124702 9.43662376 141.24124702 7.99708557 141.25224304 C6.68573891 141.2476281 6.68573891 141.2476281 5.34790039 141.24291992 C4.19445885 141.24505745 4.19445885 141.24505745 3.01771545 141.24723816 C1 141 1 141 -2 139 C-3.1875 136.875 -3.1875 136.875 -4 135 C-6.75383923 136.37691962 -7.51483101 138.36720042 -9 141 C-11.31 140.67 -13.62 140.34 -16 140 C-16.33 138.02 -16.66 136.04 -17 134 C-18.65 134 -20.3 134 -22 134 C-22.20625 134.94875 -22.4125 135.8975 -22.625 136.875 C-24 140 -24 140 -26.625 141.4375 C-30.83392334 142.13898722 -33.81160758 141.83767848 -38 141 C-40 139 -40 139 -40.22705078 136.75341797 C-40.21657715 135.84221191 -40.20610352 134.93100586 -40.1953125 133.9921875 C-40.18886719 133.00605469 -40.18242187 132.01992188 -40.17578125 131.00390625 C-40.15902344 129.97136719 -40.14226562 128.93882812 -40.125 127.875 C-40.11597656 126.83472656 -40.10695312 125.79445313 -40.09765625 124.72265625 C-40.07403747 122.14820908 -40.04110149 119.57421788 -40 117 C-37.35261084 115.5393715 -36.10551666 115 -33 115 C-33 113.35 -33 111.7 -33 110 C-33.969375 110.020625 -34.93875 110.04125 -35.9375 110.0625 C-39 110 -39 110 -40 109 C-40.15858842 106.85613343 -40.25129298 104.70733162 -40.31640625 102.55859375 C-40.35830078 101.25341797 -40.40019531 99.94824219 -40.44335938 98.60351562 C-40.48317608 97.2148467 -40.52288825 95.82617478 -40.5625 94.4375 C-40.60567989 93.04490817 -40.649294 91.65232972 -40.69335938 90.25976562 C-40.79985876 86.83995199 -40.90186923 83.42006237 -41 80 C-42.24136719 79.96261719 -43.48273438 79.92523438 -44.76171875 79.88671875 C-46.40367511 79.8210405 -48.04560087 79.7545938 -49.6875 79.6875 C-50.91243164 79.65366211 -50.91243164 79.65366211 -52.16210938 79.61914062 C-56.85753116 79.41003277 -60.20701109 79.07051484 -64 76 C-64.8125 73.8125 -64.8125 73.8125 -65 72 C-66.65 71.67 -68.3 71.34 -70 71 C-69.979375 71.969375 -69.95875 72.93875 -69.9375 73.9375 C-70 77 -70 77 -71 78 C-73.9375 78.1875 -73.9375 78.1875 -77 78 C-79 76 -79 76 -79.1875 72.9375 C-79 70 -79 70 -78 69 C-76.00041636 68.95919217 -73.99954746 68.95745644 -72 69 C-72.02320313 68.01257813 -72.04640625 67.02515625 -72.0703125 66.0078125 C-72.09738281 64.08582031 -72.09738281 64.08582031 -72.125 62.125 C-72.14820313 60.84882813 -72.17140625 59.57265625 -72.1953125 58.2578125 C-72 55 -72 55 -70 53 C-66.875 52.875 -66.875 52.875 -64 53 C-64 51.35 -64 49.7 -64 48 C-65.98 48 -67.96 48 -70 48 C-71.52150158 44.95699684 -71.23899393 42.345915 -71 39 C-67.30616977 36.53744651 -65.46144097 36.76256362 -61.0625 36.8125 C-60.07237915 36.82216797 -60.07237915 36.82216797 -59.06225586 36.83203125 C-53.01706938 36.9250453 -47.01274145 37.37297296 -41 38 C-41.01160156 37.08476562 -41.02320313 36.16953125 -41.03515625 35.2265625 C-41.04417969 34.03804687 -41.05320313 32.84953125 -41.0625 31.625 C-41.07410156 30.44164062 -41.08570313 29.25828125 -41.09765625 28.0390625 C-41 25 -41 25 -40 23 C-36.9375 22.375 -36.9375 22.375 -34 22 C-33.93941406 21.16855469 -33.87882812 20.33710938 -33.81640625 19.48046875 C-33.73261719 18.39378906 -33.64882812 17.30710938 -33.5625 16.1875 C-33.48128906 15.10855469 -33.40007812 14.02960938 -33.31640625 12.91796875 C-33 10 -33 10 -32 7 C-25.84765625 6.90234375 -25.84765625 6.90234375 -24 7 C-23 8 -23 8 -22.9375 11.0625 C-22.958125 12.031875 -22.97875 13.00125 -23 14 C-21.35 13.67 -19.7 13.34 -18 13 C-17.690625 12.030625 -17.38125 11.06125 -17.0625 10.0625 C-16 7 -16 7 -15 6 C-13.33382885 5.95936168 -11.66611905 5.957279 -10 6 C-10 4.02 -10 2.04 -10 0 C-6.64338305 -1.67830848 -3.63864406 -0.6353188 0 0 Z M-31 25 C-31 31.93 -31 38.86 -31 46 C-33.31 46.66 -35.62 47.32 -38 48 C-38 54.93 -38 61.86 -38 69 C-35.525 68.505 -35.525 68.505 -33 68 C-32.34 66.02 -31.68 64.04 -31 62 C-28.03 61.505 -28.03 61.505 -25 61 C-24.67 58.69 -24.34 56.38 -24 54 C-20.535 53.505 -20.535 53.505 -17 53 C-17.495 50.525 -17.495 50.525 -18 48 C-19.98 47.67 -21.96 47.34 -24 47 C-24.33 39.74 -24.66 32.48 -25 25 C-26.98 25 -28.96 25 -31 25 Z M-54 48 C-54 49.65 -54 51.3 -54 53 C-52.35 53 -50.7 53 -49 53 C-49 51.35 -49 49.7 -49 48 C-50.65 48 -52.3 48 -54 48 Z M-7 48 C-7 52.29 -7 56.58 -7 61 C-5.35 61 -3.7 61 -2 61 C-2 56.71 -2 52.42 -2 48 C-3.65 48 -5.3 48 -7 48 Z M9 48 C9 49.65 9 51.3 9 53 C10.65 53 12.3 53 14 53 C13.67 51.35 13.34 49.7 13 48 C11.68 48 10.36 48 9 48 Z M-61 56 C-62.26237731 58.52475462 -62.09856404 60.31200466 -62.0625 63.125 C-62.05347656 64.03507812 -62.04445312 64.94515625 -62.03515625 65.8828125 C-62.02355469 66.58148438 -62.01195312 67.28015625 -62 68 C-58.98509443 69.00496852 -56.95818308 69.10335303 -53.8125 69.0625 C-52.91144531 69.05347656 -52.01039063 69.04445313 -51.08203125 69.03515625 C-50.05142578 69.01775391 -50.05142578 69.01775391 -49 69 C-49 67.02 -49 65.04 -49 63 C-50.98 63 -52.96 63 -55 63 C-55.66 60.69 -56.32 58.38 -57 56 C-58.32 56 -59.64 56 -61 56 Z M9 64 C9 65.32 9 66.64 9 68 C10.32 68 11.64 68 13 68 C13 66.68 13 65.36 13 64 C11.68 64 10.36 64 9 64 Z M48 64 C46.74050951 65.03406673 46.74050951 65.03406673 46.90234375 67.28515625 C46.91394531 68.20167969 46.92554688 69.11820312 46.9375 70.0625 C46.94652344 70.98160156 46.95554687 71.90070313 46.96484375 72.84765625 C46.97644531 73.55792969 46.98804688 74.26820313 47 75 C48.32 75.33 49.64 75.66 51 76 C52.17571451 72.32589215 52.07366746 68.83070817 52 65 C50.05396726 64.40929986 50.05396726 64.40929986 48 64 Z M-30 71 C-30 72.65 -30 74.3 -30 76 C-28.68 76 -27.36 76 -26 76 C-26 74.35 -26 72.7 -26 71 C-27.32 71 -28.64 71 -30 71 Z M-7 71 C-7.66 73.31 -8.32 75.62 -9 78 C-10.98 78.33 -12.96 78.66 -15 79 C-15.06058594 79.84304688 -15.12117188 80.68609375 -15.18359375 81.5546875 C-15.26738281 82.65039062 -15.35117188 83.74609375 -15.4375 84.875 C-15.51871094 85.96554687 -15.59992188 87.05609375 -15.68359375 88.1796875 C-16 91 -16 91 -17 93 C-20.0625 93.625 -20.0625 93.625 -23 94 C-23 95.98 -23 97.96 -23 100 C-19.37 100.66 -15.74 101.32 -12 102 C-12 102.66 -12 103.32 -12 104 C-12.66 104 -13.32 104 -14 104 C-14.33 104.99 -14.66 105.98 -15 107 C-13.35 107.33 -11.7 107.66 -10 108 C-10 106.02 -10 104.04 -10 102 C-8.54263913 101.80508548 -7.08405407 101.61930642 -5.625 101.4375 C-4.81289063 101.33308594 -4.00078125 101.22867188 -3.1640625 101.12109375 C-1 101 -1 101 1 102 C1 103.98 1 105.96 1 108 C3.475 107.505 3.475 107.505 6 107 C5.773125 105.989375 5.54625 104.97875 5.3125 103.9375 C4.93298375 99.1555952 5.85970146 97.19498514 8 93 C14.435 92.505 14.435 92.505 21 92 C21.33 90.68 21.66 89.36 22 88 C20.04848373 86.04848373 16.54831255 86.29031251 13.9375 85.9375 C12.64714844 85.76089844 11.35679687 85.58429688 10.02734375 85.40234375 C9.02832031 85.26957031 8.02929688 85.13679688 7 85 C6.67 83.02 6.34 81.04 6 79 C4.88625 78.79375 3.7725 78.5875 2.625 78.375 C-1 77 -1 77 -2.4375 73.875 C-2.623125 72.92625 -2.80875 71.9775 -3 71 C-4.32 71 -5.64 71 -7 71 Z M33 87 C32.67 88.32 32.34 89.64 32 91 C33.32 91.33 34.64 91.66 36 92 C36.33 90.35 36.66 88.7 37 87 C35.68 87 34.36 87 33 87 Z M47 87 C46.34 88.98 45.68 90.96 45 93 C43.35 93.33 41.7 93.66 40 94 C39.67 95.98 39.34 97.96 39 100 C41.97 100.33 44.94 100.66 48 101 C48 103.31 48 105.62 48 108 C49.32 108 50.64 108 52 108 C52 101.07 52 94.14 52 87 C50.35 87 48.7 87 47 87 Z M25 95 C25.33 95.66 25.66 96.32 26 97 C26.33 96.34 26.66 95.68 27 95 C26.34 95 25.68 95 25 95 Z M-30 102 C-30.38218767 103.65614657 -30.71395102 105.32457024 -31 107 C-29.93354885 108.29633621 -29.93354885 108.29633621 -27.4375 108.0625 C-26.633125 108.041875 -25.82875 108.02125 -25 108 C-25 106.35 -25 104.7 -25 103 C-26.65 102.67 -28.3 102.34 -30 102 Z M17 102 C17 103.98 17 105.96 17 108 C18.32 107.67 19.64 107.34 21 107 C21 105.68 21 104.36 21 103 C19.68 102.67 18.36 102.34 17 102 Z M33 103 C33.33 103.66 33.66 104.32 34 105 C34.99 104.34 35.98 103.68 37 103 C35.68 103 34.36 103 33 103 Z M33 106 C34 108 34 108 34 108 Z M41 110 C40.34 111.65 39.68 113.3 39 115 C39.99 115.495 39.99 115.495 41 116 C43.11683841 115.10836423 43.11683841 115.10836423 45 114 C45 112.68 45 111.36 45 110 C43.68 110 42.36 110 41 110 Z M-7 111 C-7 114.96 -7 118.92 -7 123 C-5.35 123 -3.7 123 -2 123 C-1.80185739 116.91591528 -1.80185739 116.91591528 -3 111 C-4.32 111 -5.64 111 -7 111 Z M9 111 C10.98 111.99 10.98 111.99 13 113 C13 112.34 13 111.68 13 111 C11.68 111 10.36 111 9 111 Z M-30 118 C-30.33 118.66 -30.66 119.32 -31 120 C-30.67 120.99 -30.34 121.98 -30 123 C-26.04 123 -22.08 123 -18 123 C-17.67 121.35 -17.34 119.7 -17 118 C-21.29 118 -25.58 118 -30 118 Z " fill="#E8E8E2" transform="translate(271,191)"/>
<path d="M0 0 C0.93408188 0.00142502 1.86816376 0.00285004 2.83055115 0.00431824 C3.88827225 0.00124161 4.94599335 -0.00183502 6.0357666 -0.00500488 C7.75454262 0.00577339 7.75454262 0.00577339 9.50804138 0.01676941 C10.67923019 0.01722763 11.85041901 0.01768585 13.05709839 0.01815796 C15.53611767 0.021183 18.01513501 0.02907677 20.49412537 0.04142761 C24.3041705 0.05967845 28.11397275 0.0619374 31.92405701 0.06169128 C34.32705392 0.06660645 36.73004917 0.07243477 39.13304138 0.07926941 C40.28091629 0.08038223 41.4287912 0.08149506 42.6114502 0.0826416 C44.1933036 0.09221138 44.1933036 0.09221138 45.80711365 0.10197449 C47.20704308 0.10769218 47.20704308 0.10769218 48.63525391 0.11352539 C50.75413513 0.24723816 50.75413513 0.24723816 51.75413513 1.24723816 C51.85288683 2.92979051 51.88212417 4.61647844 51.88352966 6.30192566 C51.88668182 7.37974304 51.88983398 8.45756042 51.89308167 9.56803894 C51.89105743 10.74092468 51.8890332 11.91381042 51.88694763 13.12223816 C51.88790436 14.31703796 51.88886108 15.51183777 51.8898468 16.74284363 C51.89052884 19.27490796 51.88867291 21.80697403 51.88450623 24.33903503 C51.87915834 28.23035076 51.88445046 32.12155105 51.89085388 36.01286316 C51.8901931 38.46598842 51.88891195 40.9191136 51.88694763 43.37223816 C51.88897186 44.5451239 51.89099609 45.71800964 51.89308167 46.92643738 C51.88835342 48.54316345 51.88835342 48.54316345 51.88352966 50.19255066 C51.88273407 51.14661804 51.88193848 52.10068542 51.88111877 53.08366394 C51.75413513 55.24723816 51.75413513 55.24723816 50.75413513 56.24723816 C49.14380979 56.35627221 47.52874691 56.39629414 45.91477966 56.40837097 C44.88345917 56.41797852 43.85213867 56.42758606 42.78956604 56.43748474 C41.66670197 56.44173462 40.54383789 56.4459845 39.38694763 56.45036316 C38.24128326 56.45606323 37.0956189 56.46176331 35.91523743 56.46763611 C33.48573231 56.47710319 31.05621425 56.48362683 28.62669373 56.48747253 C24.90202008 56.49717852 21.17789786 56.52818676 17.45335388 56.55973816 C15.09788842 56.56626771 12.742419 56.57151837 10.38694763 56.57536316 C9.26813202 56.58770996 8.14931641 56.60005676 6.99659729 56.61277771 C5.95897247 56.60977661 4.92134766 56.60677551 3.85227966 56.60368347 C2.93818329 56.6073291 2.02408691 56.61097473 1.08229065 56.61473083 C-1.24586487 56.24723816 -1.24586487 56.24723816 -3.04122925 55.03686523 C-4.64097668 52.66025336 -4.62019184 51.11304404 -4.61817932 48.25675964 C-4.62440811 47.24238327 -4.6306369 46.2280069 -4.63705444 45.18289185 C-4.6278447 44.08908707 -4.61863495 42.99528229 -4.60914612 41.86833191 C-4.60964462 40.74532181 -4.61014313 39.62231171 -4.61065674 38.465271 C-4.60831531 36.09057344 -4.59858278 33.71587344 -4.58204651 31.3412323 C-4.55843615 27.6957443 -4.56148747 24.05098638 -4.56813049 20.40544128 C-4.56255456 18.10140044 -4.55544522 15.7973627 -4.54664612 13.49333191 C-4.54755753 12.3975029 -4.54846893 11.30167389 -4.54940796 10.17263794 C-4.53987595 9.16141373 -4.53034393 8.15018951 -4.52052307 7.10832214 C-4.51591568 6.21580246 -4.51130829 5.32328278 -4.50656128 4.40371704 C-4.12876194 1.27856356 -3.11320361 0.34271996 0 0 Z M5.75413513 11.24723816 C5.65326301 13.75647969 5.61441481 16.237602 5.62132263 18.74723816 C5.62036591 19.49811707 5.61940918 20.24899597 5.61842346 21.02262878 C5.61774175 22.61312443 5.61959541 24.20362283 5.62376404 25.79411316 C5.62911246 28.23688471 5.62381879 30.67947237 5.61741638 33.12223816 C5.61807716 34.66390523 5.61935833 36.20557219 5.62132263 37.74723816 C5.6192984 38.48264832 5.61727417 39.21805847 5.6151886 39.97575378 C5.32357 43.39970158 5.32357 43.39970158 6.75413513 46.24723816 C9.34747661 46.33574486 11.91476092 46.36256986 14.50804138 46.34489441 C15.19507141 46.34388733 15.88210144 46.34288025 16.58995056 46.34184265 C19.16552897 46.33659592 21.74108366 46.32263475 24.31663513 46.30973816 C30.07101013 46.28911316 35.82538513 46.26848816 41.75413513 46.24723816 C41.75413513 34.36723816 41.75413513 22.48723816 41.75413513 10.24723816 C35.99976013 10.22661316 30.24538513 10.20598816 24.31663513 10.18473816 C21.589422 10.17108215 21.589422 10.17108215 18.80711365 10.15715027 C17.37409031 10.15423104 15.94106615 10.1516825 14.50804138 10.14958191 C13.75744446 10.14446594 13.00684753 10.13934998 12.23350525 10.13407898 C8.70069927 9.80500921 8.70069927 9.80500921 5.75413513 11.24723816 Z " fill="#ECECE6" transform="translate(281.24586486816406,166.7527618408203)"/>
<path d="M0 0 C0.97418381 -0.00637985 1.94836761 -0.0127597 2.95207214 -0.01933289 C4.51167412 -0.02100212 4.51167412 -0.02100212 6.1027832 -0.02270508 C7.17857132 -0.02603348 8.25435944 -0.02936188 9.36274719 -0.03279114 C11.6313128 -0.03784491 13.8998858 -0.04019994 16.16845703 -0.04003906 C19.65124563 -0.04223487 23.13372211 -0.06043249 26.61645508 -0.0793457 C28.82023003 -0.082278 31.0240065 -0.08426389 33.2277832 -0.08520508 C34.27359055 -0.09239059 35.31939789 -0.09957611 36.39689636 -0.10697937 C37.36162369 -0.10390274 38.32635101 -0.10082611 39.3203125 -0.09765625 C40.17126999 -0.09908127 41.02222748 -0.10050629 41.89897156 -0.10197449 C43.96606445 0.14526367 43.96606445 0.14526367 45.96606445 2.14526367 C46.22676086 4.33970642 46.22676086 4.33970642 46.24072266 7.09814453 C46.25502068 8.64501198 46.25502068 8.64501198 46.26960754 10.22312927 C46.26869614 11.34083206 46.26778473 12.45853485 46.2668457 13.61010742 C46.27113083 14.75435684 46.27541595 15.89860626 46.27983093 17.07752991 C46.28558229 19.50106137 46.2860686 21.92461011 46.28173828 24.34814453 C46.27858038 28.06401934 46.30202135 31.7790969 46.32739258 35.49487305 C46.32966561 37.8457835 46.33036905 40.1966961 46.3293457 42.54760742 C46.33855545 43.66328598 46.3477652 44.77896454 46.35725403 45.92845154 C46.35102524 46.96284866 46.34479645 47.99724579 46.33837891 49.06298828 C46.33900833 49.97406845 46.33963776 50.88514862 46.34028625 51.82383728 C45.96606445 54.14526367 45.96606445 54.14526367 44.74797058 55.94062805 C42.40027792 57.52775667 40.90807335 57.51351168 38.08325195 57.50170898 C36.59656006 57.50621063 36.59656006 57.50621063 35.07983398 57.51080322 C34.01104004 57.49845642 32.94224609 57.48610962 31.84106445 57.47338867 C30.19340088 57.47057892 30.19340088 57.47057892 28.51245117 57.4677124 C26.18901537 57.46098701 23.86559099 57.44706297 21.54223633 57.42651367 C17.98028066 57.3953879 14.41876757 57.38554593 10.85668945 57.37963867 C8.60147571 57.37046755 6.34626648 57.36009144 4.09106445 57.34838867 C3.02227051 57.34413879 1.95347656 57.33988892 0.85229492 57.33551025 C-0.63439697 57.32109894 -0.63439697 57.32109894 -2.15112305 57.30639648 C-3.02365723 57.29956848 -3.89619141 57.29274048 -4.79516602 57.28570557 C-7.03393555 57.14526367 -7.03393555 57.14526367 -10.03393555 56.14526367 C-10.20190098 48.63401488 -10.36183939 41.12262639 -10.51611328 33.61108398 C-10.5695874 31.05407817 -10.62492081 28.49711055 -10.68212891 25.94018555 C-10.76388891 22.27164957 -10.83903075 18.6030296 -10.9128418 14.93432617 C-10.93987686 13.78533844 -10.96691193 12.63635071 -10.99476624 11.45254517 C-11.01486252 10.39159637 -11.0349588 9.33064758 -11.05566406 8.23754883 C-11.07564957 7.30045074 -11.09563507 6.36335266 -11.1162262 5.39785767 C-11.03393555 3.14526367 -11.03393555 3.14526367 -10.03393555 1.14526367 C-6.67335254 0.22446069 -3.47121769 0.01550556 0 0 Z M-1.03393555 11.14526367 C-1.1348503 13.72715813 -1.17365053 16.28172867 -1.16674805 18.86401367 C-1.16770477 19.63708862 -1.1686615 20.41016357 -1.16964722 21.20666504 C-1.17032895 22.84423911 -1.16847511 24.48181586 -1.16430664 26.11938477 C-1.15895826 28.63458288 -1.16425181 31.1496024 -1.1706543 33.66479492 C-1.16999351 35.2520349 -1.16871235 36.83927477 -1.16674805 38.42651367 C-1.16877228 39.18379761 -1.17079651 39.94108154 -1.17288208 40.72131348 C-1.47847238 44.2254193 -1.47847238 44.2254193 -0.03393555 47.14526367 C2.63207985 47.23380714 5.27275844 47.26058267 7.9387207 47.24291992 C8.99875305 47.2414093 8.99875305 47.2414093 10.0802002 47.23986816 C12.72967136 47.23462112 15.37911947 47.22065996 18.02856445 47.20776367 C26.90762695 47.17682617 26.90762695 47.17682617 35.96606445 47.14526367 C35.96606445 35.26526367 35.96606445 23.38526367 35.96606445 11.14526367 C31.95731454 10.14307619 28.73030988 10.01598936 24.6105957 10.01245117 C23.90835373 10.01149445 23.20611176 10.01053772 22.48258972 10.009552 C21.00417999 10.00887347 19.52576724 10.01070492 18.04736328 10.01489258 C15.77605587 10.02026961 13.50494405 10.01492429 11.23364258 10.00854492 C9.79679318 10.00920529 8.35994391 10.01048559 6.9230957 10.01245117 C5.6131665 10.0135791 4.3032373 10.01470703 2.95361328 10.01586914 C0.08299904 9.80304659 0.08299904 9.80304659 -1.03393555 11.14526367 Z " fill="#ECECE6" transform="translate(179.033935546875,274.854736328125)"/>
<path d="M0 0 C0.93709808 0.02220612 1.87419617 0.04441223 2.83969116 0.06729126 C4.43111435 0.09754898 4.43111435 0.09754898 6.0546875 0.12841797 C7.7781691 0.17671249 7.7781691 0.17671249 9.53646851 0.22598267 C10.71002899 0.25100861 11.88358948 0.27603455 13.0927124 0.30181885 C16.85289619 0.38420154 20.61256899 0.48072121 24.37240601 0.57754517 C26.91665575 0.63576598 29.46092665 0.69306964 32.00521851 0.74942017 C38.25289916 0.88980756 44.50021747 1.04181296 50.74740601 1.20254517 C51.51516674 4.611862 51.87355623 7.7602414 51.87680054 11.25234985 C51.8799527 12.22976135 51.88310486 13.20717285 51.88635254 14.21420288 C51.88432831 15.25707458 51.88230408 16.29994629 51.88021851 17.37442017 C51.88117523 18.45257996 51.88213196 19.53073975 51.88311768 20.64157104 C51.88379695 22.91433775 51.8819603 25.18710642 51.8777771 27.45986938 C51.87240444 30.95356547 51.87774134 34.44713421 51.88412476 37.94082642 C51.88346434 40.14785795 51.88218393 42.35488941 51.88021851 44.56192017 C51.88224274 45.61288879 51.88426697 46.66385742 51.88635254 47.74667358 C51.8816243 49.19387787 51.8816243 49.19387787 51.87680054 50.6703186 C51.87600494 51.5234967 51.87520935 52.3766748 51.87438965 53.25570679 C51.74740601 55.20254517 51.74740601 55.20254517 50.74740601 56.20254517 C47.8450557 56.45505899 44.9688425 56.63499796 42.05990601 56.76504517 C41.15248657 56.80677856 40.24506714 56.84851196 39.31015015 56.89151001 C30.7697912 57.23836255 22.23094559 57.31192736 13.68490601 57.32754517 C12.37110962 57.33213745 11.05731323 57.33672974 9.70370483 57.34146118 C7.85168457 57.33843994 7.85168457 57.33843994 5.96224976 57.33535767 C4.86002075 57.33422974 3.75779175 57.33310181 2.62216187 57.3319397 C0.13103419 57.21981251 -1.86665867 56.8473039 -4.25259399 56.20254517 C-4.30317191 48.54876517 -4.33827584 40.89502804 -4.36245728 33.24111938 C-4.37253464 30.63563425 -4.3861967 28.03016048 -4.4034729 25.42471313 C-4.42764502 21.68656618 -4.43905959 17.94856832 -4.44790649 14.21035767 C-4.45822906 13.03949615 -4.46855164 11.86863464 -4.47918701 10.66229248 C-4.47933807 9.58132294 -4.47948914 8.50035339 -4.47964478 7.3866272 C-4.484086 6.43176422 -4.48852722 5.47690125 -4.49310303 4.49310303 C-4.15644663 1.28685768 -3.22600357 0.29007066 0 0 Z M4.74740601 11.20254517 C4.72678101 16.95692017 4.70615601 22.71129517 4.68490601 28.64004517 C4.675802 30.45818726 4.666698 32.27632935 4.65731812 34.14956665 C4.65439889 35.58258999 4.65185035 37.01561415 4.64974976 38.44863892 C4.64463379 39.19923584 4.63951782 39.94983276 4.63424683 40.72317505 C4.63393609 42.55002118 4.68509487 44.37676199 4.74740601 46.20254517 C6.50813184 47.963271 8.82636891 47.330893 11.1713562 47.3414917 C12.3072821 47.33845535 12.3072821 47.33845535 13.46615601 47.33535767 C14.62576843 47.33679276 14.62576843 47.33679276 15.80880737 47.33825684 C17.44638144 47.33893857 19.0839582 47.33708473 20.7215271 47.33291626 C23.23672521 47.32756788 25.75174474 47.33286143 28.26693726 47.33926392 C29.85417724 47.33860313 31.4414171 47.33732197 33.02865601 47.33535767 C33.78593994 47.3373819 34.54322388 47.33940613 35.32345581 47.3414917 C38.82756164 47.647082 38.82756164 47.647082 41.74740601 46.20254517 C41.83591271 43.60920368 41.8627377 41.04191938 41.84506226 38.44863892 C41.84405518 37.76160889 41.8430481 37.07457886 41.8420105 36.36672974 C41.83676377 33.79115132 41.82280259 31.21559663 41.80990601 28.64004517 C41.78928101 22.88567017 41.76865601 17.13129517 41.74740601 11.20254517 C29.53740601 11.20254517 17.32740601 11.20254517 4.74740601 11.20254517 Z " fill="#ECEBE6" transform="translate(173.25259399414063,165.79745483398438)"/>
<path d="M0 0 C0.33 0 0.66 0 1 0 C1 10.23 1 20.46 1 31 C-1.31 31.33 -3.62 31.66 -6 32 C-5.505 34.475 -5.505 34.475 -5 37 C-4.030625 37.144375 -3.06125 37.28875 -2.0625 37.4375 C1 38 1 38 2 39 C2.36063233 46.72177465 2.05539054 54.34841858 1 62 C-0.98 62.66 -2.96 63.32 -5 64 C-5.33 65.65 -5.66 67.3 -6 69 C-4.865625 68.979375 -3.73125 68.95875 -2.5625 68.9375 C1 69 1 69 2 70 C1.28 76.72 1.28 76.72 0 78 C-6.52542373 78.23728814 -6.52542373 78.23728814 -9 77 C-9 76.34 -9 75.68 -9 75 C-9.66 75 -10.32 75 -11 75 C-10.505 73.02 -10.505 73.02 -10 71 C-10.99 71 -11.98 71 -13 71 C-13.144375 71.969375 -13.28875 72.93875 -13.4375 73.9375 C-14 77 -14 77 -15 78 C-18.4375 78.1875 -18.4375 78.1875 -22 78 C-24 76 -24 76 -24.125 73.375 C-24.08375 72.59125 -24.0425 71.8075 -24 71 C-25.7015625 70.814375 -25.7015625 70.814375 -27.4375 70.625 C-28.613125 70.41875 -29.78875 70.2125 -31 70 C-31.495 69.01 -31.495 69.01 -32 68 C-36.36924065 68.66200616 -40.11595835 69.87476966 -44 72 C-45.51973152 75.05181069 -45.51973152 75.05181069 -46 78 C-48.97 78.495 -48.97 78.495 -52 79 C-52 80.65 -52 82.3 -52 84 C-46.06 83.505 -46.06 83.505 -40 83 C-39.67 81.35 -39.34 79.7 -39 78 C-38.67 78 -38.34 78 -38 78 C-38 80.31 -38 82.62 -38 85 C-43.28 85 -48.56 85 -54 85 C-54 82.36 -54 79.72 -54 77 C-51.69 77 -49.38 77 -47 77 C-47 74.69 -47 72.38 -47 70 C-49.31 70 -51.62 70 -54 70 C-54 67.36 -54 64.72 -54 62 C-51.36 62 -48.72 62 -46 62 C-46 59.36 -46 56.72 -46 54 C-42.535 53.505 -42.535 53.505 -39 53 C-38.67 50.69 -38.34 48.38 -38 46 C-35.66705225 45.95758277 -33.33297433 45.95907063 -31 46 C-30 47 -30 47 -29.9375 50.5625 C-29.958125 51.696875 -29.97875 52.83125 -30 54 C-27.69 54 -25.38 54 -23 54 C-23 56.64 -23 59.28 -23 62 C-20.36 62 -17.72 62 -15 62 C-15 59.36 -15 56.72 -15 54 C-14.34 54 -13.68 54 -13 54 C-13 56.31 -13 58.62 -13 61 C-11.68 61 -10.36 61 -9 61 C-9 54.07 -9 47.14 -9 40 C-10.65 40 -12.3 40 -14 40 C-14 41.65 -14 43.3 -14 45 C-14.33 45 -14.66 45 -15 45 C-15 42.69 -15 40.38 -15 38 C-12.69 38 -10.38 38 -8 38 C-8 35.69 -8 33.38 -8 31 C-10.31 31 -12.62 31 -15 31 C-15 25.72 -15 20.44 -15 15 C-12.69 15 -10.38 15 -8 15 C-7 16 -7 16 -6.90234375 19.16015625 C-6.91394531 20.44792969 -6.92554688 21.73570312 -6.9375 23.0625 C-6.94652344 24.35285156 -6.95554687 25.64320313 -6.96484375 26.97265625 C-6.97644531 27.97167969 -6.98804688 28.97070312 -7 30 C-4.69 30 -2.38 30 0 30 C0 20.1 0 10.2 0 0 Z M-13 17 C-14.25949049 18.03406673 -14.25949049 18.03406673 -14.09765625 20.28515625 C-14.08605469 21.20167969 -14.07445312 22.11820312 -14.0625 23.0625 C-14.05347656 23.98160156 -14.04445313 24.90070313 -14.03515625 25.84765625 C-14.02355469 26.55792969 -14.01195312 27.26820313 -14 28 C-12.68 28.33 -11.36 28.66 -10 29 C-8.82428549 25.32589215 -8.92633254 21.83070817 -9 18 C-10.94603274 17.40929986 -10.94603274 17.40929986 -13 17 Z M-36 48 C-35.67 48.66 -35.34 49.32 -35 50 C-34.67 49.34 -34.34 48.68 -34 48 C-34.66 48 -35.32 48 -36 48 Z M-44 55 C-44 56.98 -44 58.96 -44 61 C-42.68 60.67 -41.36 60.34 -40 60 C-40 58.68 -40 57.36 -40 56 C-41.32 55.67 -42.64 55.34 -44 55 Z M-28 56 C-27.67 56.66 -27.34 57.32 -27 58 C-26.01 57.34 -25.02 56.68 -24 56 C-25.32 56 -26.64 56 -28 56 Z M-28 59 C-27 61 -27 61 -27 61 Z M-20 63 C-20.66 64.65 -21.32 66.3 -22 68 C-21.01 68.495 -21.01 68.495 -20 69 C-17.88316159 68.10836423 -17.88316159 68.10836423 -16 67 C-16 65.68 -16 64.36 -16 63 C-17.32 63 -18.64 63 -20 63 Z M-52 64 C-50.02 64.99 -50.02 64.99 -48 66 C-48 65.34 -48 64.68 -48 64 C-49.32 64 -50.64 64 -52 64 Z " fill="#FAFBF8" transform="translate(332,238)"/>
<path d="M0 0 C1.17784561 -0.00315216 2.35569122 -0.00630432 3.56922913 -0.009552 C5.48486916 -0.00651566 5.48486916 -0.00651566 7.43920898 -0.00341797 C8.74357407 -0.00437469 10.04793915 -0.00533142 11.39183044 -0.00631714 C14.15332217 -0.00779223 16.91478156 -0.00564525 19.67626953 -0.00097656 C23.22299294 0.00472622 26.76964078 0.00143709 30.31636143 -0.00454903 C33.69065009 -0.00902195 37.06491818 -0.00589476 40.43920898 -0.00341797 C42.35788536 -0.00645432 42.35788536 -0.00645432 44.31532288 -0.009552 C46.07736305 -0.00482376 46.07736305 -0.00482376 47.875 0 C49.43481346 0.00119339 49.43481346 0.00119339 51.02613831 0.00241089 C53.37280273 0.12939453 53.37280273 0.12939453 54.37280273 1.12939453 C54.53394692 3.5977172 54.63271009 6.04077199 54.68920898 8.51220703 C54.72044861 9.65014961 54.72044861 9.65014961 54.75231934 10.81108093 C54.81857988 13.29208085 54.87726129 15.77318972 54.93530273 18.25439453 C54.97811779 19.94539571 55.02100526 21.63639506 55.06396484 23.32739258 C55.3723304 35.92993174 55.49160595 48.52305313 55.37280273 61.12939453 C52.89780273 61.62439453 52.89780273 61.62439453 50.37280273 62.12939453 C48.15563259 58.80363931 48.12736835 57.79333213 48.14575195 53.92358398 C48.14590302 52.86271072 48.14605408 51.80183746 48.14620972 50.70881653 C48.15653229 49.56499008 48.16685486 48.42116364 48.17749023 47.24267578 C48.18032013 46.07053024 48.18315002 44.8983847 48.18606567 43.6907196 C48.1972752 39.9410081 48.22238145 36.19153404 48.24780273 32.44189453 C48.25783152 29.90218444 48.26695755 27.3624706 48.27514648 24.82275391 C48.29721707 18.59155288 48.33070235 12.36049067 48.37280273 6.12939453 C47.3646904 6.13605637 47.3646904 6.13605637 46.33621216 6.14285278 C39.36128865 6.18699087 32.3864046 6.2172212 25.41137695 6.23925781 C22.80589182 6.24933517 20.20041805 6.26299723 17.5949707 6.28027344 C13.85682375 6.30444556 10.11882589 6.31586013 6.38061523 6.32470703 C4.62432297 6.34019089 4.62432297 6.34019089 2.83255005 6.35598755 C1.21109573 6.35621414 1.21109573 6.35621414 -0.44311523 6.35644531 C-1.39797821 6.36088654 -2.35284119 6.36532776 -3.3366394 6.36990356 C-5.62719727 6.12939453 -5.62719727 6.12939453 -7.62719727 4.12939453 C-7.62719727 3.13939453 -7.62719727 2.14939453 -7.62719727 1.12939453 C-4.97441771 -0.19699525 -2.97052806 0.00227097 0 0 Z " fill="#ECECE7" transform="translate(296.627197265625,148.87060546875)"/>
<path d="M0 0 C1.0743631 0.01371643 2.1487262 0.02743286 3.25564575 0.04156494 C4.40991058 0.06748718 5.56417542 0.09340942 6.75341797 0.12011719 C7.94160126 0.14039978 9.12978455 0.16068237 10.35397339 0.18157959 C12.86400931 0.22713752 15.37395525 0.27790766 17.88378906 0.33349609 C21.73734657 0.41681362 25.59083364 0.47858194 29.44482422 0.53808594 C31.88104735 0.58497065 34.31724682 0.63310496 36.75341797 0.68261719 C37.91173126 0.7004425 39.07004456 0.71826782 40.26345825 0.7366333 C41.33151703 0.76295837 42.39957581 0.78928345 43.5 0.81640625 C44.91419724 0.84544037 44.91419724 0.84544037 46.35696411 0.87506104 C48.62060547 1.16699219 48.62060547 1.16699219 50.62060547 3.16699219 C50.24560547 5.29199219 50.24560547 5.29199219 49.62060547 7.16699219 C48.65007736 7.18245338 48.65007736 7.18245338 47.65994263 7.19822693 C40.94441325 7.30614968 34.22902193 7.42075899 27.51367188 7.53930664 C25.00523763 7.58270122 22.49677298 7.62437289 19.98828125 7.66430664 C16.38906679 7.72189976 12.79000605 7.78562562 9.19091797 7.85058594 C7.50024704 7.87565468 7.50024704 7.87565468 5.77542114 7.90122986 C4.21402908 7.93114769 4.21402908 7.93114769 2.62109375 7.96166992 C1.70176056 7.9772142 0.78242737 7.99275848 -0.1647644 8.0087738 C-2.42014607 8.02805999 -2.42014607 8.02805999 -4.37939453 9.16699219 C-4.39485573 10.13752029 -4.39485573 10.13752029 -4.41062927 11.12765503 C-4.51855203 17.84318441 -4.63316133 24.55857573 -4.75170898 31.27392578 C-4.79510356 33.78236003 -4.83677523 36.29082468 -4.87670898 38.79931641 C-4.9343021 42.39853087 -4.99802796 45.99759161 -5.06298828 49.59667969 C-5.07970078 50.72379364 -5.09641327 51.85090759 -5.1136322 53.01217651 C-5.13357742 54.05310455 -5.15352264 55.09403259 -5.17407227 56.16650391 C-5.18961655 57.0858371 -5.20516083 58.00517029 -5.22117615 58.95236206 C-5.37939453 61.16699219 -5.37939453 61.16699219 -6.37939453 63.16699219 C-10.25439453 62.29199219 -10.25439453 62.29199219 -11.37939453 61.16699219 C-11.51800845 59.50689729 -11.58884806 57.84108564 -11.63232422 56.17578125 C-11.66195251 55.11087463 -11.69158081 54.04596802 -11.72210693 52.9487915 C-11.74823059 51.78845398 -11.77435425 50.62811646 -11.80126953 49.43261719 C-11.82916565 48.24730408 -11.85706177 47.06199097 -11.88580322 45.84075928 C-11.94232542 43.32554218 -11.99592743 40.81025806 -12.046875 38.29492188 C-12.1287541 34.44708863 -12.23232503 30.60021703 -12.33642578 26.75292969 C-12.38855542 24.31285395 -12.43937915 21.8727499 -12.48876953 19.43261719 C-12.52299011 18.28037659 -12.55721069 17.12813599 -12.59246826 15.940979 C-12.60948792 14.86346375 -12.62650757 13.78594849 -12.64404297 12.67578125 C-12.66545349 11.73059631 -12.68686401 10.78541138 -12.70892334 9.81158447 C-12.30392937 6.56135595 -11.35544391 4.76686674 -9.37939453 2.16699219 C-6.29499587 -0.00235244 -3.70984148 -0.06353512 0 0 Z " fill="#EFEFEC" transform="translate(160.37939453125,147.8330078125)"/>
<path d="M0 0 C2.4375 0.375 2.4375 0.375 5 1 C6.67666695 4.35333391 6.14150924 8.13328236 6.1328125 11.8203125 C6.13376923 12.71176971 6.13472595 13.60322693 6.13571167 14.521698 C6.13639379 16.41990224 6.13453733 18.3181088 6.13037109 20.21630859 C6.1251111 23.06483521 6.13026852 25.91319766 6.13671875 28.76171875 C6.13605626 30.61458367 6.13477159 32.46744849 6.1328125 34.3203125 C6.13483673 35.15015656 6.13686096 35.98000061 6.13894653 36.83499146 C6.10825286 44.94822235 5.50934193 52.85052906 5 61 C-15.13 61 -35.26 61 -56 61 C-56 59.35 -56 57.7 -56 56 C-28.775 55.505 -28.775 55.505 -1 55 C-1.03959325 37.64768959 -1.03959325 37.64768959 -1.09008789 20.29541016 C-1.09300737 18.1266281 -1.09555586 15.9578455 -1.09765625 13.7890625 C-1.10277222 12.6549292 -1.10788818 11.5207959 -1.11315918 10.35229492 C-1.11334045 8.73859009 -1.11334045 8.73859009 -1.11352539 7.09228516 C-1.115746 6.15518707 -1.11796661 5.21808899 -1.12025452 4.25259399 C-1 2 -1 2 0 0 Z " fill="#F2F2EE" transform="translate(346,290)"/>
<path d="M0 0 C1.03125 0.00322266 2.0625 0.00644531 3.125 0.00976562 C4.74535156 0.02233398 4.74535156 0.02233398 6.3984375 0.03515625 C8.03039062 0.04192383 8.03039062 0.04192383 9.6953125 0.04882812 C12.38807539 0.06063849 15.08072938 0.07710847 17.7734375 0.09765625 C19.45354728 3.45787582 18.95803308 7.21863437 18.9609375 10.91015625 C18.97318359 11.71775391 18.98542969 12.52535156 18.99804688 13.35742188 C19.01803736 21.4935511 19.01803736 21.4935511 16.7734375 25.09765625 C13.87099382 26.11552438 11.31123285 26.17344751 8.26171875 26.01171875 C7.42189453 25.96789062 6.58207031 25.9240625 5.71679688 25.87890625 C4.84861328 25.82734375 3.98042969 25.77578125 3.0859375 25.72265625 C2.20615234 25.67882812 1.32636719 25.635 0.41992188 25.58984375 C-6.09609694 25.22812181 -6.09609694 25.22812181 -7.2265625 24.09765625 C-7.31370081 22.38993267 -7.33356257 20.67866976 -7.32421875 18.96875 C-7.32099609 17.93427734 -7.31777344 16.89980469 -7.31445312 15.83398438 C-7.30607422 14.74537109 -7.29769531 13.65675781 -7.2890625 12.53515625 C-7.28455078 11.44267578 -7.28003906 10.35019531 -7.27539062 9.22460938 C-7.26356076 6.5155713 -7.24707793 3.80664026 -7.2265625 1.09765625 C-4.66933021 -0.1809599 -2.85919148 -0.01570984 0 0 Z " fill="#EBEBE4" transform="translate(191.2265625,290.90234375)"/>
<path d="M0 0 C1.65 0.33 3.3 0.66 5 1 C5.33 18.82 5.66 36.64 6 55 C23.82 55.33 41.64 55.66 60 56 C60.33 56.99 60.66 57.98 61 59 C60.505 59.99 60.505 59.99 60 61 C52.19424805 61.02312792 44.38850405 61.04091738 36.58272648 61.05181217 C32.9585404 61.05704002 29.3343777 61.06413587 25.71020508 61.07543945 C22.21540025 61.08627184 18.72061796 61.09227758 15.22579765 61.09487724 C13.23760611 61.09763551 11.24942369 61.10544688 9.26124573 61.11329651 C8.06007614 61.11337204 6.85890656 61.11344757 5.62133789 61.11352539 C4.02582848 61.11685631 4.02582848 61.11685631 2.39808655 61.12025452 C0 61 0 61 -1 60 C-1.09905152 58.16427369 -1.12799207 56.32472425 -1.12939453 54.48632812 C-1.13254669 53.30840698 -1.13569885 52.13048584 -1.13894653 50.91687012 C-1.1369223 49.63461548 -1.13489807 48.35236084 -1.1328125 47.03125 C-1.13376923 45.72546997 -1.13472595 44.41968994 -1.13571167 43.07434082 C-1.13718833 40.30687278 -1.13503511 37.53943696 -1.13037109 34.77197266 C-1.12467381 31.21737351 -1.12795298 27.66284986 -1.13394356 24.10825348 C-1.13841747 20.72841286 -1.13528886 17.34859277 -1.1328125 13.96875 C-1.13483673 12.68649536 -1.13686096 11.40424072 -1.13894653 10.08312988 C-1.13579437 8.90520874 -1.13264221 7.7272876 -1.12939453 6.51367188 C-1.12859894 5.47078003 -1.12780334 4.42788818 -1.12698364 3.35339355 C-1 1 -1 1 0 0 Z " fill="#EEEEEA" transform="translate(150,290)"/>
<path d="M0 0 C1.00023193 0.00523682 2.00046387 0.01047363 3.03100586 0.01586914 C4.1105957 0.0190918 5.19018555 0.02231445 6.30249023 0.02563477 C8.00695312 0.03820312 8.00695312 0.03820312 9.74584961 0.05102539 C11.45611328 0.05779297 11.45611328 0.05779297 13.20092773 0.06469727 C16.02845312 0.07652792 18.85587601 0.09301129 21.68334961 0.11352539 C24.7360166 6.21885938 23.07838508 17.50684799 21.68334961 24.11352539 C19.68334961 26.11352539 19.68334961 26.11352539 17.43676758 26.2487793 C16.52556152 26.19641113 15.61435547 26.14404297 14.67553711 26.09008789 C13.6894043 26.03852539 12.70327148 25.98696289 11.68725586 25.93383789 C10.13844727 25.8371582 10.13844727 25.8371582 8.55834961 25.73852539 C7.51807617 25.68180664 6.47780273 25.62508789 5.40600586 25.56665039 C2.83111542 25.4249133 0.25716221 25.27347985 -2.31665039 25.11352539 C-4.1289649 22.02245098 -4.53050663 19.9447122 -4.32836914 16.38305664 C-4.28131836 15.49811523 -4.23426758 14.61317383 -4.18579102 13.70141602 C-4.12584961 12.78553711 -4.0659082 11.8696582 -4.00415039 10.92602539 C-3.95581055 9.99854492 -3.9074707 9.07106445 -3.85766602 8.11547852 C-3.39829007 0.16653018 -3.39829007 0.16653018 0 0 Z " fill="#EBEBE4" transform="translate(187.316650390625,181.886474609375)"/>
<path d="M0 0 C1.02996094 -0.00128906 2.05992187 -0.00257813 3.12109375 -0.00390625 C4.74724609 0.00189453 4.74724609 0.00189453 6.40625 0.0078125 C7.49035156 0.00394531 8.57445312 0.00007812 9.69140625 -0.00390625 C10.72136719 -0.00261719 11.75132812 -0.00132812 12.8125 0 C14.24045898 0.00169189 14.24045898 0.00169189 15.69726562 0.00341797 C17.90625 0.1328125 17.90625 0.1328125 18.90625 1.1328125 C19.00557153 2.82839976 19.03705007 4.52806997 19.0390625 6.2265625 C19.04099609 7.77150391 19.04099609 7.77150391 19.04296875 9.34765625 C19.03910156 10.43175781 19.03523438 11.51585937 19.03125 12.6328125 C19.03705078 14.25896484 19.03705078 14.25896484 19.04296875 15.91796875 C19.04167969 16.94792969 19.04039062 17.97789062 19.0390625 19.0390625 C19.03793457 19.99103516 19.03680664 20.94300781 19.03564453 21.92382812 C18.90625 24.1328125 18.90625 24.1328125 17.90625 25.1328125 C16.21066274 25.23213403 14.51099253 25.26361257 12.8125 25.265625 C11.78253906 25.26691406 10.75257813 25.26820313 9.69140625 25.26953125 C8.06525391 25.26373047 8.06525391 25.26373047 6.40625 25.2578125 C5.32214844 25.26167969 4.23804688 25.26554687 3.12109375 25.26953125 C2.09113281 25.26824219 1.06117188 25.26695312 0 25.265625 C-0.95197266 25.26449707 -1.90394531 25.26336914 -2.88476562 25.26220703 C-5.09375 25.1328125 -5.09375 25.1328125 -6.09375 24.1328125 C-6.19307153 22.43722524 -6.22455007 20.73755503 -6.2265625 19.0390625 C-6.22849609 17.49412109 -6.22849609 17.49412109 -6.23046875 15.91796875 C-6.22660156 14.83386719 -6.22273438 13.74976563 -6.21875 12.6328125 C-6.22261719 11.54871094 -6.22648437 10.46460938 -6.23046875 9.34765625 C-6.22917969 8.31769531 -6.22789062 7.28773438 -6.2265625 6.2265625 C-6.22543457 5.27458984 -6.22430664 4.32261719 -6.22314453 3.34179688 C-5.97719156 -0.85703793 -3.661366 0.00433811 0 0 Z " fill="#EAEAE4" transform="translate(299.09375,181.8671875)"/>
<path d="M0 0 C0.2624883 2.30698048 0.46040943 4.62147561 0.625 6.9375 C0.72039062 8.20464844 0.81578125 9.47179687 0.9140625 10.77734375 C1 14 1 14 0 16 C-2.31 16 -4.62 16 -7 16 C-7.09087891 17.60681641 -7.09087891 17.60681641 -7.18359375 19.24609375 C-7.26798537 20.64324391 -7.35263406 22.04037857 -7.4375 23.4375 C-7.47681641 24.14455078 -7.51613281 24.85160156 -7.55664062 25.58007812 C-7.88671875 30.88671875 -7.88671875 30.88671875 -9 32 C-14.52941176 32.23529412 -14.52941176 32.23529412 -17 31 C-17 29.02 -17 27.04 -17 25 C-17.94875 25.061875 -18.8975 25.12375 -19.875 25.1875 C-20.90625 25.125625 -21.9375 25.06375 -23 25 C-25 22 -25 22 -24.875 18.4375 C-24 15 -24 15 -22.3046875 13.76171875 C-19.40205049 12.80237262 -17.27599001 13.01476309 -14.25 13.375 C-12.77273437 13.54128906 -12.77273437 13.54128906 -11.265625 13.7109375 C-10.51796875 13.80632812 -9.7703125 13.90171875 -9 14 C-9 12.35 -9 10.7 -9 9 C-9.99902344 9.01160156 -10.99804688 9.02320313 -12.02734375 9.03515625 C-13.31769531 9.04417969 -14.60804688 9.05320313 -15.9375 9.0625 C-17.22527344 9.07410156 -18.51304687 9.08570313 -19.83984375 9.09765625 C-23 9 -23 9 -24 8 C-24.1328125 6.1875 -24.1328125 6.1875 -24.125 4 C-24.12757813 3.278125 -24.13015625 2.55625 -24.1328125 1.8125 C-24 0 -24 0 -23 -1 C-20.24384294 -1.26615251 -17.51269627 -1.46974104 -14.75 -1.625 C-13.98558594 -1.6765625 -13.22117188 -1.728125 -12.43359375 -1.78125 C-2.37208146 -2.37208146 -2.37208146 -2.37208146 0 0 Z " fill="#EFF0EB" transform="translate(193,230)"/>
<path d="M0 0 C2.33294775 -0.04241723 4.66702567 -0.04092937 7 0 C8 1 8 1 8.0625 4.5625 C8.041875 5.696875 8.02125 6.83125 8 8 C5.36 8 2.72 8 0 8 C0 13.28 0 18.56 0 24 C-1.98 24.66 -3.96 25.32 -6 26 C-7.45160938 29.01779872 -7.45160938 29.01779872 -8 32 C-10.97 32.495 -10.97 32.495 -14 33 C-14 34.65 -14 36.3 -14 38 C-8.06 37.505 -8.06 37.505 -2 37 C-1.67 35.35 -1.34 33.7 -1 32 C-0.67 32 -0.34 32 0 32 C0 34.31 0 36.62 0 39 C-5.28 39 -10.56 39 -16 39 C-16 36.36 -16 33.72 -16 31 C-13.69 31 -11.38 31 -9 31 C-9 28.69 -9 26.38 -9 24 C-11.31 24 -13.62 24 -16 24 C-16 21.36 -16 18.72 -16 16 C-13.36 16 -10.72 16 -8 16 C-8 13.36 -8 10.72 -8 8 C-4.535 7.505 -4.535 7.505 -1 7 C-0.67 4.69 -0.34 2.38 0 0 Z M2 2 C2.33 2.66 2.66 3.32 3 4 C3.33 3.34 3.66 2.68 4 2 C3.34 2 2.68 2 2 2 Z M-6 9 C-6 10.98 -6 12.96 -6 15 C-4.68 14.67 -3.36 14.34 -2 14 C-2 12.68 -2 11.36 -2 10 C-3.32 9.67 -4.64 9.34 -6 9 Z M-14 18 C-12.02 18.99 -12.02 18.99 -10 20 C-10 19.34 -10 18.68 -10 18 C-11.32 18 -12.64 18 -14 18 Z " fill="#F7F7F3" transform="translate(294,284)"/>
<path d="M0 0 C0 5.28 0 10.56 0 16 C-2.31 16 -4.62 16 -7 16 C-7 13.69 -7 11.38 -7 9 C-12.28 9 -17.56 9 -23 9 C-23 1 -23 1 -22 0 C-19.24384294 -0.26615251 -16.51269627 -0.46974104 -13.75 -0.625 C-12.98558594 -0.6765625 -12.22117188 -0.728125 -11.43359375 -0.78125 C-10.68722656 -0.82507813 -9.94085938 -0.86890625 -9.171875 -0.9140625 C-8.1523877 -0.9752124 -8.1523877 -0.9752124 -7.11230469 -1.03759766 C-5 -1 -5 -1 0 0 Z " fill="#E9EAE3" transform="translate(192,229)"/>
<path d="M0 0 C0.33 0 0.66 0 1 0 C1 10.23 1 20.46 1 31 C-1.31 31.33 -3.62 31.66 -6 32 C-5.67 33.65 -5.34 35.3 -5 37 C-4.030625 37.144375 -3.06125 37.28875 -2.0625 37.4375 C1 38 1 38 2 39 C2.36063233 46.72177465 2.05539054 54.34841858 1 62 C0.67 62 0.34 62 0 62 C0 54.41 0 46.82 0 39 C-3.465 39.495 -3.465 39.495 -7 40 C-7.33 47.26 -7.66 54.52 -8 62 C-10.31 62 -12.62 62 -15 62 C-15 59.36 -15 56.72 -15 54 C-14.34 54 -13.68 54 -13 54 C-13 56.31 -13 58.62 -13 61 C-11.68 61 -10.36 61 -9 61 C-9 54.07 -9 47.14 -9 40 C-10.65 40 -12.3 40 -14 40 C-14 41.65 -14 43.3 -14 45 C-14.33 45 -14.66 45 -15 45 C-15 42.69 -15 40.38 -15 38 C-12.69 38 -10.38 38 -8 38 C-8 35.69 -8 33.38 -8 31 C-10.31 31 -12.62 31 -15 31 C-15 25.72 -15 20.44 -15 15 C-12.69 15 -10.38 15 -8 15 C-7 16 -7 16 -6.90234375 19.16015625 C-6.91394531 20.44792969 -6.92554688 21.73570312 -6.9375 23.0625 C-6.94652344 24.35285156 -6.95554687 25.64320313 -6.96484375 26.97265625 C-6.97644531 27.97167969 -6.98804688 28.97070312 -7 30 C-4.69 30 -2.38 30 0 30 C0 20.1 0 10.2 0 0 Z M-13 17 C-14.25949049 18.03406673 -14.25949049 18.03406673 -14.09765625 20.28515625 C-14.08605469 21.20167969 -14.07445312 22.11820312 -14.0625 23.0625 C-14.05347656 23.98160156 -14.04445313 24.90070313 -14.03515625 25.84765625 C-14.02355469 26.55792969 -14.01195312 27.26820313 -14 28 C-12.68 28.33 -11.36 28.66 -10 29 C-8.82428549 25.32589215 -8.92633254 21.83070817 -9 18 C-10.94603274 17.40929986 -10.94603274 17.40929986 -13 17 Z " fill="#FAF9F7" transform="translate(332,238)"/>
<path d="M0 0 C0.94552734 0.16242188 0.94552734 0.16242188 1.91015625 0.328125 C4.2818121 3.88560878 4.01448105 4.8309317 3.53515625 8.953125 C3.12927634 12.83730139 2.8474692 16.61022158 2.91015625 20.515625 C2.91015625 21.77375 2.91015625 23.031875 2.91015625 24.328125 C1.91015625 25.328125 1.91015625 25.328125 -1.52734375 25.515625 C-5.08984375 25.328125 -5.08984375 25.328125 -7.08984375 23.328125 C-7.27340909 20.08513733 -7.29757062 17.18211323 -6.52734375 14.015625 C-5.93649321 10.38611456 -6.46103468 7.06761282 -6.93359375 3.4375 C-6.98515625 2.74140625 -7.03671875 2.0453125 -7.08984375 1.328125 C-5.19856033 -0.56315842 -2.51916649 0.0914398 0 0 Z " fill="#FCFCFA" transform="translate(253.08984375,166.671875)"/>
<path d="M0 0 C18.81 0 37.62 0 57 0 C57 1.32 57 2.64 57 4 C38.19 4 19.38 4 0 4 C0 2.68 0 1.36 0 0 Z " fill="#E7E7E2" transform="translate(291,346)"/>
<path d="M0 0 C0.33 0 0.66 0 1 0 C1 4.95 1 9.9 1 15 C-0.98 15.33 -2.96 15.66 -5 16 C-5.33 20.62 -5.66 25.24 -6 30 C-8.97 30 -11.94 30 -15 30 C-15 25.05 -15 20.1 -15 15 C-17.31 15 -19.62 15 -22 15 C-22 12.36 -22 9.72 -22 7 C-20.68 7.33 -19.36 7.66 -18 8 C-18 8.66 -18 9.32 -18 10 C-18.66 10 -19.32 10 -20 10 C-20 10.99 -20 11.98 -20 13 C-18.68 13.33 -17.36 13.66 -16 14 C-16.185625 13.030625 -16.37125 12.06125 -16.5625 11.0625 C-16.706875 10.051875 -16.85125 9.04125 -17 8 C-15.44574004 6.44574004 -13.77165073 6.57996296 -11.625 6.3125 C-10.83351563 6.20550781 -10.04203125 6.09851563 -9.2265625 5.98828125 C-7 6 -7 6 -4 8 C-4.33 9.98 -4.66 11.96 -5 14 C-3.68 13.67 -2.36 13.34 -1 13 C-1.20625 11.96875 -1.4125 10.9375 -1.625 9.875 C-2.01194403 5.8765784 -1.51883076 3.66306243 0 0 Z M-13 17 C-13 20.96 -13 24.92 -13 29 C-11.35 29 -9.7 29 -8 29 C-7.80185739 22.91591528 -7.80185739 22.91591528 -9 17 C-10.32 17 -11.64 17 -13 17 Z " fill="#F4F3F0" transform="translate(277,285)"/>
<path d="M0 0 C1.17784561 -0.00315216 2.35569122 -0.00630432 3.56922913 -0.009552 C5.48486916 -0.00651566 5.48486916 -0.00651566 7.43920898 -0.00341797 C8.74357407 -0.00437469 10.04793915 -0.00533142 11.39183044 -0.00631714 C14.15332217 -0.00779223 16.91478156 -0.00564525 19.67626953 -0.00097656 C23.22299294 0.00472622 26.76964078 0.00143709 30.31636143 -0.00454903 C33.69065009 -0.00902195 37.06491818 -0.00589476 40.43920898 -0.00341797 C42.35788536 -0.00645432 42.35788536 -0.00645432 44.31532288 -0.009552 C46.07736305 -0.00482376 46.07736305 -0.00482376 47.875 0 C49.43481346 0.00119339 49.43481346 0.00119339 51.02613831 0.00241089 C53.37280273 0.12939453 53.37280273 0.12939453 54.37280273 1.12939453 C54.53394692 3.5977172 54.63271009 6.04077199 54.68920898 8.51220703 C54.72044861 9.65014961 54.72044861 9.65014961 54.75231934 10.81108093 C54.81857988 13.29208085 54.87726129 15.77318972 54.93530273 18.25439453 C54.97811779 19.94539571 55.02100526 21.63639506 55.06396484 23.32739258 C55.3723304 35.92993174 55.49160595 48.52305313 55.37280273 61.12939453 C52.89780273 61.62439453 52.89780273 61.62439453 50.37280273 62.12939453 C50.04280273 61.46939453 49.71280273 60.80939453 49.37280273 60.12939453 C50.69280273 60.12939453 52.01280273 60.12939453 53.37280273 60.12939453 C53.04280273 41.31939453 52.71280273 22.50939453 52.37280273 3.12939453 C33.23280273 2.79939453 14.09280273 2.46939453 -5.62719727 2.12939453 C-5.95719727 3.11939453 -6.28719727 4.10939453 -6.62719727 5.12939453 C-6.95719727 3.80939453 -7.28719727 2.48939453 -7.62719727 1.12939453 C-4.97441771 -0.19699525 -2.97052806 0.00227097 0 0 Z " fill="#F6F6F3" transform="translate(296.627197265625,148.87060546875)"/>
<path d="M0 0 C5.28 0 10.56 0 16 0 C16 2.31 16 4.62 16 7 C15 8 15 8 11.4375 8.0625 C10.303125 8.041875 9.16875 8.02125 8 8 C8 10.64 8 13.28 8 16 C5.36 16 2.72 16 0 16 C0 10.72 0 5.44 0 0 Z " fill="#E7E7E0" transform="translate(278,284)"/>
<path d="M0 0 C2.64 0 5.28 0 8 0 C8 0.33 8 0.66 8 1 C5.69 1 3.38 1 1 1 C1 5.95 1 10.9 1 16 C3.31 16 5.62 16 8 16 C8 23.92 8 31.84 8 40 C7.67 40 7.34 40 7 40 C7 32.74 7 25.48 7 18 C5.02 18 3.04 18 1 18 C1.2475 19.299375 1.2475 19.299375 1.5 20.625 C2.39266231 26.69761822 2.07639812 32.87966132 2 39 C1.01 39.495 1.01 39.495 0 40 C0 32.41 0 24.82 0 17 C-2.31 17 -4.62 17 -7 17 C-7 21.95 -7 26.9 -7 32 C-17.23 32 -27.46 32 -38 32 C-36 30 -36 30 -32.9453125 29.76953125 C-31.68460938 29.78371094 -30.42390625 29.79789063 -29.125 29.8125 C-28.12811157 29.82216797 -28.12811157 29.82216797 -27.11108398 29.83203125 C-21.04933614 29.92467647 -15.02925742 30.37125062 -9 31 C-9.01160156 30.08476562 -9.02320313 29.16953125 -9.03515625 28.2265625 C-9.04417969 27.03804687 -9.05320313 25.84953125 -9.0625 24.625 C-9.07410156 23.44164062 -9.08570313 22.25828125 -9.09765625 21.0390625 C-9 18 -9 18 -8 16 C-4.9375 15.375 -4.9375 15.375 -2 15 C-1.90912109 13.75283203 -1.90912109 13.75283203 -1.81640625 12.48046875 C-1.73261719 11.39378906 -1.64882812 10.30710938 -1.5625 9.1875 C-1.48128906 8.10855469 -1.40007812 7.02960938 -1.31640625 5.91796875 C-1 3 -1 3 0 0 Z " fill="#FAFAF7" transform="translate(239,198)"/>
<path d="M0 0 C2.97 0 5.94 0 9 0 C9 2.31 9 4.62 9 7 C11.64 7 14.28 7 17 7 C17 9.64 17 12.28 17 15 C21.95 15 26.9 15 32 15 C32 10.05 32 5.1 32 0 C33.98 0 35.96 0 38 0 C38 0.33 38 0.66 38 1 C36.35 1 34.7 1 33 1 C33.495 7.435 33.495 7.435 34 14 C34.99 14 35.98 14 37 14 C37.66 12.02 38.32 10.04 39 8 C39.33 8 39.66 8 40 8 C40 10.31 40 12.62 40 15 C42.31 15 44.62 15 47 15 C47 17.64 47 20.28 47 23 C44.69 23 42.38 23 40 23 C40 20.69 40 18.38 40 16 C37.36 16 34.72 16 32 16 C32 18.31 32 20.62 32 23 C27.05 23 22.1 23 17 23 C17 22.67 17 22.34 17 22 C23.435 21.505 23.435 21.505 30 21 C30 20.01 30 19.02 30 18 C29.00097656 17.86722656 28.00195312 17.73445313 26.97265625 17.59765625 C25.68230469 17.42105469 24.39195312 17.24445313 23.0625 17.0625 C21.77472656 16.88847656 20.48695313 16.71445312 19.16015625 16.53515625 C16 16 16 16 15 15 C14.95919217 13.00041636 14.95745644 10.99954746 15 9 C12.69 8.67 10.38 8.34 8 8 C7.7525 7.030625 7.505 6.06125 7.25 5.0625 C6.63125 3.5465625 6.63125 3.5465625 6 2 C3.96756452 1.03122943 3.96756452 1.03122943 2 1 C1.67 3.31 1.34 5.62 1 8 C0.67 8 0.34 8 0 8 C0 5.36 0 2.72 0 0 Z M42 17 C41.67 18.32 41.34 19.64 41 21 C42.32 21.33 43.64 21.66 45 22 C45.33 20.35 45.66 18.7 46 17 C44.68 17 43.36 17 42 17 Z " fill="#FAFAF8" transform="translate(262,261)"/>
<path d="M0 0 C3.5 -0.3125 3.5 -0.3125 7 0 C9 2 9 2 9.23046875 5.22265625 C9.20919922 7.12337891 9.20919922 7.12337891 9.1875 9.0625 C9.17783203 10.96708984 9.17783203 10.96708984 9.16796875 12.91015625 C9 16 9 16 8 17 C1.68174727 17.46801872 1.68174727 17.46801872 -0.70703125 15.828125 C-2.48510482 13.31411162 -2.36584359 11.55289489 -2.3125 8.5 C-2.30669922 7.06140625 -2.30669922 7.06140625 -2.30078125 5.59375 C-2 3 -2 3 0 0 Z " fill="#EEEFEB" transform="translate(263,167)"/>
<path d="M0 0 C18.48 0 36.96 0 56 0 C56 0.99 56 1.98 56 3 C37.52 3 19.04 3 0 3 C0 2.01 0 1.02 0 0 Z " fill="#E6E6E1" transform="translate(153,151)"/>
<path d="M0 0 C2.97 0 5.94 0 9 0 C9 2.31 9 4.62 9 7 C24.18 7 39.36 7 55 7 C55 4.69 55 2.38 55 0 C55.66 0 56.32 0 57 0 C57 0.66 57 1.32 57 2 C57.99 2.495 57.99 2.495 59 3 C58.34 3 57.68 3 57 3 C56.814375 4.2065625 56.814375 4.2065625 56.625 5.4375 C56.41875 6.283125 56.2125 7.12875 56 8 C53.68958369 9.15520815 52.35234337 9.13250658 49.78149414 9.14526367 C48.47487572 9.15483345 48.47487572 9.15483345 47.14186096 9.16459656 C46.19914841 9.16570938 45.25643585 9.1668222 44.28515625 9.16796875 C43.31847519 9.17129715 42.35179413 9.17462555 41.3558197 9.17805481 C39.30891395 9.18312317 37.26199991 9.18546316 35.21508789 9.18530273 C32.07880071 9.18748864 28.9428655 9.20564375 25.80664062 9.22460938 C23.82031371 9.22754339 21.83398511 9.22952813 19.84765625 9.23046875 C18.43662376 9.24124702 18.43662376 9.24124702 16.99708557 9.25224304 C16.12285446 9.24916641 15.24862335 9.24608978 14.34790039 9.24291992 C13.19445885 9.24505745 13.19445885 9.24505745 12.01771545 9.24723816 C10 9 10 9 7 7 C5.8125 4.875 5.8125 4.875 5 3 C2.24616077 4.37691962 1.48516899 6.36720042 0 9 C-2.31 8.67 -4.62 8.34 -7 8 C-7 7.67 -7 7.34 -7 7 C-4.69 7 -2.38 7 0 7 C0 4.69 0 2.38 0 0 Z " fill="#FAFAF7" transform="translate(262,323)"/>
<path d="M0 0 C2.31 0 4.62 0 7 0 C7 7.59 7 15.18 7 23 C4.69 23 2.38 23 0 23 C0 15.41 0 7.82 0 0 Z " fill="#E6E7DF" transform="translate(325,277)"/>
<path d="M0 0 C2.31 0 4.62 0 7 0 C7 0.33 7 0.66 7 1 C5.02 1 3.04 1 1 1 C1 2.98 1 4.96 1 7 C2.32 7.33 3.64 7.66 5 8 C3.68 8.33 2.36 8.66 1 9 C0.67 11.31 0.34 13.62 0 16 C-2.31 16 -4.62 16 -7 16 C-7 18.31 -7 20.62 -7 23 C-2.05 23 2.9 23 8 23 C8 25.64 8 28.28 8 31 C2.72 31 -2.56 31 -8 31 C-8 28.69 -8 26.38 -8 24 C-10.31 24 -12.62 24 -15 24 C-12 22 -12 22 -9 22 C-9 20.35 -9 18.7 -9 17 C-10.98 17 -12.96 17 -15 17 C-15 16.67 -15 16.34 -15 16 C-12.69 16 -10.38 16 -8 16 C-8 13.36 -8 10.72 -8 8 C-5.36 8 -2.72 8 0 8 C0 5.36 0 2.72 0 0 Z M-6 9 C-6.38218767 10.65614657 -6.71395102 12.32457024 -7 14 C-5.93354885 15.29633621 -5.93354885 15.29633621 -3.4375 15.0625 C-2.633125 15.041875 -1.82875 15.02125 -1 15 C-1 13.35 -1 11.7 -1 10 C-2.65 9.67 -4.3 9.34 -6 9 Z M-6 25 C-6.33 25.66 -6.66 26.32 -7 27 C-6.67 27.99 -6.34 28.98 -6 30 C-2.04 30 1.92 30 6 30 C6.33 28.35 6.66 26.7 7 25 C2.71 25 -1.58 25 -6 25 Z " fill="#FAFAF8" transform="translate(247,284)"/>
<path d="M0 0 C2.31 0 4.62 0 7 0 C7 2.31 7 4.62 7 7 C9.64 7 12.28 7 15 7 C15 9.31 15 11.62 15 14 C14.7525 13.360625 14.505 12.72125 14.25 12.0625 C13.03378366 9.50980961 13.03378366 9.50980961 9 9 C9 12.96 9 16.92 9 21 C10.2375 20.979375 11.475 20.95875 12.75 20.9375 C15.6640825 20.93233319 18.20953327 21.06984442 21 22 C21 20.02 21 18.04 21 16 C19.02 16 17.04 16 15 16 C15 15.67 15 15.34 15 15 C17.31 15 19.62 15 22 15 C22 17.64 22 20.28 22 23 C17.05 23 12.1 23 7 23 C7 18.05 7 13.1 7 8 C4.69 8 2.38 8 0 8 C0.01160156 8.91523438 0.02320313 9.83046875 0.03515625 10.7734375 C0.04417969 11.96195313 0.05320313 13.15046875 0.0625 14.375 C0.07410156 15.55835938 0.08570313 16.74171875 0.09765625 17.9609375 C0 21 0 21 -1 23 C-3.31 23 -5.62 23 -8 23 C-8 22.67 -8 22.34 -8 22 C-6.02 22 -4.04 22 -2 22 C-2.02320313 21.01257813 -2.04640625 20.02515625 -2.0703125 19.0078125 C-2.09738281 17.08582031 -2.09738281 17.08582031 -2.125 15.125 C-2.14820313 13.84882813 -2.17140625 12.57265625 -2.1953125 11.2578125 C-2 8 -2 8 0 6 C3.125 5.875 3.125 5.875 6 6 C6 4.35 6 2.7 6 1 C4.02 1 2.04 1 0 1 C0 0.67 0 0.34 0 0 Z " fill="#FBFBF8" transform="translate(201,238)"/>
<path d="M0 0 C0.66 0.33 1.32 0.66 2 1 C1.67 2.32 1.34 3.64 1 5 C0.02947189 5.0154612 0.02947189 5.0154612 -0.96066284 5.03123474 C-7.67619222 5.1391575 -14.39158354 5.2537668 -21.10693359 5.37231445 C-23.61536784 5.41570903 -26.12383249 5.4573807 -28.63232422 5.49731445 C-32.23153868 5.55490757 -35.83059942 5.61863343 -39.4296875 5.68359375 C-41.12035843 5.70866249 -41.12035843 5.70866249 -42.84518433 5.73423767 C-44.40657639 5.7641555 -44.40657639 5.7641555 -45.99951172 5.79467773 C-46.91884491 5.81022202 -47.8381781 5.8257663 -48.78536987 5.84178162 C-51.04075154 5.8610678 -51.04075154 5.8610678 -53 7 C-53.33 24.16 -53.66 41.32 -54 59 C-54.33 59 -54.66 59 -55 59 C-55 40.85 -55 22.7 -55 4 C-36.85 4 -18.7 4 0 4 C0 2.68 0 1.36 0 0 Z " fill="#FEFEFA" transform="translate(209,150)"/>
<path d="M0 0 C2.64 0 5.28 0 8 0 C8 0.33 8 0.66 8 1 C6.02 1 4.04 1 2 1 C2.18415432 3.94091587 2.18415432 3.94091587 3 7 C4.95163118 8.43637698 4.95163118 8.43637698 7 9 C4.53846154 13.8 4.53846154 13.8 1.8125 14.8125 C1.214375 14.874375 0.61625 14.93625 0 15 C-0.33 13.35 -0.66 11.7 -1 10 C-2.65 10 -4.3 10 -6 10 C-6 16.6 -6 23.2 -6 30 C-4.35 30 -2.7 30 -1 30 C-1 28.35 -1 26.7 -1 25 C-0.67 25 -0.34 25 0 25 C0 26.98 0 28.96 0 31 C-1.9914056 31.38133299 -3.99279077 31.71325582 -6 32 C-7 31 -7 31 -7.11352539 28.77514648 C-7.10828857 27.81680908 -7.10305176 26.85847168 -7.09765625 25.87109375 C-7.09443359 24.83662109 -7.09121094 23.80214844 -7.08789062 22.73632812 C-7.07951172 21.64771484 -7.07113281 20.55910156 -7.0625 19.4375 C-7.05798828 18.34501953 -7.05347656 17.25253906 -7.04882812 16.12695312 C-7.03699826 13.41791505 -7.02051543 10.70898401 -7 8 C-4.69 8 -2.38 8 0 8 C0 5.36 0 2.72 0 0 Z " fill="#FBFBF8" transform="translate(262,206)"/>
<path d="M0 0 C2.33294775 -0.04241723 4.66702567 -0.04092937 7 0 C8 1 8 1 8.0625 4.5625 C8.041875 5.696875 8.02125 6.83125 8 8 C5.36 8 2.72 8 0 8 C0 10.64 0 13.28 0 16 C-2.64 16 -5.28 16 -8 16 C-8 13.36 -8 10.72 -8 8 C-4.535 7.505 -4.535 7.505 -1 7 C-0.67 4.69 -0.34 2.38 0 0 Z M2 2 C2.33 2.66 2.66 3.32 3 4 C3.33 3.34 3.66 2.68 4 2 C3.34 2 2.68 2 2 2 Z M-6 9 C-6 10.98 -6 12.96 -6 15 C-4.68 14.67 -3.36 14.34 -2 14 C-2 12.68 -2 11.36 -2 10 C-3.32 9.67 -4.64 9.34 -6 9 Z " fill="#FDFDFB" transform="translate(294,284)"/>
<path d="M0 0 C0.125 3.375 0.125 3.375 0 7 C-2 9 -2 9 -5.5 9.3125 C-7.2325 9.1578125 -7.2325 9.1578125 -9 9 C-11.1519437 5.77208445 -11.20086443 4.71599191 -11 1 C-6.87831311 -0.62950412 -4.29299643 -1.26264601 0 0 Z " fill="#F8F9F6" transform="translate(334,323)"/>
<path d="M0 0 C0.33 0 0.66 0 1 0 C1.6057142 20.00306723 2.18861935 39.98539089 2 60 C-0.475 60.495 -0.475 60.495 -3 61 C-3.33 60.34 -3.66 59.68 -4 59 C-2.68 59 -1.36 59 0 59 C0 39.53 0 20.06 0 0 Z " fill="#FEFEFC" transform="translate(350,150)"/>
<path d="M0 0 C2.31 0 4.62 0 7 0 C7 0.33 7 0.66 7 1 C5.02 1 3.04 1 1 1 C1 7.93 1 14.86 1 22 C2.32 21.67 3.64 21.34 5 21 C6.3045656 18.00384054 6.3045656 18.00384054 7 15 C7.33 15 7.66 15 8 15 C8 17.64 8 20.28 8 23 C10.31 23 12.62 23 15 23 C15 25.31 15 27.62 15 30 C12.66705225 30.04241723 10.33297433 30.04092937 8 30 C7 29 7 29 6.9375 25.9375 C6.958125 24.968125 6.97875 23.99875 7 23 C4.69 23 2.38 23 0 23 C0 15.41 0 7.82 0 0 Z M9 24 C9 25.65 9 27.3 9 29 C10.32 29 11.64 29 13 29 C13 27.35 13 25.7 13 24 C11.68 24 10.36 24 9 24 Z " fill="#FBFBFA" transform="translate(232,238)"/>
<path d="M0 0 C1.125 1.625 1.125 1.625 2 4 C1.125 7.25 1.125 7.25 0 10 C-1.98 10 -3.96 10 -6 10 C-7.85776765 6.86501708 -8.20140476 4.62528568 -8 1 C-5.07175348 0.02391783 -3.04386724 -0.08226668 0 0 Z " fill="#EEEFEB" transform="translate(239,182)"/>
<path d="M0 0 C5.28 0 10.56 0 16 0 C16 1.98 16 3.96 16 6 C15.773125 5.360625 15.54625 4.72125 15.3125 4.0625 C14.14749104 1.72806339 14.14749104 1.72806339 11.375 1.25 C10.59125 1.1675 9.8075 1.085 9 1 C9.020625 1.969375 9.04125 2.93875 9.0625 3.9375 C9 7 9 7 8 8 C5.0625 8.1875 5.0625 8.1875 2 8 C1.34 7.34 0.68 6.68 0 6 C0 4.02 0 2.04 0 0 Z " fill="#EFEFEB" transform="translate(192,261)"/>
<path d="M0 0 C1.134375 0.020625 2.26875 0.04125 3.4375 0.0625 C3.4375 3.0325 3.4375 6.0025 3.4375 9.0625 C1.10455225 9.10491723 -1.22952567 9.10342937 -3.5625 9.0625 C-4.5625 8.0625 -4.5625 8.0625 -4.6875 4.5625 C-4.52739028 0.0794279 -4.52739028 0.0794279 0 0 Z " fill="#EBECE8" transform="translate(251.5625,182.9375)"/>
<path d="M0 0 C0.33 0 0.66 0 1 0 C1.33 1.65 1.66 3.3 2 5 C4.31 5.66 6.62 6.32 9 7 C10.03115279 10.26913624 9.9638984 12.86041348 9.5625 16.25 C9.46066406 17.14203125 9.35882813 18.0340625 9.25390625 18.953125 C9.17011719 19.62859375 9.08632813 20.3040625 9 21 C10.7015625 20.9690625 10.7015625 20.9690625 12.4375 20.9375 C16 21 16 21 17 22 C16.71269945 24.33944736 16.38063221 26.6739143 16 29 C15.67 29 15.34 29 15 29 C15 26.69 15 24.38 15 22 C12.36 22 9.72 22 7 22 C7 17.05 7 12.1 7 7 C4.69 7 2.38 7 0 7 C0 4.69 0 2.38 0 0 Z " fill="#F9F9F7" transform="translate(286,231)"/>
<path d="M0 0 C2.64 0 5.28 0 8 0 C8.04241723 2.33294775 8.04092937 4.66702567 8 7 C7 8 7 8 3.4375 8.0625 C2.303125 8.041875 1.16875 8.02125 0 8 C0 5.36 0 2.72 0 0 Z " fill="#E7E8E1" transform="translate(294,292)"/>
<path d="M0 0 C2.31 0 4.62 0 7 0 C7 2.64 7 5.28 7 8 C4.69 8 2.38 8 0 8 C0 5.36 0 2.72 0 0 Z " fill="#E8E9E2" transform="translate(325,308)"/>
<path d="M0 0 C2.31 0 4.62 0 7 0 C7 2.64 7 5.28 7 8 C4.69 8 2.38 8 0 8 C0 5.36 0 2.72 0 0 Z " fill="#E9EAE3" transform="translate(310,308)"/>
<path d="M0 0 C2.31 0 4.62 0 7 0 C7 2.31 7 4.62 7 7 C4.69 7 2.38 7 0 7 C0 4.69 0 2.38 0 0 Z " fill="#E6E7E0" transform="translate(302,300)"/>
<path d="M0 0 C2.31 0 4.62 0 7 0 C7 2.31 7 4.62 7 7 C4.69 7 2.38 7 0 7 C0 4.69 0 2.38 0 0 Z " fill="#E6E6E0" transform="translate(286,300)"/>
<path d="M0 0 C2.31 0 4.62 0 7 0 C7 2.31 7 4.62 7 7 C5.00045254 7.04254356 2.99958364 7.04080783 1 7 C0 6 0 6 -0.0625 2.9375 C-0.041875 1.968125 -0.02125 0.99875 0 0 Z " fill="#E6E7E1" transform="translate(317,300)"/>
<path d="M0 0 C1.98 0 3.96 0 6 0 C6 4.95 6 9.9 6 15 C3.69 15 1.38 15 -1 15 C-1.02685412 12.68756208 -1.04632841 10.3750373 -1.0625 8.0625 C-1.07410156 6.77472656 -1.08570313 5.48695313 -1.09765625 4.16015625 C-1 1 -1 1 0 0 Z M0 2 C0 5.96 0 9.92 0 14 C1.65 14 3.3 14 5 14 C5.19814261 7.91591528 5.19814261 7.91591528 4 2 C2.68 2 1.36 2 0 2 Z " fill="#FEFEFD" transform="translate(264,300)"/>
<path d="M0 0 C2.31 0 4.62 0 7 0 C7 2.31 7 4.62 7 7 C5.00045254 7.04254356 2.99958364 7.04080783 1 7 C0 6 0 6 -0.0625 2.9375 C-0.041875 1.968125 -0.02125 0.99875 0 0 Z " fill="#E5E6E1" transform="translate(263,293)"/>
<path d="M0 0 C2.64 0 5.28 0 8 0 C7.67 2.31 7.34 4.62 7 7 C4.03 6.505 4.03 6.505 1 6 C0.67 4.02 0.34 2.04 0 0 Z " fill="#EDEFE9" transform="translate(264,276)"/>
<path d="M0 0 C2.64 0 5.28 0 8 0 C8 2.64 8 5.28 8 8 C5.36 8 2.72 8 0 8 C0 5.36 0 2.72 0 0 Z M2 2 C2 3.32 2 4.64 2 6 C3.32 6 4.64 6 6 6 C6 4.68 6 3.36 6 2 C4.68 2 3.36 2 2 2 Z " fill="#F8F7F5" transform="translate(278,253)"/>
<path d="M0 0 C2.64 0 5.28 0 8 0 C8.04254356 1.99954746 8.04080783 4.00041636 8 6 C7 7 7 7 3.9375 7.0625 C2.968125 7.041875 1.99875 7.02125 1 7 C0.67 4.69 0.34 2.38 0 0 Z M2 2 C3.98 2.99 3.98 2.99 6 4 C6 3.34 6 2.68 6 2 C4.68 2 3.36 2 2 2 Z " fill="#FDFDFC" transform="translate(278,300)"/>
<path d="M0 0 C2.31 0 4.62 0 7 0 C7 7.92 7 15.84 7 24 C4.69 24 2.38 24 0 24 C2 22 2 22 5 21 C5.33 14.73 5.66 8.46 6 2 C3.03 1.505 3.03 1.505 0 1 C0 0.67 0 0.34 0 0 Z " fill="#FCFCFA" transform="translate(302,245)"/>
<path d="M0 0 C2.31 0 4.62 0 7 0 C7 1.98 7 3.96 7 6 C4.69 6 2.38 6 0 6 C0 4.02 0 2.04 0 0 Z " fill="#E5E6E1" transform="translate(325,324)"/>
<path d="M0 0 C1.98 0 3.96 0 6 0 C6 2.31 6 4.62 6 7 C4.02 7 2.04 7 0 7 C0 4.69 0 2.38 0 0 Z " fill="#E6E5E1" transform="translate(248,168)"/>
<path d="M0 0 C2.64 0 5.28 0 8 0 C9.0625 1.8125 9.0625 1.8125 10 4 C9.67 4.99 9.34 5.98 9 7 C13.62 7 18.24 7 23 7 C23 7.33 23 7.66 23 8 C17.72 8 12.44 8 7 8 C7 5.69 7 3.38 7 1 C4.69 1 2.38 1 0 1 C0 0.67 0 0.34 0 0 Z " fill="#FAFAF6" transform="translate(294,315)"/>
<path d="M0 0 C0.66 0 1.32 0 2 0 C2 0.66 2 1.32 2 2 C2.66 2.33 3.32 2.66 4 3 C3.34 3 2.68 3 2 3 C1.67 4.65 1.34 6.3 1 8 C-5.6 8 -12.2 8 -19 8 C-19 7.67 -19 7.34 -19 7 C-12.73 7 -6.46 7 0 7 C0 4.69 0 2.38 0 0 Z " fill="#F8F8F6" transform="translate(317,323)"/>
<path d="M0 0 C0.33 0 0.66 0 1 0 C1 2.31 1 4.62 1 7 C3.31 7 5.62 7 8 7 C8 7.33 8 7.66 8 8 C5.69 8 3.38 8 1 8 C1 12.95 1 17.9 1 23 C0.67 23 0.34 23 0 23 C0 18.05 0 13.1 0 8 C-1.32 7.67 -2.64 7.34 -4 7 C-2.68 7 -1.36 7 0 7 C0 4.69 0 2.38 0 0 Z " fill="#F2F1ED" transform="translate(262,230)"/>
<path d="M0 0 C1.32 0.33 2.64 0.66 4 1 C4 1.66 4 2.32 4 3 C3.34 3 2.68 3 2 3 C2 3.99 2 4.98 2 6 C3.32 6.33 4.64 6.66 6 7 C5.67 5.02 5.34 3.04 5 1 C5.66 0.67 6.32 0.34 7 0 C7 2.64 7 5.28 7 8 C4.69 8 2.38 8 0 8 C0 5.36 0 2.72 0 0 Z " fill="#FEFDFA" transform="translate(255,292)"/>
<path d="M0 0 C2.31 0 4.62 0 7 0 C7 2.31 7 4.62 7 7 C6.67 6.34 6.34 5.68 6 5 C5.34 5 4.68 5 4 5 C4.33 3.68 4.66 2.36 5 1 C4.01 1 3.02 1 2 1 C1.67 2.98 1.34 4.96 1 7 C0.67 7 0.34 7 0 7 C0 4.69 0 2.38 0 0 Z " fill="#FDFEFD" transform="translate(317,308)"/>
<path d="M0 0 C0.33 0 0.66 0 1 0 C1 4.95 1 9.9 1 15 C-0.98 15 -2.96 15 -5 15 C-3.68 14.34 -2.36 13.68 -1 13 C-1.309375 11.453125 -1.309375 11.453125 -1.625 9.875 C-2.01194403 5.8765784 -1.51883076 3.66306243 0 0 Z " fill="#FEFEFC" transform="translate(277,285)"/>
<path d="M0 0 C1.65 0 3.3 0 5 0 C4.75 1.875 4.75 1.875 4 4 C1.9375 5.25 1.9375 5.25 0 6 C0 4.02 0 2.04 0 0 Z " fill="#E5E6DF" transform="translate(263,215)"/>
</svg>
