<?xml version="1.0" encoding="UTF-8"?>
<!DOCTYPE svg PUBLIC "-//W3C//DTD SVG 1.1//EN" "http://www.w3.org/Graphics/SVG/1.1/DTD/svg11.dtd">
<svg xmlns="http://www.w3.org/2000/svg" version="1.1" width="500px" height="500px" style="shape-rendering:geometricPrecision; text-rendering:geometricPrecision; image-rendering:optimizeQuality; fill-rule:evenodd; clip-rule:evenodd" xmlns:xlink="http://www.w3.org/1999/xlink">
<g><path style="opacity:0.75" fill="#464646" d="M 384.5,114.5 C 366.09,114.18 347.757,114.514 329.5,115.5C 338.308,114.168 347.475,113.502 357,113.5C 366.34,113.5 375.506,113.834 384.5,114.5 Z"/></g>
<g><path style="opacity:1" fill="#151515" d="M 114.5,113.5 C 132.503,113.333 150.503,113.5 168.5,114C 171.034,116.587 171.034,119.253 168.5,122C 153.17,122.5 137.837,122.667 122.5,122.5C 122.667,137.837 122.5,153.17 122,168.5C 119.253,171.034 116.587,171.034 114,168.5C 113.181,150.093 113.348,131.76 114.5,113.5 Z"/></g>
<g><path style="opacity:1" fill="#0f0f0f" d="M 384.5,114.5 C 385.662,132.329 385.829,150.329 385,168.5C 382.333,171.167 379.667,171.167 377,168.5C 376.5,153.17 376.333,137.837 376.5,122.5C 360.962,121.804 345.295,121.137 329.5,120.5C 328.167,118.833 328.167,117.167 329.5,115.5C 347.757,114.514 366.09,114.18 384.5,114.5 Z"/></g>
<g><path style="opacity:0.756" fill="#454545" d="M 329.5,120.5 C 345.295,121.137 360.962,121.804 376.5,122.5C 361.163,122.667 345.83,122.5 330.5,122C 329.944,121.617 329.611,121.117 329.5,120.5 Z"/></g>
<g><path style="opacity:1" fill="#151515" d="M 151.5,148.5 C 177.502,148.333 203.502,148.5 229.5,149C 230.308,149.308 230.975,149.808 231.5,150.5C 232.657,176.791 232.824,203.124 232,229.5C 231.692,230.308 231.192,230.975 230.5,231.5C 204.209,232.657 177.876,232.824 151.5,232C 150.692,231.692 150.025,231.192 149.5,230.5C 148.343,204.209 148.176,177.876 149,151.5C 149.698,150.309 150.531,149.309 151.5,148.5 Z M 222.5,222.5 C 201.167,222.5 179.833,222.5 158.5,222.5C 158.5,201.167 158.5,179.833 158.5,158.5C 179.833,158.5 201.167,158.5 222.5,158.5C 222.5,179.833 222.5,201.167 222.5,222.5 Z"/></g>
<g><path style="opacity:1" fill="#2c2c2c" d="M 246.5,156.5 C 245.699,154.958 245.366,153.292 245.5,151.5C 247.029,148.53 249.362,147.864 252.5,149.5C 255.675,153.786 254.675,156.786 249.5,158.5C 248.261,158.058 247.261,157.391 246.5,156.5 Z"/></g>
<g><path style="opacity:1" fill="#151515" d="M 269.5,148.5 C 295.502,148.333 321.502,148.5 347.5,149C 348.333,149.833 349.167,150.667 350,151.5C 350.667,177.5 350.667,203.5 350,229.5C 349.692,230.308 349.192,230.975 348.5,231.5C 322.209,232.657 295.876,232.824 269.5,232C 268.584,231.626 267.75,231.126 267,230.5C 266.333,204.167 266.333,177.833 267,151.5C 267.698,150.309 268.531,149.309 269.5,148.5 Z M 276.5,158.5 C 297.833,158.5 319.167,158.5 340.5,158.5C 340.5,179.833 340.5,201.167 340.5,222.5C 340.5,201.167 340.5,179.833 340.5,158.5C 319.167,158.5 297.833,158.5 276.5,158.5 Z"/></g>
<g><path style="opacity:0.486" fill="#9f9f9f" d="M 245.5,151.5 C 245.366,153.292 245.699,154.958 246.5,156.5C 245.351,156.209 244.684,155.376 244.5,154C 244.528,152.93 244.861,152.097 245.5,151.5 Z"/></g>
<g><path style="opacity:0.121" fill="#b7b7b7" d="M 222.5,222.5 C 201.006,223.497 179.34,223.831 157.5,223.5C 157.5,201.5 157.5,179.5 157.5,157.5C 179.5,157.5 201.5,157.5 223.5,157.5C 223.831,179.34 223.497,201.006 222.5,222.5 Z M 222.5,222.5 C 222.5,201.167 222.5,179.833 222.5,158.5C 201.167,158.5 179.833,158.5 158.5,158.5C 158.5,179.833 158.5,201.167 158.5,222.5C 179.833,222.5 201.167,222.5 222.5,222.5 Z"/></g>
<g><path style="opacity:0.12" fill="#dddddd" d="M 276.5,158.5 C 276.5,158.167 276.5,157.833 276.5,157.5C 298.167,157.5 319.833,157.5 341.5,157.5C 341.5,179.167 341.5,200.833 341.5,222.5C 341.167,222.5 340.833,222.5 340.5,222.5C 340.5,201.167 340.5,179.833 340.5,158.5C 319.167,158.5 297.833,158.5 276.5,158.5 Z"/></g>
<g><path style="opacity:1" fill="#1d1d1d" d="M 246.5,164.5 C 249.365,164.055 251.865,164.722 254,166.5C 254.667,187.5 254.667,208.5 254,229.5C 251,233.5 248,233.5 245,229.5C 244.333,208.5 244.333,187.5 245,166.5C 245.717,165.956 246.217,165.289 246.5,164.5 Z"/></g>
<g><path style="opacity:1" fill="#181818" d="M 177.5,173.5 C 186.173,173.334 194.84,173.5 203.5,174C 204.931,174.465 206.097,175.299 207,176.5C 207.667,185.5 207.667,194.5 207,203.5C 206.626,204.416 206.126,205.25 205.5,206C 200.442,207.116 195.275,207.616 190,207.5C 185.5,207.333 181,207.167 176.5,207C 176,206.5 175.5,206 175,205.5C 173.389,196.268 173.055,186.935 174,177.5C 174.69,175.65 175.856,174.316 177.5,173.5 Z"/></g>
<g><path style="opacity:1" fill="#141414" d="M 322.5,174.5 C 322.427,176.027 323.094,177.027 324.5,177.5C 324.666,186.839 324.5,196.173 324,205.5C 323.5,206 323,206.5 322.5,207C 313.5,207.667 304.5,207.667 295.5,207C 294.584,206.626 293.75,206.126 293,205.5C 291.387,195.934 291.053,186.267 292,176.5C 292.903,175.299 294.069,174.465 295.5,174C 304.578,173.196 313.578,173.363 322.5,174.5 Z"/></g>
<g><path style="opacity:0.855" fill="#767676" d="M 322.5,174.5 C 323.906,174.973 324.573,175.973 324.5,177.5C 323.094,177.027 322.427,176.027 322.5,174.5 Z"/></g>
<g><path style="opacity:0.502" fill="#898989" d="M 276.5,157.5 C 276.5,157.833 276.5,158.167 276.5,158.5C 276.5,179.833 276.5,201.167 276.5,222.5C 297.833,222.5 319.167,222.5 340.5,222.5C 340.833,222.5 341.167,222.5 341.5,222.5C 319.673,223.497 297.673,223.831 275.5,223.5C 275.169,201.327 275.503,179.327 276.5,157.5 Z"/></g>
<g><path style="opacity:0.478" fill="#a3a3a3" d="M 151.5,245.5 C 152.097,244.861 152.93,244.528 154,244.5C 155.376,244.684 156.209,245.351 156.5,246.5C 154.958,245.699 153.292,245.366 151.5,245.5 Z"/></g>
<g><path style="opacity:0.999" fill="#2c2c2c" d="M 151.5,245.5 C 153.292,245.366 154.958,245.699 156.5,246.5C 159.016,250.178 158.016,252.845 153.5,254.5C 150.5,254.167 148.833,252.5 148.5,249.5C 148.561,247.347 149.561,246.014 151.5,245.5 Z"/></g>
<g><path style="opacity:1" fill="#1c1c1c" d="M 165.5,252.5 C 165.448,250.097 165.781,247.764 166.5,245.5C 187.329,244.337 208.329,244.171 229.5,245C 233.5,248 233.5,251 229.5,254C 208.5,254.667 187.5,254.667 166.5,254C 165.944,253.617 165.611,253.117 165.5,252.5 Z"/></g>
<g><path style="opacity:1" fill="#303030" d="M 247.5,244.5 C 252.665,244.162 254.831,246.495 254,251.5C 251,255.5 248,255.5 245,251.5C 244.162,248.519 244.995,246.186 247.5,244.5 Z"/></g>
<g><path style="opacity:1" fill="#1d1d1d" d="M 269.5,244.5 C 290.503,244.333 311.503,244.5 332.5,245C 335.167,248 335.167,251 332.5,254C 311.5,254.667 290.5,254.667 269.5,254C 265.527,250.706 265.527,247.54 269.5,244.5 Z"/></g>
<g><path style="opacity:1" fill="#313131" d="M 349.5,251.5 C 348.5,251.833 347.833,252.5 347.5,253.5C 343.701,254.937 341.368,253.437 340.5,249C 341.895,244.942 344.561,243.775 348.5,245.5C 350.486,247.395 350.819,249.395 349.5,251.5 Z"/></g>
<g><path style="opacity:0.845" fill="#5d5d5d" d="M 166.5,245.5 C 165.781,247.764 165.448,250.097 165.5,252.5C 164.853,251.726 164.52,250.726 164.5,249.5C 164.34,247.645 165.007,246.312 166.5,245.5 Z"/></g>
<g><path style="opacity:0.016" fill="#bcbcbc" d="M 349.5,251.5 C 349.5,252.833 348.833,253.5 347.5,253.5C 347.833,252.5 348.5,251.833 349.5,251.5 Z"/></g>
<g><path style="opacity:0.498" fill="#909090" d="M 273.5,267.5 C 271.435,267.517 269.435,267.85 267.5,268.5C 268.134,267.053 269.301,266.387 271,266.5C 272.07,266.528 272.903,266.861 273.5,267.5 Z"/></g>
<g><path style="opacity:0.627" fill="#696969" d="M 303.5,267.5 C 296.11,267.236 288.777,267.57 281.5,268.5C 281.611,267.883 281.944,267.383 282.5,267C 289.679,266.179 296.679,266.345 303.5,267.5 Z"/></g>
<g><path style="opacity:1" fill="#141414" d="M 151.5,266.5 C 178.074,266.172 204.574,266.505 231,267.5C 232.15,281.076 232.65,294.743 232.5,308.5C 232.333,321.5 232.167,334.5 232,347.5C 231.692,348.308 231.192,348.975 230.5,349.5C 204.209,350.657 177.876,350.824 151.5,350C 150.667,349.167 149.833,348.333 149,347.5C 148.333,321.5 148.333,295.5 149,269.5C 149.698,268.309 150.531,267.309 151.5,266.5 Z M 158.5,276.5 C 179.833,276.5 201.167,276.5 222.5,276.5C 222.5,297.833 222.5,319.167 222.5,340.5C 222.5,319.167 222.5,297.833 222.5,276.5C 201.167,276.5 179.833,276.5 158.5,276.5 Z"/></g>
<g><path style="opacity:1" fill="#1d1d1d" d="M 246.5,266.5 C 249.695,265.961 252.195,266.961 254,269.5C 254.667,290.5 254.667,311.5 254,332.5C 251,335.167 248,335.167 245,332.5C 244.333,311.5 244.333,290.5 245,269.5C 245.513,268.473 246.013,267.473 246.5,266.5 Z"/></g>
<g><path style="opacity:1" fill="#212121" d="M 273.5,267.5 C 274.75,267.577 275.583,268.244 276,269.5C 276.667,275.167 276.667,280.833 276,286.5C 273,290.5 270,290.5 267,286.5C 266.181,280.319 266.347,274.319 267.5,268.5C 269.435,267.85 271.435,267.517 273.5,267.5 Z"/></g>
<g><path style="opacity:1" fill="#161616" d="M 303.5,267.5 C 307.467,270.077 307.467,272.744 303.5,275.5C 298.833,275.5 294.167,275.5 289.5,275.5C 289.5,278.833 289.5,282.167 289.5,285.5C 288.538,289.146 286.205,290.313 282.5,289C 282,288.5 281.5,288 281,287.5C 280.18,280.986 280.347,274.653 281.5,268.5C 288.777,267.57 296.11,267.236 303.5,267.5 Z"/></g>
<g><path style="opacity:1" fill="#232323" d="M 314.5,266.5 C 321.175,266.334 327.842,266.5 334.5,267C 337.418,270.472 337.085,273.472 333.5,276C 327.167,276.667 320.833,276.667 314.5,276C 310.581,272.84 310.581,269.673 314.5,266.5 Z"/></g>
<g><path style="opacity:1" fill="#252525" d="M 342.5,266.5 C 345.695,265.961 348.195,266.961 350,269.5C 350.667,295.5 350.667,321.5 350,347.5C 346.477,351.701 343.477,351.368 341,346.5C 340.333,321.167 340.333,295.833 341,270.5C 341.791,269.255 342.291,267.922 342.5,266.5 Z"/></g>
<g><path style="opacity:0.376" fill="#b2b2b2" d="M 303.5,275.5 C 299.366,276.485 295.032,276.818 290.5,276.5C 290.81,279.713 290.477,282.713 289.5,285.5C 289.5,282.167 289.5,278.833 289.5,275.5C 294.167,275.5 298.833,275.5 303.5,275.5 Z"/></g>
<g><path style="opacity:0.498" fill="#8a8a8a" d="M 157.5,276.5 C 179.327,275.503 201.327,275.169 223.5,275.5C 223.831,297.673 223.497,319.673 222.5,341.5C 222.5,341.167 222.5,340.833 222.5,340.5C 222.5,319.167 222.5,297.833 222.5,276.5C 201.167,276.5 179.833,276.5 158.5,276.5C 158.167,276.5 157.833,276.5 157.5,276.5 Z"/></g>
<g><path style="opacity:0.998" fill="#343434" d="M 301.5,279.5 C 306.029,280.559 307.363,283.226 305.5,287.5C 301.214,290.675 298.214,289.675 296.5,284.5C 297.245,281.754 298.912,280.088 301.5,279.5 Z"/></g>
<g><path style="opacity:0.999" fill="#272727" d="M 312.5,279.5 C 315.941,279.301 319.274,279.801 322.5,281C 324.013,283.916 323.68,286.582 321.5,289C 317.833,289.667 314.167,289.667 310.5,289C 308.556,286.847 308.056,284.347 309,281.5C 310.302,280.915 311.469,280.249 312.5,279.5 Z"/></g>
<g><path style="opacity:0.999" fill="#363636" d="M 331.5,279.5 C 336.151,280.232 337.651,282.899 336,287.5C 331.415,290.732 328.248,289.732 326.5,284.5C 326.68,283.446 327.013,282.446 327.5,281.5C 328.949,280.828 330.282,280.161 331.5,279.5 Z"/></g>
<g><path style="opacity:1" fill="#141414" d="M 177.5,324.5 C 177.027,323.094 176.027,322.427 174.5,322.5C 173.363,313.578 173.196,304.578 174,295.5C 174.465,294.069 175.299,292.903 176.5,292C 186.267,291.053 195.934,291.387 205.5,293C 206.126,293.75 206.626,294.584 207,295.5C 207.667,304.5 207.667,313.5 207,322.5C 206.5,323 206,323.5 205.5,324C 196.173,324.5 186.839,324.666 177.5,324.5 Z"/></g>
<g><path style="opacity:0.999" fill="#333333" d="M 268.5,292.5 C 273.083,291.343 275.75,293.01 276.5,297.5C 274.838,302.664 271.838,303.664 267.5,300.5C 266.025,297.557 266.358,294.891 268.5,292.5 Z"/></g>
<g><path style="opacity:0.999" fill="#363636" d="M 281.5,292.5 C 287.168,291.671 289.668,294.005 289,299.5C 284.5,303.916 281.333,303.083 279.5,297C 280.044,295.415 280.711,293.915 281.5,292.5 Z"/></g>
<g><path style="opacity:1" fill="#262626" d="M 294.5,292.5 C 299.511,292.334 304.511,292.501 309.5,293C 312.299,296.339 311.966,299.339 308.5,302C 304.167,302.667 299.833,302.667 295.5,302C 290.722,299.201 290.389,296.034 294.5,292.5 Z"/></g>
<g><path style="opacity:1" fill="#1a1a1a" d="M 316.5,292.5 C 322.509,292.334 328.509,292.501 334.5,293C 335,293.5 335.5,294 336,294.5C 336.667,300.5 336.667,306.5 336,312.5C 332.826,314.993 329.159,315.993 325,315.5C 321.431,315.714 318.098,315.047 315,313.5C 313.424,307.612 313.091,301.612 314,295.5C 314.698,294.309 315.531,293.309 316.5,292.5 Z M 326.5,305.5 C 325.5,305.5 324.5,305.5 323.5,305.5C 323.5,304.5 323.5,303.5 323.5,302.5C 324.5,302.5 325.5,302.5 326.5,302.5C 326.5,303.5 326.5,304.5 326.5,305.5 Z"/></g>
<g><path style="opacity:0.243" fill="#b5b5b5" d="M 326.5,305.5 C 326.5,304.5 326.5,303.5 326.5,302.5C 325.5,302.5 324.5,302.5 323.5,302.5C 323.5,303.5 323.5,304.5 323.5,305.5C 322.566,304.432 322.232,303.099 322.5,301.5C 324.167,301.5 325.833,301.5 327.5,301.5C 327.768,303.099 327.434,304.432 326.5,305.5 Z M 326.5,305.5 C 325.5,305.5 324.5,305.5 323.5,305.5C 323.5,304.5 323.5,303.5 323.5,302.5C 324.5,302.5 325.5,302.5 326.5,302.5C 326.5,303.5 326.5,304.5 326.5,305.5 Z"/></g>
<g><path style="opacity:0.999" fill="#343434" d="M 281.5,303.5 C 288.61,302.904 290.61,305.737 287.5,312C 283.05,314.442 280.383,313.108 279.5,308C 280.044,306.415 280.711,304.915 281.5,303.5 Z"/></g>
<g><path style="opacity:1" fill="#262626" d="M 294.5,303.5 C 299.179,303.334 303.845,303.501 308.5,304C 311.966,306.661 312.299,309.661 309.5,313C 304.5,313.667 299.5,313.667 294.5,313C 292.777,312.225 291.777,310.892 291.5,309C 292.124,306.915 293.124,305.082 294.5,303.5 Z"/></g>
<g><path style="opacity:1" fill="#1e1e1e" d="M 268.5,322.5 C 267.559,317.93 267.226,313.263 267.5,308.5C 270.162,304.518 272.996,304.518 276,308.5C 276.667,312.833 276.667,317.167 276,321.5C 273.621,324.665 271.121,324.999 268.5,322.5 Z"/></g>
<g><path style="opacity:0.627" fill="#747474" d="M 267.5,308.5 C 267.226,313.263 267.559,317.93 268.5,322.5C 267.195,320.603 266.529,318.269 266.5,315.5C 266.503,312.975 266.837,310.641 267.5,308.5 Z"/></g>
<g><path style="opacity:0.999" fill="#383838" d="M 282.5,314.5 C 288.803,314.924 290.469,317.757 287.5,323C 283.594,325.364 280.928,324.364 279.5,320C 279.895,317.752 280.895,315.918 282.5,314.5 Z"/></g>
<g><path style="opacity:1" fill="#2c2c2c" d="M 294.5,314.5 C 299.179,314.334 303.845,314.501 308.5,315C 312.815,318.551 312.482,321.551 307.5,324C 303.5,324.667 299.5,324.667 295.5,324C 290.598,321.451 290.265,318.284 294.5,314.5 Z"/></g>
<g><path style="opacity:0.999" fill="#333333" d="M 315.5,316.5 C 322.61,315.904 324.61,318.737 321.5,325C 314.161,325.809 312.161,322.976 315.5,316.5 Z"/></g>
<g><path style="opacity:1" fill="#262626" d="M 334.5,324.5 C 332.097,324.552 329.764,324.219 327.5,323.5C 325.982,319.537 327.315,317.204 331.5,316.5C 335.989,316.833 337.489,319.167 336,323.5C 335.617,324.056 335.117,324.389 334.5,324.5 Z"/></g>
<g><path style="opacity:0.855" fill="#777777" d="M 174.5,322.5 C 176.027,322.427 177.027,323.094 177.5,324.5C 175.973,324.573 174.973,323.906 174.5,322.5 Z"/></g>
<g><path style="opacity:0.631" fill="#8f8f8f" d="M 327.5,323.5 C 329.764,324.219 332.097,324.552 334.5,324.5C 333.726,325.147 332.726,325.48 331.5,325.5C 329.645,325.66 328.312,324.993 327.5,323.5 Z"/></g>
<g><path style="opacity:1" fill="#1b1b1b" d="M 269.5,327.5 C 275.176,327.334 280.843,327.501 286.5,328C 287.333,328.833 288.167,329.667 289,330.5C 289.667,336.167 289.667,341.833 289,347.5C 288.167,348.333 287.333,349.167 286.5,350C 280.833,350.667 275.167,350.667 269.5,350C 268.692,349.692 268.025,349.192 267.5,348.5C 266.374,342.218 266.207,335.885 267,329.5C 267.995,328.934 268.828,328.267 269.5,327.5 Z M 276.5,337.5 C 277.5,337.5 278.5,337.5 279.5,337.5C 279.5,338.5 279.5,339.5 279.5,340.5C 278.5,340.5 277.5,340.5 276.5,340.5C 276.5,339.5 276.5,338.5 276.5,337.5 Z"/></g>
<g><path style="opacity:0.999" fill="#2e2e2e" d="M 296.5,327.5 C 303.641,327.62 305.308,330.787 301.5,337C 295.498,337.993 293.332,335.493 295,329.5C 295.717,328.956 296.217,328.289 296.5,327.5 Z"/></g>
<g><path style="opacity:1" fill="#202020" d="M 334.5,328.5 C 335.219,330.764 335.552,333.097 335.5,335.5C 335.082,336.222 334.416,336.722 333.5,337C 327.167,337.667 320.833,337.667 314.5,337C 310.5,334 310.5,331 314.5,328C 321.247,327.208 327.914,327.374 334.5,328.5 Z"/></g>
<g><path style="opacity:1" fill="#121212" d="M 114.5,384.5 C 114.18,366.09 114.514,347.757 115.5,329.5C 117.817,328.058 119.984,328.392 122,330.5C 122.5,345.83 122.667,361.163 122.5,376.5C 137.837,376.333 153.17,376.5 168.5,377C 171.167,379.667 171.167,382.333 168.5,385C 150.329,385.829 132.329,385.662 114.5,384.5 Z"/></g>
<g><path style="opacity:1" fill="#151515" d="M 378.5,328.5 C 381.044,328.104 383.211,328.771 385,330.5C 385.667,348.5 385.667,366.5 385,384.5C 366.907,385.659 348.74,385.825 330.5,385C 327.833,382.333 327.833,379.667 330.5,377C 345.83,376.5 361.163,376.333 376.5,376.5C 376.333,361.163 376.5,345.83 377,330.5C 377.717,329.956 378.217,329.289 378.5,328.5 Z"/></g>
<g><path style="opacity:0.616" fill="#939393" d="M 334.5,328.5 C 335.993,329.312 336.66,330.645 336.5,332.5C 336.48,333.726 336.147,334.726 335.5,335.5C 335.552,333.097 335.219,330.764 334.5,328.5 Z"/></g>
<g><path style="opacity:0.768" fill="#424242" d="M 115.5,329.5 C 114.514,347.757 114.18,366.09 114.5,384.5C 113.834,375.506 113.5,366.34 113.5,357C 113.502,347.475 114.168,338.308 115.5,329.5 Z"/></g>
<g><path style="opacity:0.243" fill="#afafaf" d="M 275.5,336.5 C 277.167,336.5 278.833,336.5 280.5,336.5C 280.5,338.167 280.5,339.833 280.5,341.5C 278.833,341.5 277.167,341.5 275.5,341.5C 275.5,339.833 275.5,338.167 275.5,336.5 Z M 276.5,337.5 C 276.5,338.5 276.5,339.5 276.5,340.5C 277.5,340.5 278.5,340.5 279.5,340.5C 279.5,339.5 279.5,338.5 279.5,337.5C 278.5,337.5 277.5,337.5 276.5,337.5 Z"/></g>
<g><path style="opacity:0.118" fill="#dddddd" d="M 157.5,276.5 C 157.833,276.5 158.167,276.5 158.5,276.5C 158.5,297.833 158.5,319.167 158.5,340.5C 179.833,340.5 201.167,340.5 222.5,340.5C 222.5,340.833 222.5,341.167 222.5,341.5C 200.833,341.5 179.167,341.5 157.5,341.5C 157.5,319.833 157.5,298.167 157.5,276.5 Z"/></g>
<g><path style="opacity:0.999" fill="#343434" d="M 247.5,340.5 C 254.848,341.451 256.181,344.618 251.5,350C 247.253,351.042 244.92,349.375 244.5,345C 245.008,343.107 246.008,341.607 247.5,340.5 Z"/></g>
<g><path style="opacity:1" fill="#282828" d="M 301.5,341.5 C 302.15,343.435 302.483,345.435 302.5,347.5C 300.61,351.056 298.11,351.39 295,348.5C 293.35,342.319 295.517,339.986 301.5,341.5 Z"/></g>
<g><path style="opacity:1" fill="#282828" d="M 315.5,340.5 C 321.176,340.334 326.843,340.501 332.5,341C 337.482,343.449 337.815,346.449 333.5,350C 327.167,350.667 320.833,350.667 314.5,350C 310.379,346.329 310.712,343.163 315.5,340.5 Z"/></g>
<g><path style="opacity:0.353" fill="#9d9d9d" d="M 301.5,341.5 C 302.947,342.134 303.613,343.301 303.5,345C 303.472,346.07 303.139,346.903 302.5,347.5C 302.483,345.435 302.15,343.435 301.5,341.5 Z"/></g>
</svg>
