<?xml version="1.0" encoding="UTF-8"?>
<svg version="1.1" xmlns="http://www.w3.org/2000/svg" width="500" height="500">
<path d="M0 0 C0.87107895 -0.00960754 1.7421579 -0.01921509 2.63963318 -0.02911377 C3.58234573 -0.03336365 4.52505829 -0.03761353 5.49633789 -0.04199219 C6.94635948 -0.0505423 6.94635948 -0.0505423 8.42567444 -0.05926514 C10.47257388 -0.06872054 12.51948859 -0.07525126 14.56640625 -0.07910156 C17.70282402 -0.0888171 20.83858936 -0.11983952 23.97485352 -0.15136719 C25.96117774 -0.15789611 27.94750666 -0.16314702 29.93383789 -0.16699219 C31.34487038 -0.18551239 31.34487038 -0.18551239 32.78440857 -0.20440674 C33.65863968 -0.20140564 34.53287079 -0.19840454 35.43359375 -0.1953125 C36.20255478 -0.19895813 36.97151581 -0.20260376 37.76377869 -0.20635986 C40.35860625 0.266244 41.19472309 1.08264399 42.78149414 3.16113281 C44.13960617 7.43014708 44.85486261 11.32007575 45.10571289 15.78222656 C45.62620647 25.62868599 45.62620647 25.62868599 50.96118164 33.50097656 C55.36868653 36.66697904 60.00794116 39.09338798 65.50024414 39.22753906 C68.17461786 38.50991545 70.33640206 37.46444766 72.78149414 36.16113281 C74.55520867 35.34203543 76.32965477 34.52408191 78.1171875 33.7355957 C79.88881124 32.94683191 81.6386591 32.10969363 83.38696289 31.27050781 C87.56142643 29.90624125 89.61896748 29.68779863 93.78149414 31.16113281 C96.08034518 33.74699855 97.57728155 36.66010229 99.15649414 39.72363281 C99.61910645 40.57465576 100.08171875 41.42567871 100.55834961 42.30249023 C101.51203458 44.05722487 102.4568298 45.81681923 103.39282227 47.58105469 C104.69937642 50.00856247 106.05835721 52.39297634 107.45336914 54.77050781 C107.86796387 55.48134521 108.28255859 56.19218262 108.7097168 56.92456055 C109.48653839 58.25460209 110.26724267 59.58238634 111.05249023 60.9074707 C113.18134026 64.63171996 114.86436957 67.82201238 114.78149414 72.16113281 C112.75805664 74.68066406 112.75805664 74.68066406 109.78149414 77.16113281 C108.70568895 78.10221409 107.63017731 79.04363104 106.55493164 79.98535156 C105.42409193 80.94211525 104.2912544 81.89652232 103.15649414 82.84863281 C102.58415039 83.33396484 102.01180664 83.81929688 101.42211914 84.31933594 C98.94054799 86.41135813 96.48505421 88.35875943 93.78149414 90.16113281 C91.8152976 95.8832195 91.52403093 103.27283161 92.78149414 109.16113281 C95.48583356 113.86266084 100.23615076 116.46426653 104.78149414 119.16113281 C106.14488779 120.10629306 107.50132549 121.06175556 108.84399414 122.03613281 C109.81336914 122.73738281 110.78274414 123.43863281 111.78149414 124.16113281 C113.78149414 126.09863281 113.78149414 126.09863281 114.78149414 128.16113281 C114.40405535 133.55770439 112.26990999 137.57913031 109.71899414 142.22363281 C109.11716309 143.33702026 109.11716309 143.33702026 108.50317383 144.47290039 C104.83663654 151.19079866 100.97227664 157.75442771 96.78149414 164.16113281 C96.34321289 164.8765625 95.90493164 165.59199219 95.45336914 166.32910156 C94.28149414 168.03613281 94.28149414 168.03613281 91.78149414 170.16113281 C84.24653241 169.93732207 78.2960104 166.97163432 71.58422852 163.78027344 C66.98885712 161.55421634 66.98885712 161.55421634 62.07836914 161.79394531 C60.94141602 162.47070312 60.94141602 162.47070312 59.78149414 163.16113281 C58.80051758 163.44085938 57.81954102 163.72058594 56.80883789 164.00878906 C53.04134973 165.49006443 50.12211154 166.82505987 47.78149414 170.16113281 C45.38210032 177.3373489 44.80242628 185.01732049 44.18530273 192.52319336 C43.78137996 195.16187874 43.20477451 196.91470809 41.78149414 199.16113281 C39.47107783 200.31634097 38.13383751 200.29363939 35.56298828 200.30639648 C34.69190933 200.31277634 33.82083038 200.31915619 32.9233551 200.32572937 C31.98064255 200.32684219 31.03792999 200.32795502 30.06665039 200.32910156 C29.09996933 200.33242996 28.13328827 200.33575836 27.13731384 200.33918762 C25.09040809 200.34425598 23.04349405 200.34659598 20.99658203 200.34643555 C17.86029485 200.34862145 14.72435964 200.36677656 11.58813477 200.38574219 C9.60180785 200.3886762 7.61547925 200.39066094 5.62915039 200.39160156 C4.2181179 200.40237984 4.2181179 200.40237984 2.77857971 200.41337585 C1.46723305 200.40876091 1.46723305 200.40876091 0.12939453 200.40405273 C-1.02404701 200.40619026 -1.02404701 200.40619026 -2.20079041 200.40837097 C-4.21850586 200.16113281 -4.21850586 200.16113281 -7.21850586 198.16113281 C-7.88864114 195.6652512 -8.37736454 193.32527071 -8.78100586 190.78613281 C-8.91410156 190.06804443 -9.04719727 189.34995605 -9.18432617 188.61010742 C-9.78702223 185.28158149 -10.21915073 182.14028185 -10.32397461 178.75097656 C-10.5139764 174.77120941 -10.71778091 171.68422558 -13.62719727 168.73144531 C-18.17677774 165.02523292 -23.67397067 161.29594873 -29.68334961 161.06738281 C-32.0694641 161.83680169 -34.03307562 162.92725354 -36.21850586 164.16113281 C-38.77297793 165.25474066 -41.32912574 166.31207529 -43.90600586 167.34863281 C-44.53635742 167.62199463 -45.16670898 167.89535645 -45.81616211 168.17700195 C-49.74786925 169.82713695 -52.97645826 170.9594957 -57.21850586 170.16113281 C-59.23803711 167.84472656 -59.23803711 167.84472656 -61.03100586 164.59863281 C-61.71033358 163.4031158 -62.39003613 162.20781172 -63.07006836 161.01269531 C-63.4184375 160.38266602 -63.76680664 159.75263672 -64.12573242 159.10351562 C-65.59610048 156.48996597 -67.16561284 153.94237449 -68.73535156 151.38769531 C-71.71051163 146.52320002 -74.62615543 141.61180563 -77.34350586 136.59863281 C-77.73795898 135.87546875 -78.13241211 135.15230469 -78.53881836 134.40722656 C-79.55248227 131.05747514 -79.41612375 129.49559633 -78.21850586 126.16113281 C-75.67351287 123.42501837 -72.79751183 121.18938578 -69.84350586 118.91113281 C-69.06233398 118.28722656 -68.28116211 117.66332031 -67.47631836 117.02050781 C-64.44947304 114.61561701 -61.43655224 112.30649707 -58.21850586 110.16113281 C-56.40177396 104.06463769 -56.50211848 96.24861935 -58.21850586 90.16113281 C-61.23588743 85.63106469 -65.81590232 82.98477246 -70.41479492 80.25927734 C-74.33113382 77.87491184 -77.58464269 75.75908857 -79.33569336 71.34472656 C-79.17264176 66.91515822 -77.51989093 64.01857899 -75.34350586 60.22363281 C-74.93729004 59.48725586 -74.53107422 58.75087891 -74.11254883 57.9921875 C-70.00148807 50.60524877 -65.63764066 43.36662972 -61.21850586 36.16113281 C-60.78280273 35.21753906 -60.34709961 34.27394531 -59.89819336 33.30175781 C-58.21850586 31.16113281 -58.21850586 31.16113281 -55.19506836 30.06738281 C-49.63214094 30.19853238 -45.55388804 32.27820412 -40.59350586 34.66113281 C-38.75293489 35.53796037 -36.90671476 36.40305026 -35.05444336 37.25488281 C-34.24539551 37.64353516 -33.43634766 38.0321875 -32.6027832 38.43261719 C-27.79503024 39.90162546 -23.06535299 37.66398806 -18.65600586 35.66113281 C-14.81444194 33.6070263 -12.70541329 31.57151974 -11.2644043 27.39746094 C-9.82433297 20.9280346 -9.1097866 14.38608102 -8.60644531 7.78320312 C-8.21599111 5.14413568 -7.64166057 3.40569495 -6.21850586 1.16113281 C-3.91231488 0.00803732 -2.56632765 0.02281135 0 0 Z M-10.21850586 79.16113281 C-11.93840935 81.7363144 -13.1822241 84.24940635 -14.21850586 87.16113281 C-14.57041992 88.09441406 -14.92233398 89.02769531 -15.28491211 89.98925781 C-17.98992284 99.17950349 -16.66755367 108.51581735 -12.87866211 117.18066406 C-8.17997501 125.61618938 -1.77436644 130.29354198 7.31665039 133.34863281 C17.0801625 135.63815989 26.93748044 135.1068856 35.78149414 130.16113281 C42.19308405 125.54515083 47.10931178 120.66499375 49.78149414 113.16113281 C50.19399414 112.06800781 50.60649414 110.97488281 51.03149414 109.84863281 C53.1710261 99.32926734 51.75590005 89.66599085 46.15649414 80.47363281 C40.52324622 72.63426071 33.33641585 67.73257368 23.78149414 66.16113281 C10.0033841 64.66554421 -1.07781479 68.65280046 -10.21850586 79.16113281 Z " fill="#E7E7DF" transform="translate(232.218505859375,149.8388671875)"/>
<path d="M0 0 C1.32114304 0.0001133 1.32114304 0.0001133 2.66897583 0.00022888 C3.62109955 0.00539017 4.57322327 0.01055145 5.55419922 0.01586914 C7.01489334 0.01799156 7.01489334 0.01799156 8.50509644 0.02015686 C11.62305745 0.02576566 14.74094732 0.03831966 17.85888672 0.05102539 C19.96956277 0.05603926 22.08023994 0.06060236 24.19091797 0.06469727 C29.37193193 0.07573794 34.55290424 0.09248466 39.73388672 0.11352539 C39.73388672 0.44352539 39.73388672 0.77352539 39.73388672 1.11352539 C38.45223633 1.13334473 37.17058594 1.15316406 35.85009766 1.17358398 C31.09387605 1.24967043 26.33795915 1.33838337 21.58203125 1.4309082 C19.52382423 1.46918534 17.4655506 1.50404043 15.40722656 1.53540039 C12.44816283 1.58107817 9.48955715 1.63906841 6.53076172 1.69946289 C5.61083435 1.7110141 4.69090698 1.72256531 3.74310303 1.73446655 C2.45221771 1.76427109 2.45221771 1.76427109 1.13525391 1.79467773 C0.002742 1.81466324 0.002742 1.81466324 -1.15264893 1.83505249 C-3.53404885 2.14882894 -5.18926157 2.93348766 -7.26611328 4.11352539 C-6.93611328 3.12352539 -6.60611328 2.13352539 -6.26611328 1.11352539 C-3.93601349 -0.05152451 -2.59364251 -0.00741041 0 0 Z " fill="#F6F5F0" transform="translate(232.26611328125,149.886474609375)"/>
</svg>
